G04 #@! TF.GenerationSoftware,KiCad,Pcbnew,9.0.4*
G04 #@! TF.CreationDate,2025-12-10T12:01:20-06:00*
G04 #@! TF.ProjectId,flightcompv2,666c6967-6874-4636-9f6d-7076322e6b69,rev?*
G04 #@! TF.SameCoordinates,Original*
G04 #@! TF.FileFunction,Soldermask,Top*
G04 #@! TF.FilePolarity,Negative*
%FSLAX46Y46*%
G04 Gerber Fmt 4.6, Leading zero omitted, Abs format (unit mm)*
G04 Created by KiCad (PCBNEW 9.0.4) date 2025-12-10 12:01:20*
%MOMM*%
%LPD*%
G01*
G04 APERTURE LIST*
G04 Aperture macros list*
%AMRoundRect*
0 Rectangle with rounded corners*
0 $1 Rounding radius*
0 $2 $3 $4 $5 $6 $7 $8 $9 X,Y pos of 4 corners*
0 Add a 4 corners polygon primitive as box body*
4,1,4,$2,$3,$4,$5,$6,$7,$8,$9,$2,$3,0*
0 Add four circle primitives for the rounded corners*
1,1,$1+$1,$2,$3*
1,1,$1+$1,$4,$5*
1,1,$1+$1,$6,$7*
1,1,$1+$1,$8,$9*
0 Add four rect primitives between the rounded corners*
20,1,$1+$1,$2,$3,$4,$5,0*
20,1,$1+$1,$4,$5,$6,$7,0*
20,1,$1+$1,$6,$7,$8,$9,0*
20,1,$1+$1,$8,$9,$2,$3,0*%
G04 Aperture macros list end*
%ADD10C,0.788500*%
%ADD11C,0.010000*%
%ADD12RoundRect,0.102000X0.500000X0.900000X-0.500000X0.900000X-0.500000X-0.900000X0.500000X-0.900000X0*%
%ADD13RoundRect,0.250000X-0.475000X0.250000X-0.475000X-0.250000X0.475000X-0.250000X0.475000X0.250000X0*%
%ADD14RoundRect,0.218750X-0.256250X0.218750X-0.256250X-0.218750X0.256250X-0.218750X0.256250X0.218750X0*%
%ADD15C,0.900000*%
%ADD16RoundRect,0.102000X0.550000X-0.350000X0.550000X0.350000X-0.550000X0.350000X-0.550000X-0.350000X0*%
%ADD17RoundRect,0.102000X0.400000X-0.500000X0.400000X0.500000X-0.400000X0.500000X-0.400000X-0.500000X0*%
%ADD18R,1.549400X0.609600*%
%ADD19R,1.803400X1.193800*%
%ADD20RoundRect,0.225000X0.225000X0.250000X-0.225000X0.250000X-0.225000X-0.250000X0.225000X-0.250000X0*%
%ADD21RoundRect,0.140000X-0.140000X-0.170000X0.140000X-0.170000X0.140000X0.170000X-0.140000X0.170000X0*%
%ADD22RoundRect,0.099250X-0.607750X-0.297750X0.607750X-0.297750X0.607750X0.297750X-0.607750X0.297750X0*%
%ADD23RoundRect,0.225000X-0.250000X0.225000X-0.250000X-0.225000X0.250000X-0.225000X0.250000X0.225000X0*%
%ADD24RoundRect,0.250000X-0.350000X0.450000X-0.350000X-0.450000X0.350000X-0.450000X0.350000X0.450000X0*%
%ADD25R,0.609600X1.549400*%
%ADD26R,1.193800X1.803400*%
%ADD27RoundRect,0.135000X0.185000X-0.135000X0.185000X0.135000X-0.185000X0.135000X-0.185000X-0.135000X0*%
%ADD28RoundRect,0.102000X-0.550000X-0.500000X0.550000X-0.500000X0.550000X0.500000X-0.550000X0.500000X0*%
%ADD29RoundRect,0.218750X-0.218750X-0.256250X0.218750X-0.256250X0.218750X0.256250X-0.218750X0.256250X0*%
%ADD30RoundRect,0.135000X-0.135000X-0.185000X0.135000X-0.185000X0.135000X0.185000X-0.135000X0.185000X0*%
%ADD31RoundRect,0.140000X0.170000X-0.140000X0.170000X0.140000X-0.170000X0.140000X-0.170000X-0.140000X0*%
%ADD32RoundRect,0.102000X-1.250000X-1.500000X1.250000X-1.500000X1.250000X1.500000X-1.250000X1.500000X0*%
%ADD33R,0.499999X0.249999*%
%ADD34R,0.900001X1.599999*%
%ADD35RoundRect,0.102000X0.660400X0.279400X-0.660400X0.279400X-0.660400X-0.279400X0.660400X-0.279400X0*%
%ADD36RoundRect,0.200000X-0.275000X0.200000X-0.275000X-0.200000X0.275000X-0.200000X0.275000X0.200000X0*%
%ADD37RoundRect,0.102000X-0.125000X-0.337500X0.125000X-0.337500X0.125000X0.337500X-0.125000X0.337500X0*%
%ADD38RoundRect,0.102000X-0.287500X-0.125000X0.287500X-0.125000X0.287500X0.125000X-0.287500X0.125000X0*%
%ADD39RoundRect,0.225000X0.250000X-0.225000X0.250000X0.225000X-0.250000X0.225000X-0.250000X-0.225000X0*%
%ADD40R,1.650000X1.650000*%
%ADD41C,1.650000*%
%ADD42RoundRect,0.140000X0.140000X0.170000X-0.140000X0.170000X-0.140000X-0.170000X0.140000X-0.170000X0*%
%ADD43RoundRect,0.102000X0.125000X0.137500X-0.125000X0.137500X-0.125000X-0.137500X0.125000X-0.137500X0*%
%ADD44RoundRect,0.102000X0.137500X0.125000X-0.137500X0.125000X-0.137500X-0.125000X0.137500X-0.125000X0*%
%ADD45R,3.500000X1.000000*%
%ADD46R,3.400000X1.500000*%
%ADD47RoundRect,0.135000X0.135000X0.185000X-0.135000X0.185000X-0.135000X-0.185000X0.135000X-0.185000X0*%
%ADD48RoundRect,0.075000X-0.700000X-0.075000X0.700000X-0.075000X0.700000X0.075000X-0.700000X0.075000X0*%
%ADD49RoundRect,0.075000X-0.075000X-0.700000X0.075000X-0.700000X0.075000X0.700000X-0.075000X0.700000X0*%
%ADD50RoundRect,0.250000X-0.262500X-0.450000X0.262500X-0.450000X0.262500X0.450000X-0.262500X0.450000X0*%
%ADD51RoundRect,0.102000X-0.975000X0.975000X-0.975000X-0.975000X0.975000X-0.975000X0.975000X0.975000X0*%
%ADD52C,2.154000*%
%ADD53C,3.200000*%
%ADD54RoundRect,0.140000X-0.170000X0.140000X-0.170000X-0.140000X0.170000X-0.140000X0.170000X0.140000X0*%
%ADD55RoundRect,0.135000X-0.185000X0.135000X-0.185000X-0.135000X0.185000X-0.135000X0.185000X0.135000X0*%
%ADD56RoundRect,0.250000X0.250000X0.475000X-0.250000X0.475000X-0.250000X-0.475000X0.250000X-0.475000X0*%
%ADD57RoundRect,0.102000X-0.350000X-0.550000X0.350000X-0.550000X0.350000X0.550000X-0.350000X0.550000X0*%
%ADD58RoundRect,0.102000X-0.500000X-0.400000X0.500000X-0.400000X0.500000X0.400000X-0.500000X0.400000X0*%
%ADD59RoundRect,0.250000X-0.250000X-0.475000X0.250000X-0.475000X0.250000X0.475000X-0.250000X0.475000X0*%
%ADD60R,0.350000X0.590000*%
%ADD61R,0.590000X0.350000*%
%ADD62RoundRect,0.102000X-0.660400X-0.279400X0.660400X-0.279400X0.660400X0.279400X-0.660400X0.279400X0*%
%ADD63R,1.700000X1.700000*%
%ADD64C,1.700000*%
%ADD65RoundRect,0.102000X0.975000X-0.975000X0.975000X0.975000X-0.975000X0.975000X-0.975000X-0.975000X0*%
%ADD66RoundRect,0.375000X0.625000X0.375000X-0.625000X0.375000X-0.625000X-0.375000X0.625000X-0.375000X0*%
%ADD67RoundRect,0.500000X0.500000X1.400000X-0.500000X1.400000X-0.500000X-1.400000X0.500000X-1.400000X0*%
%ADD68RoundRect,0.102000X-0.415000X-0.135000X0.415000X-0.135000X0.415000X0.135000X-0.415000X0.135000X0*%
%ADD69RoundRect,0.102000X-0.135000X-0.415000X0.135000X-0.415000X0.135000X0.415000X-0.135000X0.415000X0*%
%ADD70RoundRect,0.100000X-0.130000X-0.100000X0.130000X-0.100000X0.130000X0.100000X-0.130000X0.100000X0*%
%ADD71RoundRect,0.059250X0.412750X0.177750X-0.412750X0.177750X-0.412750X-0.177750X0.412750X-0.177750X0*%
%ADD72RoundRect,0.102000X0.420000X1.200000X-0.420000X1.200000X-0.420000X-1.200000X0.420000X-1.200000X0*%
%ADD73RoundRect,0.200000X0.275000X-0.200000X0.275000X0.200000X-0.275000X0.200000X-0.275000X-0.200000X0*%
%ADD74RoundRect,0.218750X0.218750X0.256250X-0.218750X0.256250X-0.218750X-0.256250X0.218750X-0.256250X0*%
G04 APERTURE END LIST*
D10*
X202369250Y-88500000D02*
G75*
G02*
X201580750Y-88500000I-394250J0D01*
G01*
X201580750Y-88500000D02*
G75*
G02*
X202369250Y-88500000I394250J0D01*
G01*
X202369250Y-93500000D02*
G75*
G02*
X201580750Y-93500000I-394250J0D01*
G01*
X201580750Y-93500000D02*
G75*
G02*
X202369250Y-93500000I394250J0D01*
G01*
D11*
X202738500Y-89963500D02*
X201261500Y-89963500D01*
X201261500Y-89436500D01*
X202738500Y-89436500D01*
X202738500Y-89963500D01*
G36*
X202738500Y-89963500D02*
G01*
X201261500Y-89963500D01*
X201261500Y-89436500D01*
X202738500Y-89436500D01*
X202738500Y-89963500D01*
G37*
X202738500Y-90613500D02*
X201261500Y-90613500D01*
X201261500Y-90086500D01*
X202738500Y-90086500D01*
X202738500Y-90613500D01*
G36*
X202738500Y-90613500D02*
G01*
X201261500Y-90613500D01*
X201261500Y-90086500D01*
X202738500Y-90086500D01*
X202738500Y-90613500D01*
G37*
X202738500Y-91263500D02*
X201261500Y-91263500D01*
X201261500Y-90736500D01*
X202738500Y-90736500D01*
X202738500Y-91263500D01*
G36*
X202738500Y-91263500D02*
G01*
X201261500Y-91263500D01*
X201261500Y-90736500D01*
X202738500Y-90736500D01*
X202738500Y-91263500D01*
G37*
X202738500Y-91913500D02*
X201261500Y-91913500D01*
X201261500Y-91386500D01*
X202738500Y-91386500D01*
X202738500Y-91913500D01*
G36*
X202738500Y-91913500D02*
G01*
X201261500Y-91913500D01*
X201261500Y-91386500D01*
X202738500Y-91386500D01*
X202738500Y-91913500D01*
G37*
X202738500Y-92563500D02*
X201261500Y-92563500D01*
X201261500Y-92036500D01*
X202738500Y-92036500D01*
X202738500Y-92563500D01*
G36*
X202738500Y-92563500D02*
G01*
X201261500Y-92563500D01*
X201261500Y-92036500D01*
X202738500Y-92036500D01*
X202738500Y-92563500D01*
G37*
X205688500Y-90813500D02*
X203661500Y-90813500D01*
X203661500Y-89186500D01*
X205688500Y-89186500D01*
X205688500Y-90813500D01*
G36*
X205688500Y-90813500D02*
G01*
X203661500Y-90813500D01*
X203661500Y-89186500D01*
X205688500Y-89186500D01*
X205688500Y-90813500D01*
G37*
X205688500Y-92813500D02*
X203661500Y-92813500D01*
X203661500Y-91186500D01*
X205688500Y-91186500D01*
X205688500Y-92813500D01*
G36*
X205688500Y-92813500D02*
G01*
X203661500Y-92813500D01*
X203661500Y-91186500D01*
X205688500Y-91186500D01*
X205688500Y-92813500D01*
G37*
X205184000Y-86840000D02*
X205213000Y-86843000D01*
X205242000Y-86849000D01*
X205271000Y-86856000D01*
X205299000Y-86864000D01*
X205327000Y-86874000D01*
X205354000Y-86885000D01*
X205381000Y-86898000D01*
X205407000Y-86912000D01*
X205432000Y-86927000D01*
X205456000Y-86944000D01*
X205480000Y-86962000D01*
X205502000Y-86981000D01*
X205523000Y-87002000D01*
X205544000Y-87023000D01*
X205563000Y-87045000D01*
X205581000Y-87069000D01*
X205598000Y-87093000D01*
X205613000Y-87118000D01*
X205627000Y-87144000D01*
X205640000Y-87171000D01*
X205651000Y-87198000D01*
X205661000Y-87226000D01*
X205669000Y-87254000D01*
X205676000Y-87283000D01*
X205682000Y-87312000D01*
X205685000Y-87341000D01*
X205688000Y-87371000D01*
X205689000Y-87400000D01*
X205688500Y-88763500D01*
X205689000Y-88764000D01*
X203662000Y-88764000D01*
X203662000Y-87400000D01*
X203662000Y-87371000D01*
X203665000Y-87341000D01*
X203668000Y-87312000D01*
X203674000Y-87283000D01*
X203681000Y-87254000D01*
X203689000Y-87226000D01*
X203699000Y-87198000D01*
X203710000Y-87171000D01*
X203723000Y-87144000D01*
X203737000Y-87118000D01*
X203752000Y-87093000D01*
X203769000Y-87069000D01*
X203787000Y-87045000D01*
X203806000Y-87023000D01*
X203827000Y-87002000D01*
X203848000Y-86981000D01*
X203870000Y-86962000D01*
X203894000Y-86944000D01*
X203918000Y-86927000D01*
X203943000Y-86912000D01*
X203969000Y-86898000D01*
X203996000Y-86885000D01*
X204023000Y-86874000D01*
X204051000Y-86864000D01*
X204079000Y-86856000D01*
X204108000Y-86849000D01*
X204137000Y-86843000D01*
X204166000Y-86840000D01*
X204196000Y-86837000D01*
X204225000Y-86837000D01*
X205125000Y-86837000D01*
X205154000Y-86837000D01*
X205184000Y-86840000D01*
G36*
X205184000Y-86840000D02*
G01*
X205213000Y-86843000D01*
X205242000Y-86849000D01*
X205271000Y-86856000D01*
X205299000Y-86864000D01*
X205327000Y-86874000D01*
X205354000Y-86885000D01*
X205381000Y-86898000D01*
X205407000Y-86912000D01*
X205432000Y-86927000D01*
X205456000Y-86944000D01*
X205480000Y-86962000D01*
X205502000Y-86981000D01*
X205523000Y-87002000D01*
X205544000Y-87023000D01*
X205563000Y-87045000D01*
X205581000Y-87069000D01*
X205598000Y-87093000D01*
X205613000Y-87118000D01*
X205627000Y-87144000D01*
X205640000Y-87171000D01*
X205651000Y-87198000D01*
X205661000Y-87226000D01*
X205669000Y-87254000D01*
X205676000Y-87283000D01*
X205682000Y-87312000D01*
X205685000Y-87341000D01*
X205688000Y-87371000D01*
X205689000Y-87400000D01*
X205688500Y-88763500D01*
X205689000Y-88764000D01*
X203662000Y-88764000D01*
X203662000Y-87400000D01*
X203662000Y-87371000D01*
X203665000Y-87341000D01*
X203668000Y-87312000D01*
X203674000Y-87283000D01*
X203681000Y-87254000D01*
X203689000Y-87226000D01*
X203699000Y-87198000D01*
X203710000Y-87171000D01*
X203723000Y-87144000D01*
X203737000Y-87118000D01*
X203752000Y-87093000D01*
X203769000Y-87069000D01*
X203787000Y-87045000D01*
X203806000Y-87023000D01*
X203827000Y-87002000D01*
X203848000Y-86981000D01*
X203870000Y-86962000D01*
X203894000Y-86944000D01*
X203918000Y-86927000D01*
X203943000Y-86912000D01*
X203969000Y-86898000D01*
X203996000Y-86885000D01*
X204023000Y-86874000D01*
X204051000Y-86864000D01*
X204079000Y-86856000D01*
X204108000Y-86849000D01*
X204137000Y-86843000D01*
X204166000Y-86840000D01*
X204196000Y-86837000D01*
X204225000Y-86837000D01*
X205125000Y-86837000D01*
X205154000Y-86837000D01*
X205184000Y-86840000D01*
G37*
X205688500Y-93236500D02*
X205689000Y-94600000D01*
X205688000Y-94629000D01*
X205685000Y-94659000D01*
X205682000Y-94688000D01*
X205676000Y-94717000D01*
X205669000Y-94746000D01*
X205661000Y-94774000D01*
X205651000Y-94802000D01*
X205640000Y-94829000D01*
X205627000Y-94856000D01*
X205613000Y-94882000D01*
X205598000Y-94907000D01*
X205581000Y-94931000D01*
X205563000Y-94955000D01*
X205544000Y-94977000D01*
X205523000Y-94998000D01*
X205502000Y-95019000D01*
X205480000Y-95038000D01*
X205456000Y-95056000D01*
X205432000Y-95073000D01*
X205407000Y-95088000D01*
X205381000Y-95102000D01*
X205354000Y-95115000D01*
X205327000Y-95126000D01*
X205299000Y-95136000D01*
X205271000Y-95144000D01*
X205242000Y-95151000D01*
X205213000Y-95157000D01*
X205184000Y-95160000D01*
X205154000Y-95163000D01*
X205125000Y-95163000D01*
X204225000Y-95163000D01*
X204196000Y-95163000D01*
X204166000Y-95160000D01*
X204137000Y-95157000D01*
X204108000Y-95151000D01*
X204079000Y-95144000D01*
X204051000Y-95136000D01*
X204023000Y-95126000D01*
X203996000Y-95115000D01*
X203969000Y-95102000D01*
X203943000Y-95088000D01*
X203918000Y-95073000D01*
X203894000Y-95056000D01*
X203870000Y-95038000D01*
X203848000Y-95019000D01*
X203827000Y-94998000D01*
X203806000Y-94977000D01*
X203787000Y-94955000D01*
X203769000Y-94931000D01*
X203752000Y-94907000D01*
X203737000Y-94882000D01*
X203723000Y-94856000D01*
X203710000Y-94829000D01*
X203699000Y-94802000D01*
X203689000Y-94774000D01*
X203681000Y-94746000D01*
X203674000Y-94717000D01*
X203668000Y-94688000D01*
X203665000Y-94659000D01*
X203662000Y-94629000D01*
X203662000Y-94600000D01*
X203662000Y-93236000D01*
X205689000Y-93236000D01*
X205688500Y-93236500D01*
G36*
X205688500Y-93236500D02*
G01*
X205689000Y-94600000D01*
X205688000Y-94629000D01*
X205685000Y-94659000D01*
X205682000Y-94688000D01*
X205676000Y-94717000D01*
X205669000Y-94746000D01*
X205661000Y-94774000D01*
X205651000Y-94802000D01*
X205640000Y-94829000D01*
X205627000Y-94856000D01*
X205613000Y-94882000D01*
X205598000Y-94907000D01*
X205581000Y-94931000D01*
X205563000Y-94955000D01*
X205544000Y-94977000D01*
X205523000Y-94998000D01*
X205502000Y-95019000D01*
X205480000Y-95038000D01*
X205456000Y-95056000D01*
X205432000Y-95073000D01*
X205407000Y-95088000D01*
X205381000Y-95102000D01*
X205354000Y-95115000D01*
X205327000Y-95126000D01*
X205299000Y-95136000D01*
X205271000Y-95144000D01*
X205242000Y-95151000D01*
X205213000Y-95157000D01*
X205184000Y-95160000D01*
X205154000Y-95163000D01*
X205125000Y-95163000D01*
X204225000Y-95163000D01*
X204196000Y-95163000D01*
X204166000Y-95160000D01*
X204137000Y-95157000D01*
X204108000Y-95151000D01*
X204079000Y-95144000D01*
X204051000Y-95136000D01*
X204023000Y-95126000D01*
X203996000Y-95115000D01*
X203969000Y-95102000D01*
X203943000Y-95088000D01*
X203918000Y-95073000D01*
X203894000Y-95056000D01*
X203870000Y-95038000D01*
X203848000Y-95019000D01*
X203827000Y-94998000D01*
X203806000Y-94977000D01*
X203787000Y-94955000D01*
X203769000Y-94931000D01*
X203752000Y-94907000D01*
X203737000Y-94882000D01*
X203723000Y-94856000D01*
X203710000Y-94829000D01*
X203699000Y-94802000D01*
X203689000Y-94774000D01*
X203681000Y-94746000D01*
X203674000Y-94717000D01*
X203668000Y-94688000D01*
X203665000Y-94659000D01*
X203662000Y-94629000D01*
X203662000Y-94600000D01*
X203662000Y-93236000D01*
X205689000Y-93236000D01*
X205688500Y-93236500D01*
G37*
X158350000Y-44000000D02*
X156450000Y-44000000D01*
X156450000Y-42400000D01*
X158350000Y-42400000D01*
X158350000Y-44000000D01*
G36*
X158350000Y-44000000D02*
G01*
X156450000Y-44000000D01*
X156450000Y-42400000D01*
X158350000Y-42400000D01*
X158350000Y-44000000D01*
G37*
X158350000Y-45900000D02*
X156450000Y-45900000D01*
X156450000Y-44300000D01*
X158350000Y-44300000D01*
X158350000Y-45900000D01*
G36*
X158350000Y-45900000D02*
G01*
X156450000Y-45900000D01*
X156450000Y-44300000D01*
X158350000Y-44300000D01*
X158350000Y-45900000D01*
G37*
X158350000Y-47800000D02*
X156450000Y-47800000D01*
X156450000Y-46200000D01*
X158350000Y-46200000D01*
X158350000Y-47800000D01*
G36*
X158350000Y-47800000D02*
G01*
X156450000Y-47800000D01*
X156450000Y-46200000D01*
X158350000Y-46200000D01*
X158350000Y-47800000D01*
G37*
X158350000Y-49700000D02*
X156450000Y-49700000D01*
X156450000Y-48100000D01*
X158350000Y-48100000D01*
X158350000Y-49700000D01*
G36*
X158350000Y-49700000D02*
G01*
X156450000Y-49700000D01*
X156450000Y-48100000D01*
X158350000Y-48100000D01*
X158350000Y-49700000D01*
G37*
X158350000Y-51600000D02*
X156450000Y-51600000D01*
X156450000Y-50000000D01*
X158350000Y-50000000D01*
X158350000Y-51600000D01*
G36*
X158350000Y-51600000D02*
G01*
X156450000Y-51600000D01*
X156450000Y-50000000D01*
X158350000Y-50000000D01*
X158350000Y-51600000D01*
G37*
X161000000Y-41350000D02*
X159400000Y-41350000D01*
X159400000Y-39450000D01*
X161000000Y-39450000D01*
X161000000Y-41350000D01*
G36*
X161000000Y-41350000D02*
G01*
X159400000Y-41350000D01*
X159400000Y-39450000D01*
X161000000Y-39450000D01*
X161000000Y-41350000D01*
G37*
X161000000Y-54550000D02*
X159400000Y-54550000D01*
X159400000Y-52650000D01*
X161000000Y-52650000D01*
X161000000Y-54550000D01*
G36*
X161000000Y-54550000D02*
G01*
X159400000Y-54550000D01*
X159400000Y-52650000D01*
X161000000Y-52650000D01*
X161000000Y-54550000D01*
G37*
X162900000Y-41350000D02*
X161300000Y-41350000D01*
X161300000Y-39450000D01*
X162900000Y-39450000D01*
X162900000Y-41350000D01*
G36*
X162900000Y-41350000D02*
G01*
X161300000Y-41350000D01*
X161300000Y-39450000D01*
X162900000Y-39450000D01*
X162900000Y-41350000D01*
G37*
X162900000Y-54550000D02*
X161300000Y-54550000D01*
X161300000Y-52650000D01*
X162900000Y-52650000D01*
X162900000Y-54550000D01*
G36*
X162900000Y-54550000D02*
G01*
X161300000Y-54550000D01*
X161300000Y-52650000D01*
X162900000Y-52650000D01*
X162900000Y-54550000D01*
G37*
X164800000Y-41350000D02*
X163200000Y-41350000D01*
X163200000Y-39450000D01*
X164800000Y-39450000D01*
X164800000Y-41350000D01*
G36*
X164800000Y-41350000D02*
G01*
X163200000Y-41350000D01*
X163200000Y-39450000D01*
X164800000Y-39450000D01*
X164800000Y-41350000D01*
G37*
X164800000Y-54550000D02*
X163200000Y-54550000D01*
X163200000Y-52650000D01*
X164800000Y-52650000D01*
X164800000Y-54550000D01*
G36*
X164800000Y-54550000D02*
G01*
X163200000Y-54550000D01*
X163200000Y-52650000D01*
X164800000Y-52650000D01*
X164800000Y-54550000D01*
G37*
X166700000Y-41350000D02*
X165100000Y-41350000D01*
X165100000Y-39450000D01*
X166700000Y-39450000D01*
X166700000Y-41350000D01*
G36*
X166700000Y-41350000D02*
G01*
X165100000Y-41350000D01*
X165100000Y-39450000D01*
X166700000Y-39450000D01*
X166700000Y-41350000D01*
G37*
X166700000Y-54550000D02*
X165100000Y-54550000D01*
X165100000Y-52650000D01*
X166700000Y-52650000D01*
X166700000Y-54550000D01*
G36*
X166700000Y-54550000D02*
G01*
X165100000Y-54550000D01*
X165100000Y-52650000D01*
X166700000Y-52650000D01*
X166700000Y-54550000D01*
G37*
X168600000Y-41350000D02*
X167000000Y-41350000D01*
X167000000Y-39450000D01*
X168600000Y-39450000D01*
X168600000Y-41350000D01*
G36*
X168600000Y-41350000D02*
G01*
X167000000Y-41350000D01*
X167000000Y-39450000D01*
X168600000Y-39450000D01*
X168600000Y-41350000D01*
G37*
X168600000Y-54550000D02*
X167000000Y-54550000D01*
X167000000Y-52650000D01*
X168600000Y-52650000D01*
X168600000Y-54550000D01*
G36*
X168600000Y-54550000D02*
G01*
X167000000Y-54550000D01*
X167000000Y-52650000D01*
X168600000Y-52650000D01*
X168600000Y-54550000D01*
G37*
X171550000Y-44000000D02*
X169650000Y-44000000D01*
X169650000Y-42400000D01*
X171550000Y-42400000D01*
X171550000Y-44000000D01*
G36*
X171550000Y-44000000D02*
G01*
X169650000Y-44000000D01*
X169650000Y-42400000D01*
X171550000Y-42400000D01*
X171550000Y-44000000D01*
G37*
X171550000Y-45900000D02*
X169650000Y-45900000D01*
X169650000Y-44300000D01*
X171550000Y-44300000D01*
X171550000Y-45900000D01*
G36*
X171550000Y-45900000D02*
G01*
X169650000Y-45900000D01*
X169650000Y-44300000D01*
X171550000Y-44300000D01*
X171550000Y-45900000D01*
G37*
X171550000Y-47800000D02*
X169650000Y-47800000D01*
X169650000Y-46200000D01*
X171550000Y-46200000D01*
X171550000Y-47800000D01*
G36*
X171550000Y-47800000D02*
G01*
X169650000Y-47800000D01*
X169650000Y-46200000D01*
X171550000Y-46200000D01*
X171550000Y-47800000D01*
G37*
X171550000Y-49700000D02*
X169650000Y-49700000D01*
X169650000Y-48100000D01*
X171550000Y-48100000D01*
X171550000Y-49700000D01*
G36*
X171550000Y-49700000D02*
G01*
X169650000Y-49700000D01*
X169650000Y-48100000D01*
X171550000Y-48100000D01*
X171550000Y-49700000D01*
G37*
X171550000Y-51600000D02*
X169650000Y-51600000D01*
X169650000Y-50000000D01*
X171550000Y-50000000D01*
X171550000Y-51600000D01*
G36*
X171550000Y-51600000D02*
G01*
X169650000Y-51600000D01*
X169650000Y-50000000D01*
X171550000Y-50000000D01*
X171550000Y-51600000D01*
G37*
X181028000Y-78131000D02*
X181030000Y-78131000D01*
X181033000Y-78132000D01*
X181035000Y-78132000D01*
X181038000Y-78133000D01*
X181040000Y-78134000D01*
X181043000Y-78135000D01*
X181045000Y-78137000D01*
X181047000Y-78138000D01*
X181049000Y-78140000D01*
X181051000Y-78141000D01*
X181053000Y-78143000D01*
X181055000Y-78145000D01*
X181057000Y-78147000D01*
X181059000Y-78149000D01*
X181060000Y-78151000D01*
X181062000Y-78153000D01*
X181063000Y-78155000D01*
X181065000Y-78157000D01*
X181066000Y-78160000D01*
X181067000Y-78162000D01*
X181068000Y-78165000D01*
X181068000Y-78167000D01*
X181069000Y-78170000D01*
X181069000Y-78172000D01*
X181070000Y-78175000D01*
X181070000Y-78177000D01*
X181070000Y-78180000D01*
X181070000Y-78520000D01*
X181070000Y-78523000D01*
X181070000Y-78525000D01*
X181069000Y-78528000D01*
X181069000Y-78530000D01*
X181068000Y-78533000D01*
X181068000Y-78535000D01*
X181067000Y-78538000D01*
X181066000Y-78540000D01*
X181065000Y-78543000D01*
X181063000Y-78545000D01*
X181062000Y-78547000D01*
X181060000Y-78549000D01*
X181059000Y-78551000D01*
X181057000Y-78553000D01*
X181055000Y-78555000D01*
X181053000Y-78557000D01*
X181051000Y-78559000D01*
X181049000Y-78560000D01*
X181047000Y-78562000D01*
X181045000Y-78563000D01*
X181043000Y-78565000D01*
X181040000Y-78566000D01*
X181038000Y-78567000D01*
X181035000Y-78568000D01*
X181033000Y-78568000D01*
X181030000Y-78569000D01*
X181028000Y-78569000D01*
X181025000Y-78570000D01*
X181023000Y-78570000D01*
X181020000Y-78570000D01*
X180380000Y-78570000D01*
X180377000Y-78570000D01*
X180375000Y-78570000D01*
X180372000Y-78569000D01*
X180370000Y-78569000D01*
X180367000Y-78568000D01*
X180365000Y-78568000D01*
X180362000Y-78567000D01*
X180360000Y-78566000D01*
X180357000Y-78565000D01*
X180355000Y-78563000D01*
X180353000Y-78562000D01*
X180351000Y-78560000D01*
X180349000Y-78559000D01*
X180347000Y-78557000D01*
X180345000Y-78555000D01*
X180343000Y-78553000D01*
X180341000Y-78551000D01*
X180340000Y-78549000D01*
X180338000Y-78547000D01*
X180337000Y-78545000D01*
X180335000Y-78543000D01*
X180334000Y-78540000D01*
X180333000Y-78538000D01*
X180332000Y-78535000D01*
X180332000Y-78533000D01*
X180331000Y-78530000D01*
X180331000Y-78528000D01*
X180330000Y-78525000D01*
X180330000Y-78523000D01*
X180330000Y-78520000D01*
X180330000Y-78180000D01*
X180330000Y-78177000D01*
X180330000Y-78175000D01*
X180331000Y-78172000D01*
X180331000Y-78170000D01*
X180332000Y-78167000D01*
X180332000Y-78165000D01*
X180333000Y-78162000D01*
X180334000Y-78160000D01*
X180335000Y-78157000D01*
X180337000Y-78155000D01*
X180338000Y-78153000D01*
X180340000Y-78151000D01*
X180341000Y-78149000D01*
X180343000Y-78147000D01*
X180345000Y-78145000D01*
X180347000Y-78143000D01*
X180349000Y-78141000D01*
X180351000Y-78140000D01*
X180353000Y-78138000D01*
X180355000Y-78137000D01*
X180357000Y-78135000D01*
X180360000Y-78134000D01*
X180362000Y-78133000D01*
X180365000Y-78132000D01*
X180367000Y-78132000D01*
X180370000Y-78131000D01*
X180372000Y-78131000D01*
X180375000Y-78130000D01*
X180377000Y-78130000D01*
X180380000Y-78130000D01*
X181020000Y-78130000D01*
X181023000Y-78130000D01*
X181025000Y-78130000D01*
X181028000Y-78131000D01*
G36*
X181028000Y-78131000D02*
G01*
X181030000Y-78131000D01*
X181033000Y-78132000D01*
X181035000Y-78132000D01*
X181038000Y-78133000D01*
X181040000Y-78134000D01*
X181043000Y-78135000D01*
X181045000Y-78137000D01*
X181047000Y-78138000D01*
X181049000Y-78140000D01*
X181051000Y-78141000D01*
X181053000Y-78143000D01*
X181055000Y-78145000D01*
X181057000Y-78147000D01*
X181059000Y-78149000D01*
X181060000Y-78151000D01*
X181062000Y-78153000D01*
X181063000Y-78155000D01*
X181065000Y-78157000D01*
X181066000Y-78160000D01*
X181067000Y-78162000D01*
X181068000Y-78165000D01*
X181068000Y-78167000D01*
X181069000Y-78170000D01*
X181069000Y-78172000D01*
X181070000Y-78175000D01*
X181070000Y-78177000D01*
X181070000Y-78180000D01*
X181070000Y-78520000D01*
X181070000Y-78523000D01*
X181070000Y-78525000D01*
X181069000Y-78528000D01*
X181069000Y-78530000D01*
X181068000Y-78533000D01*
X181068000Y-78535000D01*
X181067000Y-78538000D01*
X181066000Y-78540000D01*
X181065000Y-78543000D01*
X181063000Y-78545000D01*
X181062000Y-78547000D01*
X181060000Y-78549000D01*
X181059000Y-78551000D01*
X181057000Y-78553000D01*
X181055000Y-78555000D01*
X181053000Y-78557000D01*
X181051000Y-78559000D01*
X181049000Y-78560000D01*
X181047000Y-78562000D01*
X181045000Y-78563000D01*
X181043000Y-78565000D01*
X181040000Y-78566000D01*
X181038000Y-78567000D01*
X181035000Y-78568000D01*
X181033000Y-78568000D01*
X181030000Y-78569000D01*
X181028000Y-78569000D01*
X181025000Y-78570000D01*
X181023000Y-78570000D01*
X181020000Y-78570000D01*
X180380000Y-78570000D01*
X180377000Y-78570000D01*
X180375000Y-78570000D01*
X180372000Y-78569000D01*
X180370000Y-78569000D01*
X180367000Y-78568000D01*
X180365000Y-78568000D01*
X180362000Y-78567000D01*
X180360000Y-78566000D01*
X180357000Y-78565000D01*
X180355000Y-78563000D01*
X180353000Y-78562000D01*
X180351000Y-78560000D01*
X180349000Y-78559000D01*
X180347000Y-78557000D01*
X180345000Y-78555000D01*
X180343000Y-78553000D01*
X180341000Y-78551000D01*
X180340000Y-78549000D01*
X180338000Y-78547000D01*
X180337000Y-78545000D01*
X180335000Y-78543000D01*
X180334000Y-78540000D01*
X180333000Y-78538000D01*
X180332000Y-78535000D01*
X180332000Y-78533000D01*
X180331000Y-78530000D01*
X180331000Y-78528000D01*
X180330000Y-78525000D01*
X180330000Y-78523000D01*
X180330000Y-78520000D01*
X180330000Y-78180000D01*
X180330000Y-78177000D01*
X180330000Y-78175000D01*
X180331000Y-78172000D01*
X180331000Y-78170000D01*
X180332000Y-78167000D01*
X180332000Y-78165000D01*
X180333000Y-78162000D01*
X180334000Y-78160000D01*
X180335000Y-78157000D01*
X180337000Y-78155000D01*
X180338000Y-78153000D01*
X180340000Y-78151000D01*
X180341000Y-78149000D01*
X180343000Y-78147000D01*
X180345000Y-78145000D01*
X180347000Y-78143000D01*
X180349000Y-78141000D01*
X180351000Y-78140000D01*
X180353000Y-78138000D01*
X180355000Y-78137000D01*
X180357000Y-78135000D01*
X180360000Y-78134000D01*
X180362000Y-78133000D01*
X180365000Y-78132000D01*
X180367000Y-78132000D01*
X180370000Y-78131000D01*
X180372000Y-78131000D01*
X180375000Y-78130000D01*
X180377000Y-78130000D01*
X180380000Y-78130000D01*
X181020000Y-78130000D01*
X181023000Y-78130000D01*
X181025000Y-78130000D01*
X181028000Y-78131000D01*
G37*
X181028000Y-78781000D02*
X181030000Y-78781000D01*
X181033000Y-78782000D01*
X181035000Y-78782000D01*
X181038000Y-78783000D01*
X181040000Y-78784000D01*
X181043000Y-78785000D01*
X181045000Y-78787000D01*
X181047000Y-78788000D01*
X181049000Y-78790000D01*
X181051000Y-78791000D01*
X181053000Y-78793000D01*
X181055000Y-78795000D01*
X181057000Y-78797000D01*
X181059000Y-78799000D01*
X181060000Y-78801000D01*
X181062000Y-78803000D01*
X181063000Y-78805000D01*
X181065000Y-78807000D01*
X181066000Y-78810000D01*
X181067000Y-78812000D01*
X181068000Y-78815000D01*
X181068000Y-78817000D01*
X181069000Y-78820000D01*
X181069000Y-78822000D01*
X181070000Y-78825000D01*
X181070000Y-78827000D01*
X181070000Y-78830000D01*
X181070000Y-79170000D01*
X181070000Y-79173000D01*
X181070000Y-79175000D01*
X181069000Y-79178000D01*
X181069000Y-79180000D01*
X181068000Y-79183000D01*
X181068000Y-79185000D01*
X181067000Y-79188000D01*
X181066000Y-79190000D01*
X181065000Y-79193000D01*
X181063000Y-79195000D01*
X181062000Y-79197000D01*
X181060000Y-79199000D01*
X181059000Y-79201000D01*
X181057000Y-79203000D01*
X181055000Y-79205000D01*
X181053000Y-79207000D01*
X181051000Y-79209000D01*
X181049000Y-79210000D01*
X181047000Y-79212000D01*
X181045000Y-79213000D01*
X181043000Y-79215000D01*
X181040000Y-79216000D01*
X181038000Y-79217000D01*
X181035000Y-79218000D01*
X181033000Y-79218000D01*
X181030000Y-79219000D01*
X181028000Y-79219000D01*
X181025000Y-79220000D01*
X181023000Y-79220000D01*
X181020000Y-79220000D01*
X180380000Y-79220000D01*
X180377000Y-79220000D01*
X180375000Y-79220000D01*
X180372000Y-79219000D01*
X180370000Y-79219000D01*
X180367000Y-79218000D01*
X180365000Y-79218000D01*
X180362000Y-79217000D01*
X180360000Y-79216000D01*
X180357000Y-79215000D01*
X180355000Y-79213000D01*
X180353000Y-79212000D01*
X180351000Y-79210000D01*
X180349000Y-79209000D01*
X180347000Y-79207000D01*
X180345000Y-79205000D01*
X180343000Y-79203000D01*
X180341000Y-79201000D01*
X180340000Y-79199000D01*
X180338000Y-79197000D01*
X180337000Y-79195000D01*
X180335000Y-79193000D01*
X180334000Y-79190000D01*
X180333000Y-79188000D01*
X180332000Y-79185000D01*
X180332000Y-79183000D01*
X180331000Y-79180000D01*
X180331000Y-79178000D01*
X180330000Y-79175000D01*
X180330000Y-79173000D01*
X180330000Y-79170000D01*
X180330000Y-78830000D01*
X180330000Y-78827000D01*
X180330000Y-78825000D01*
X180331000Y-78822000D01*
X180331000Y-78820000D01*
X180332000Y-78817000D01*
X180332000Y-78815000D01*
X180333000Y-78812000D01*
X180334000Y-78810000D01*
X180335000Y-78807000D01*
X180337000Y-78805000D01*
X180338000Y-78803000D01*
X180340000Y-78801000D01*
X180341000Y-78799000D01*
X180343000Y-78797000D01*
X180345000Y-78795000D01*
X180347000Y-78793000D01*
X180349000Y-78791000D01*
X180351000Y-78790000D01*
X180353000Y-78788000D01*
X180355000Y-78787000D01*
X180357000Y-78785000D01*
X180360000Y-78784000D01*
X180362000Y-78783000D01*
X180365000Y-78782000D01*
X180367000Y-78782000D01*
X180370000Y-78781000D01*
X180372000Y-78781000D01*
X180375000Y-78780000D01*
X180377000Y-78780000D01*
X180380000Y-78780000D01*
X181020000Y-78780000D01*
X181023000Y-78780000D01*
X181025000Y-78780000D01*
X181028000Y-78781000D01*
G36*
X181028000Y-78781000D02*
G01*
X181030000Y-78781000D01*
X181033000Y-78782000D01*
X181035000Y-78782000D01*
X181038000Y-78783000D01*
X181040000Y-78784000D01*
X181043000Y-78785000D01*
X181045000Y-78787000D01*
X181047000Y-78788000D01*
X181049000Y-78790000D01*
X181051000Y-78791000D01*
X181053000Y-78793000D01*
X181055000Y-78795000D01*
X181057000Y-78797000D01*
X181059000Y-78799000D01*
X181060000Y-78801000D01*
X181062000Y-78803000D01*
X181063000Y-78805000D01*
X181065000Y-78807000D01*
X181066000Y-78810000D01*
X181067000Y-78812000D01*
X181068000Y-78815000D01*
X181068000Y-78817000D01*
X181069000Y-78820000D01*
X181069000Y-78822000D01*
X181070000Y-78825000D01*
X181070000Y-78827000D01*
X181070000Y-78830000D01*
X181070000Y-79170000D01*
X181070000Y-79173000D01*
X181070000Y-79175000D01*
X181069000Y-79178000D01*
X181069000Y-79180000D01*
X181068000Y-79183000D01*
X181068000Y-79185000D01*
X181067000Y-79188000D01*
X181066000Y-79190000D01*
X181065000Y-79193000D01*
X181063000Y-79195000D01*
X181062000Y-79197000D01*
X181060000Y-79199000D01*
X181059000Y-79201000D01*
X181057000Y-79203000D01*
X181055000Y-79205000D01*
X181053000Y-79207000D01*
X181051000Y-79209000D01*
X181049000Y-79210000D01*
X181047000Y-79212000D01*
X181045000Y-79213000D01*
X181043000Y-79215000D01*
X181040000Y-79216000D01*
X181038000Y-79217000D01*
X181035000Y-79218000D01*
X181033000Y-79218000D01*
X181030000Y-79219000D01*
X181028000Y-79219000D01*
X181025000Y-79220000D01*
X181023000Y-79220000D01*
X181020000Y-79220000D01*
X180380000Y-79220000D01*
X180377000Y-79220000D01*
X180375000Y-79220000D01*
X180372000Y-79219000D01*
X180370000Y-79219000D01*
X180367000Y-79218000D01*
X180365000Y-79218000D01*
X180362000Y-79217000D01*
X180360000Y-79216000D01*
X180357000Y-79215000D01*
X180355000Y-79213000D01*
X180353000Y-79212000D01*
X180351000Y-79210000D01*
X180349000Y-79209000D01*
X180347000Y-79207000D01*
X180345000Y-79205000D01*
X180343000Y-79203000D01*
X180341000Y-79201000D01*
X180340000Y-79199000D01*
X180338000Y-79197000D01*
X180337000Y-79195000D01*
X180335000Y-79193000D01*
X180334000Y-79190000D01*
X180333000Y-79188000D01*
X180332000Y-79185000D01*
X180332000Y-79183000D01*
X180331000Y-79180000D01*
X180331000Y-79178000D01*
X180330000Y-79175000D01*
X180330000Y-79173000D01*
X180330000Y-79170000D01*
X180330000Y-78830000D01*
X180330000Y-78827000D01*
X180330000Y-78825000D01*
X180331000Y-78822000D01*
X180331000Y-78820000D01*
X180332000Y-78817000D01*
X180332000Y-78815000D01*
X180333000Y-78812000D01*
X180334000Y-78810000D01*
X180335000Y-78807000D01*
X180337000Y-78805000D01*
X180338000Y-78803000D01*
X180340000Y-78801000D01*
X180341000Y-78799000D01*
X180343000Y-78797000D01*
X180345000Y-78795000D01*
X180347000Y-78793000D01*
X180349000Y-78791000D01*
X180351000Y-78790000D01*
X180353000Y-78788000D01*
X180355000Y-78787000D01*
X180357000Y-78785000D01*
X180360000Y-78784000D01*
X180362000Y-78783000D01*
X180365000Y-78782000D01*
X180367000Y-78782000D01*
X180370000Y-78781000D01*
X180372000Y-78781000D01*
X180375000Y-78780000D01*
X180377000Y-78780000D01*
X180380000Y-78780000D01*
X181020000Y-78780000D01*
X181023000Y-78780000D01*
X181025000Y-78780000D01*
X181028000Y-78781000D01*
G37*
X181028000Y-79431000D02*
X181030000Y-79431000D01*
X181033000Y-79432000D01*
X181035000Y-79432000D01*
X181038000Y-79433000D01*
X181040000Y-79434000D01*
X181043000Y-79435000D01*
X181045000Y-79437000D01*
X181047000Y-79438000D01*
X181049000Y-79440000D01*
X181051000Y-79441000D01*
X181053000Y-79443000D01*
X181055000Y-79445000D01*
X181057000Y-79447000D01*
X181059000Y-79449000D01*
X181060000Y-79451000D01*
X181062000Y-79453000D01*
X181063000Y-79455000D01*
X181065000Y-79457000D01*
X181066000Y-79460000D01*
X181067000Y-79462000D01*
X181068000Y-79465000D01*
X181068000Y-79467000D01*
X181069000Y-79470000D01*
X181069000Y-79472000D01*
X181070000Y-79475000D01*
X181070000Y-79477000D01*
X181070000Y-79480000D01*
X181070000Y-79820000D01*
X181070000Y-79823000D01*
X181070000Y-79825000D01*
X181069000Y-79828000D01*
X181069000Y-79830000D01*
X181068000Y-79833000D01*
X181068000Y-79835000D01*
X181067000Y-79838000D01*
X181066000Y-79840000D01*
X181065000Y-79843000D01*
X181063000Y-79845000D01*
X181062000Y-79847000D01*
X181060000Y-79849000D01*
X181059000Y-79851000D01*
X181057000Y-79853000D01*
X181055000Y-79855000D01*
X181053000Y-79857000D01*
X181051000Y-79859000D01*
X181049000Y-79860000D01*
X181047000Y-79862000D01*
X181045000Y-79863000D01*
X181043000Y-79865000D01*
X181040000Y-79866000D01*
X181038000Y-79867000D01*
X181035000Y-79868000D01*
X181033000Y-79868000D01*
X181030000Y-79869000D01*
X181028000Y-79869000D01*
X181025000Y-79870000D01*
X181023000Y-79870000D01*
X181020000Y-79870000D01*
X180380000Y-79870000D01*
X180377000Y-79870000D01*
X180375000Y-79870000D01*
X180372000Y-79869000D01*
X180370000Y-79869000D01*
X180367000Y-79868000D01*
X180365000Y-79868000D01*
X180362000Y-79867000D01*
X180360000Y-79866000D01*
X180357000Y-79865000D01*
X180355000Y-79863000D01*
X180353000Y-79862000D01*
X180351000Y-79860000D01*
X180349000Y-79859000D01*
X180347000Y-79857000D01*
X180345000Y-79855000D01*
X180343000Y-79853000D01*
X180341000Y-79851000D01*
X180340000Y-79849000D01*
X180338000Y-79847000D01*
X180337000Y-79845000D01*
X180335000Y-79843000D01*
X180334000Y-79840000D01*
X180333000Y-79838000D01*
X180332000Y-79835000D01*
X180332000Y-79833000D01*
X180331000Y-79830000D01*
X180331000Y-79828000D01*
X180330000Y-79825000D01*
X180330000Y-79823000D01*
X180330000Y-79820000D01*
X180330000Y-79480000D01*
X180330000Y-79477000D01*
X180330000Y-79475000D01*
X180331000Y-79472000D01*
X180331000Y-79470000D01*
X180332000Y-79467000D01*
X180332000Y-79465000D01*
X180333000Y-79462000D01*
X180334000Y-79460000D01*
X180335000Y-79457000D01*
X180337000Y-79455000D01*
X180338000Y-79453000D01*
X180340000Y-79451000D01*
X180341000Y-79449000D01*
X180343000Y-79447000D01*
X180345000Y-79445000D01*
X180347000Y-79443000D01*
X180349000Y-79441000D01*
X180351000Y-79440000D01*
X180353000Y-79438000D01*
X180355000Y-79437000D01*
X180357000Y-79435000D01*
X180360000Y-79434000D01*
X180362000Y-79433000D01*
X180365000Y-79432000D01*
X180367000Y-79432000D01*
X180370000Y-79431000D01*
X180372000Y-79431000D01*
X180375000Y-79430000D01*
X180377000Y-79430000D01*
X180380000Y-79430000D01*
X181020000Y-79430000D01*
X181023000Y-79430000D01*
X181025000Y-79430000D01*
X181028000Y-79431000D01*
G36*
X181028000Y-79431000D02*
G01*
X181030000Y-79431000D01*
X181033000Y-79432000D01*
X181035000Y-79432000D01*
X181038000Y-79433000D01*
X181040000Y-79434000D01*
X181043000Y-79435000D01*
X181045000Y-79437000D01*
X181047000Y-79438000D01*
X181049000Y-79440000D01*
X181051000Y-79441000D01*
X181053000Y-79443000D01*
X181055000Y-79445000D01*
X181057000Y-79447000D01*
X181059000Y-79449000D01*
X181060000Y-79451000D01*
X181062000Y-79453000D01*
X181063000Y-79455000D01*
X181065000Y-79457000D01*
X181066000Y-79460000D01*
X181067000Y-79462000D01*
X181068000Y-79465000D01*
X181068000Y-79467000D01*
X181069000Y-79470000D01*
X181069000Y-79472000D01*
X181070000Y-79475000D01*
X181070000Y-79477000D01*
X181070000Y-79480000D01*
X181070000Y-79820000D01*
X181070000Y-79823000D01*
X181070000Y-79825000D01*
X181069000Y-79828000D01*
X181069000Y-79830000D01*
X181068000Y-79833000D01*
X181068000Y-79835000D01*
X181067000Y-79838000D01*
X181066000Y-79840000D01*
X181065000Y-79843000D01*
X181063000Y-79845000D01*
X181062000Y-79847000D01*
X181060000Y-79849000D01*
X181059000Y-79851000D01*
X181057000Y-79853000D01*
X181055000Y-79855000D01*
X181053000Y-79857000D01*
X181051000Y-79859000D01*
X181049000Y-79860000D01*
X181047000Y-79862000D01*
X181045000Y-79863000D01*
X181043000Y-79865000D01*
X181040000Y-79866000D01*
X181038000Y-79867000D01*
X181035000Y-79868000D01*
X181033000Y-79868000D01*
X181030000Y-79869000D01*
X181028000Y-79869000D01*
X181025000Y-79870000D01*
X181023000Y-79870000D01*
X181020000Y-79870000D01*
X180380000Y-79870000D01*
X180377000Y-79870000D01*
X180375000Y-79870000D01*
X180372000Y-79869000D01*
X180370000Y-79869000D01*
X180367000Y-79868000D01*
X180365000Y-79868000D01*
X180362000Y-79867000D01*
X180360000Y-79866000D01*
X180357000Y-79865000D01*
X180355000Y-79863000D01*
X180353000Y-79862000D01*
X180351000Y-79860000D01*
X180349000Y-79859000D01*
X180347000Y-79857000D01*
X180345000Y-79855000D01*
X180343000Y-79853000D01*
X180341000Y-79851000D01*
X180340000Y-79849000D01*
X180338000Y-79847000D01*
X180337000Y-79845000D01*
X180335000Y-79843000D01*
X180334000Y-79840000D01*
X180333000Y-79838000D01*
X180332000Y-79835000D01*
X180332000Y-79833000D01*
X180331000Y-79830000D01*
X180331000Y-79828000D01*
X180330000Y-79825000D01*
X180330000Y-79823000D01*
X180330000Y-79820000D01*
X180330000Y-79480000D01*
X180330000Y-79477000D01*
X180330000Y-79475000D01*
X180331000Y-79472000D01*
X180331000Y-79470000D01*
X180332000Y-79467000D01*
X180332000Y-79465000D01*
X180333000Y-79462000D01*
X180334000Y-79460000D01*
X180335000Y-79457000D01*
X180337000Y-79455000D01*
X180338000Y-79453000D01*
X180340000Y-79451000D01*
X180341000Y-79449000D01*
X180343000Y-79447000D01*
X180345000Y-79445000D01*
X180347000Y-79443000D01*
X180349000Y-79441000D01*
X180351000Y-79440000D01*
X180353000Y-79438000D01*
X180355000Y-79437000D01*
X180357000Y-79435000D01*
X180360000Y-79434000D01*
X180362000Y-79433000D01*
X180365000Y-79432000D01*
X180367000Y-79432000D01*
X180370000Y-79431000D01*
X180372000Y-79431000D01*
X180375000Y-79430000D01*
X180377000Y-79430000D01*
X180380000Y-79430000D01*
X181020000Y-79430000D01*
X181023000Y-79430000D01*
X181025000Y-79430000D01*
X181028000Y-79431000D01*
G37*
X181028000Y-80081000D02*
X181030000Y-80081000D01*
X181033000Y-80082000D01*
X181035000Y-80082000D01*
X181038000Y-80083000D01*
X181040000Y-80084000D01*
X181043000Y-80085000D01*
X181045000Y-80087000D01*
X181047000Y-80088000D01*
X181049000Y-80090000D01*
X181051000Y-80091000D01*
X181053000Y-80093000D01*
X181055000Y-80095000D01*
X181057000Y-80097000D01*
X181059000Y-80099000D01*
X181060000Y-80101000D01*
X181062000Y-80103000D01*
X181063000Y-80105000D01*
X181065000Y-80107000D01*
X181066000Y-80110000D01*
X181067000Y-80112000D01*
X181068000Y-80115000D01*
X181068000Y-80117000D01*
X181069000Y-80120000D01*
X181069000Y-80122000D01*
X181070000Y-80125000D01*
X181070000Y-80127000D01*
X181070000Y-80130000D01*
X181070000Y-80470000D01*
X181070000Y-80473000D01*
X181070000Y-80475000D01*
X181069000Y-80478000D01*
X181069000Y-80480000D01*
X181068000Y-80483000D01*
X181068000Y-80485000D01*
X181067000Y-80488000D01*
X181066000Y-80490000D01*
X181065000Y-80493000D01*
X181063000Y-80495000D01*
X181062000Y-80497000D01*
X181060000Y-80499000D01*
X181059000Y-80501000D01*
X181057000Y-80503000D01*
X181055000Y-80505000D01*
X181053000Y-80507000D01*
X181051000Y-80509000D01*
X181049000Y-80510000D01*
X181047000Y-80512000D01*
X181045000Y-80513000D01*
X181043000Y-80515000D01*
X181040000Y-80516000D01*
X181038000Y-80517000D01*
X181035000Y-80518000D01*
X181033000Y-80518000D01*
X181030000Y-80519000D01*
X181028000Y-80519000D01*
X181025000Y-80520000D01*
X181023000Y-80520000D01*
X181020000Y-80520000D01*
X180380000Y-80520000D01*
X180377000Y-80520000D01*
X180375000Y-80520000D01*
X180372000Y-80519000D01*
X180370000Y-80519000D01*
X180367000Y-80518000D01*
X180365000Y-80518000D01*
X180362000Y-80517000D01*
X180360000Y-80516000D01*
X180357000Y-80515000D01*
X180355000Y-80513000D01*
X180353000Y-80512000D01*
X180351000Y-80510000D01*
X180349000Y-80509000D01*
X180347000Y-80507000D01*
X180345000Y-80505000D01*
X180343000Y-80503000D01*
X180341000Y-80501000D01*
X180340000Y-80499000D01*
X180338000Y-80497000D01*
X180337000Y-80495000D01*
X180335000Y-80493000D01*
X180334000Y-80490000D01*
X180333000Y-80488000D01*
X180332000Y-80485000D01*
X180332000Y-80483000D01*
X180331000Y-80480000D01*
X180331000Y-80478000D01*
X180330000Y-80475000D01*
X180330000Y-80473000D01*
X180330000Y-80470000D01*
X180330000Y-80130000D01*
X180330000Y-80127000D01*
X180330000Y-80125000D01*
X180331000Y-80122000D01*
X180331000Y-80120000D01*
X180332000Y-80117000D01*
X180332000Y-80115000D01*
X180333000Y-80112000D01*
X180334000Y-80110000D01*
X180335000Y-80107000D01*
X180337000Y-80105000D01*
X180338000Y-80103000D01*
X180340000Y-80101000D01*
X180341000Y-80099000D01*
X180343000Y-80097000D01*
X180345000Y-80095000D01*
X180347000Y-80093000D01*
X180349000Y-80091000D01*
X180351000Y-80090000D01*
X180353000Y-80088000D01*
X180355000Y-80087000D01*
X180357000Y-80085000D01*
X180360000Y-80084000D01*
X180362000Y-80083000D01*
X180365000Y-80082000D01*
X180367000Y-80082000D01*
X180370000Y-80081000D01*
X180372000Y-80081000D01*
X180375000Y-80080000D01*
X180377000Y-80080000D01*
X180380000Y-80080000D01*
X181020000Y-80080000D01*
X181023000Y-80080000D01*
X181025000Y-80080000D01*
X181028000Y-80081000D01*
G36*
X181028000Y-80081000D02*
G01*
X181030000Y-80081000D01*
X181033000Y-80082000D01*
X181035000Y-80082000D01*
X181038000Y-80083000D01*
X181040000Y-80084000D01*
X181043000Y-80085000D01*
X181045000Y-80087000D01*
X181047000Y-80088000D01*
X181049000Y-80090000D01*
X181051000Y-80091000D01*
X181053000Y-80093000D01*
X181055000Y-80095000D01*
X181057000Y-80097000D01*
X181059000Y-80099000D01*
X181060000Y-80101000D01*
X181062000Y-80103000D01*
X181063000Y-80105000D01*
X181065000Y-80107000D01*
X181066000Y-80110000D01*
X181067000Y-80112000D01*
X181068000Y-80115000D01*
X181068000Y-80117000D01*
X181069000Y-80120000D01*
X181069000Y-80122000D01*
X181070000Y-80125000D01*
X181070000Y-80127000D01*
X181070000Y-80130000D01*
X181070000Y-80470000D01*
X181070000Y-80473000D01*
X181070000Y-80475000D01*
X181069000Y-80478000D01*
X181069000Y-80480000D01*
X181068000Y-80483000D01*
X181068000Y-80485000D01*
X181067000Y-80488000D01*
X181066000Y-80490000D01*
X181065000Y-80493000D01*
X181063000Y-80495000D01*
X181062000Y-80497000D01*
X181060000Y-80499000D01*
X181059000Y-80501000D01*
X181057000Y-80503000D01*
X181055000Y-80505000D01*
X181053000Y-80507000D01*
X181051000Y-80509000D01*
X181049000Y-80510000D01*
X181047000Y-80512000D01*
X181045000Y-80513000D01*
X181043000Y-80515000D01*
X181040000Y-80516000D01*
X181038000Y-80517000D01*
X181035000Y-80518000D01*
X181033000Y-80518000D01*
X181030000Y-80519000D01*
X181028000Y-80519000D01*
X181025000Y-80520000D01*
X181023000Y-80520000D01*
X181020000Y-80520000D01*
X180380000Y-80520000D01*
X180377000Y-80520000D01*
X180375000Y-80520000D01*
X180372000Y-80519000D01*
X180370000Y-80519000D01*
X180367000Y-80518000D01*
X180365000Y-80518000D01*
X180362000Y-80517000D01*
X180360000Y-80516000D01*
X180357000Y-80515000D01*
X180355000Y-80513000D01*
X180353000Y-80512000D01*
X180351000Y-80510000D01*
X180349000Y-80509000D01*
X180347000Y-80507000D01*
X180345000Y-80505000D01*
X180343000Y-80503000D01*
X180341000Y-80501000D01*
X180340000Y-80499000D01*
X180338000Y-80497000D01*
X180337000Y-80495000D01*
X180335000Y-80493000D01*
X180334000Y-80490000D01*
X180333000Y-80488000D01*
X180332000Y-80485000D01*
X180332000Y-80483000D01*
X180331000Y-80480000D01*
X180331000Y-80478000D01*
X180330000Y-80475000D01*
X180330000Y-80473000D01*
X180330000Y-80470000D01*
X180330000Y-80130000D01*
X180330000Y-80127000D01*
X180330000Y-80125000D01*
X180331000Y-80122000D01*
X180331000Y-80120000D01*
X180332000Y-80117000D01*
X180332000Y-80115000D01*
X180333000Y-80112000D01*
X180334000Y-80110000D01*
X180335000Y-80107000D01*
X180337000Y-80105000D01*
X180338000Y-80103000D01*
X180340000Y-80101000D01*
X180341000Y-80099000D01*
X180343000Y-80097000D01*
X180345000Y-80095000D01*
X180347000Y-80093000D01*
X180349000Y-80091000D01*
X180351000Y-80090000D01*
X180353000Y-80088000D01*
X180355000Y-80087000D01*
X180357000Y-80085000D01*
X180360000Y-80084000D01*
X180362000Y-80083000D01*
X180365000Y-80082000D01*
X180367000Y-80082000D01*
X180370000Y-80081000D01*
X180372000Y-80081000D01*
X180375000Y-80080000D01*
X180377000Y-80080000D01*
X180380000Y-80080000D01*
X181020000Y-80080000D01*
X181023000Y-80080000D01*
X181025000Y-80080000D01*
X181028000Y-80081000D01*
G37*
X182888000Y-78056000D02*
X182894000Y-78056000D01*
X182900000Y-78058000D01*
X182906000Y-78059000D01*
X182912000Y-78061000D01*
X182918000Y-78063000D01*
X182924000Y-78065000D01*
X182929000Y-78068000D01*
X182935000Y-78071000D01*
X182940000Y-78074000D01*
X182946000Y-78078000D01*
X182951000Y-78082000D01*
X182955000Y-78086000D01*
X182960000Y-78090000D01*
X182964000Y-78095000D01*
X182968000Y-78099000D01*
X182972000Y-78104000D01*
X182976000Y-78110000D01*
X182979000Y-78115000D01*
X182982000Y-78121000D01*
X182985000Y-78126000D01*
X182987000Y-78132000D01*
X182989000Y-78138000D01*
X182991000Y-78144000D01*
X182992000Y-78150000D01*
X182994000Y-78156000D01*
X182994000Y-78162000D01*
X182995000Y-78169000D01*
X182995000Y-78175000D01*
X182995000Y-80475000D01*
X182995000Y-80481000D01*
X182994000Y-80488000D01*
X182994000Y-80494000D01*
X182992000Y-80500000D01*
X182991000Y-80506000D01*
X182989000Y-80512000D01*
X182987000Y-80518000D01*
X182985000Y-80524000D01*
X182982000Y-80529000D01*
X182979000Y-80535000D01*
X182976000Y-80540000D01*
X182972000Y-80546000D01*
X182968000Y-80551000D01*
X182964000Y-80555000D01*
X182960000Y-80560000D01*
X182955000Y-80564000D01*
X182951000Y-80568000D01*
X182946000Y-80572000D01*
X182940000Y-80576000D01*
X182935000Y-80579000D01*
X182929000Y-80582000D01*
X182924000Y-80585000D01*
X182918000Y-80587000D01*
X182912000Y-80589000D01*
X182906000Y-80591000D01*
X182900000Y-80592000D01*
X182894000Y-80594000D01*
X182888000Y-80594000D01*
X182881000Y-80595000D01*
X182875000Y-80595000D01*
X181325000Y-80595000D01*
X181319000Y-80595000D01*
X181312000Y-80594000D01*
X181306000Y-80594000D01*
X181300000Y-80592000D01*
X181294000Y-80591000D01*
X181288000Y-80589000D01*
X181282000Y-80587000D01*
X181276000Y-80585000D01*
X181271000Y-80582000D01*
X181265000Y-80579000D01*
X181260000Y-80576000D01*
X181254000Y-80572000D01*
X181249000Y-80568000D01*
X181245000Y-80564000D01*
X181240000Y-80560000D01*
X181236000Y-80555000D01*
X181232000Y-80551000D01*
X181228000Y-80546000D01*
X181224000Y-80540000D01*
X181221000Y-80535000D01*
X181218000Y-80529000D01*
X181215000Y-80524000D01*
X181213000Y-80518000D01*
X181211000Y-80512000D01*
X181209000Y-80506000D01*
X181208000Y-80500000D01*
X181206000Y-80494000D01*
X181206000Y-80488000D01*
X181205000Y-80481000D01*
X181205000Y-80475000D01*
X181205000Y-78175000D01*
X181205000Y-78169000D01*
X181206000Y-78162000D01*
X181206000Y-78156000D01*
X181208000Y-78150000D01*
X181209000Y-78144000D01*
X181211000Y-78138000D01*
X181213000Y-78132000D01*
X181215000Y-78126000D01*
X181218000Y-78121000D01*
X181221000Y-78115000D01*
X181224000Y-78110000D01*
X181228000Y-78104000D01*
X181232000Y-78099000D01*
X181236000Y-78095000D01*
X181240000Y-78090000D01*
X181245000Y-78086000D01*
X181249000Y-78082000D01*
X181254000Y-78078000D01*
X181260000Y-78074000D01*
X181265000Y-78071000D01*
X181271000Y-78068000D01*
X181276000Y-78065000D01*
X181282000Y-78063000D01*
X181288000Y-78061000D01*
X181294000Y-78059000D01*
X181300000Y-78058000D01*
X181306000Y-78056000D01*
X181312000Y-78056000D01*
X181319000Y-78055000D01*
X181325000Y-78055000D01*
X182875000Y-78055000D01*
X182881000Y-78055000D01*
X182888000Y-78056000D01*
G36*
X182888000Y-78056000D02*
G01*
X182894000Y-78056000D01*
X182900000Y-78058000D01*
X182906000Y-78059000D01*
X182912000Y-78061000D01*
X182918000Y-78063000D01*
X182924000Y-78065000D01*
X182929000Y-78068000D01*
X182935000Y-78071000D01*
X182940000Y-78074000D01*
X182946000Y-78078000D01*
X182951000Y-78082000D01*
X182955000Y-78086000D01*
X182960000Y-78090000D01*
X182964000Y-78095000D01*
X182968000Y-78099000D01*
X182972000Y-78104000D01*
X182976000Y-78110000D01*
X182979000Y-78115000D01*
X182982000Y-78121000D01*
X182985000Y-78126000D01*
X182987000Y-78132000D01*
X182989000Y-78138000D01*
X182991000Y-78144000D01*
X182992000Y-78150000D01*
X182994000Y-78156000D01*
X182994000Y-78162000D01*
X182995000Y-78169000D01*
X182995000Y-78175000D01*
X182995000Y-80475000D01*
X182995000Y-80481000D01*
X182994000Y-80488000D01*
X182994000Y-80494000D01*
X182992000Y-80500000D01*
X182991000Y-80506000D01*
X182989000Y-80512000D01*
X182987000Y-80518000D01*
X182985000Y-80524000D01*
X182982000Y-80529000D01*
X182979000Y-80535000D01*
X182976000Y-80540000D01*
X182972000Y-80546000D01*
X182968000Y-80551000D01*
X182964000Y-80555000D01*
X182960000Y-80560000D01*
X182955000Y-80564000D01*
X182951000Y-80568000D01*
X182946000Y-80572000D01*
X182940000Y-80576000D01*
X182935000Y-80579000D01*
X182929000Y-80582000D01*
X182924000Y-80585000D01*
X182918000Y-80587000D01*
X182912000Y-80589000D01*
X182906000Y-80591000D01*
X182900000Y-80592000D01*
X182894000Y-80594000D01*
X182888000Y-80594000D01*
X182881000Y-80595000D01*
X182875000Y-80595000D01*
X181325000Y-80595000D01*
X181319000Y-80595000D01*
X181312000Y-80594000D01*
X181306000Y-80594000D01*
X181300000Y-80592000D01*
X181294000Y-80591000D01*
X181288000Y-80589000D01*
X181282000Y-80587000D01*
X181276000Y-80585000D01*
X181271000Y-80582000D01*
X181265000Y-80579000D01*
X181260000Y-80576000D01*
X181254000Y-80572000D01*
X181249000Y-80568000D01*
X181245000Y-80564000D01*
X181240000Y-80560000D01*
X181236000Y-80555000D01*
X181232000Y-80551000D01*
X181228000Y-80546000D01*
X181224000Y-80540000D01*
X181221000Y-80535000D01*
X181218000Y-80529000D01*
X181215000Y-80524000D01*
X181213000Y-80518000D01*
X181211000Y-80512000D01*
X181209000Y-80506000D01*
X181208000Y-80500000D01*
X181206000Y-80494000D01*
X181206000Y-80488000D01*
X181205000Y-80481000D01*
X181205000Y-80475000D01*
X181205000Y-78175000D01*
X181205000Y-78169000D01*
X181206000Y-78162000D01*
X181206000Y-78156000D01*
X181208000Y-78150000D01*
X181209000Y-78144000D01*
X181211000Y-78138000D01*
X181213000Y-78132000D01*
X181215000Y-78126000D01*
X181218000Y-78121000D01*
X181221000Y-78115000D01*
X181224000Y-78110000D01*
X181228000Y-78104000D01*
X181232000Y-78099000D01*
X181236000Y-78095000D01*
X181240000Y-78090000D01*
X181245000Y-78086000D01*
X181249000Y-78082000D01*
X181254000Y-78078000D01*
X181260000Y-78074000D01*
X181265000Y-78071000D01*
X181271000Y-78068000D01*
X181276000Y-78065000D01*
X181282000Y-78063000D01*
X181288000Y-78061000D01*
X181294000Y-78059000D01*
X181300000Y-78058000D01*
X181306000Y-78056000D01*
X181312000Y-78056000D01*
X181319000Y-78055000D01*
X181325000Y-78055000D01*
X182875000Y-78055000D01*
X182881000Y-78055000D01*
X182888000Y-78056000D01*
G37*
X183828000Y-78131000D02*
X183830000Y-78131000D01*
X183833000Y-78132000D01*
X183835000Y-78132000D01*
X183838000Y-78133000D01*
X183840000Y-78134000D01*
X183843000Y-78135000D01*
X183845000Y-78137000D01*
X183847000Y-78138000D01*
X183849000Y-78140000D01*
X183851000Y-78141000D01*
X183853000Y-78143000D01*
X183855000Y-78145000D01*
X183857000Y-78147000D01*
X183859000Y-78149000D01*
X183860000Y-78151000D01*
X183862000Y-78153000D01*
X183863000Y-78155000D01*
X183865000Y-78157000D01*
X183866000Y-78160000D01*
X183867000Y-78162000D01*
X183868000Y-78165000D01*
X183868000Y-78167000D01*
X183869000Y-78170000D01*
X183869000Y-78172000D01*
X183870000Y-78175000D01*
X183870000Y-78177000D01*
X183870000Y-78180000D01*
X183870000Y-78520000D01*
X183870000Y-78523000D01*
X183870000Y-78525000D01*
X183869000Y-78528000D01*
X183869000Y-78530000D01*
X183868000Y-78533000D01*
X183868000Y-78535000D01*
X183867000Y-78538000D01*
X183866000Y-78540000D01*
X183865000Y-78543000D01*
X183863000Y-78545000D01*
X183862000Y-78547000D01*
X183860000Y-78549000D01*
X183859000Y-78551000D01*
X183857000Y-78553000D01*
X183855000Y-78555000D01*
X183853000Y-78557000D01*
X183851000Y-78559000D01*
X183849000Y-78560000D01*
X183847000Y-78562000D01*
X183845000Y-78563000D01*
X183843000Y-78565000D01*
X183840000Y-78566000D01*
X183838000Y-78567000D01*
X183835000Y-78568000D01*
X183833000Y-78568000D01*
X183830000Y-78569000D01*
X183828000Y-78569000D01*
X183825000Y-78570000D01*
X183823000Y-78570000D01*
X183820000Y-78570000D01*
X183180000Y-78570000D01*
X183177000Y-78570000D01*
X183175000Y-78570000D01*
X183172000Y-78569000D01*
X183170000Y-78569000D01*
X183167000Y-78568000D01*
X183165000Y-78568000D01*
X183162000Y-78567000D01*
X183160000Y-78566000D01*
X183157000Y-78565000D01*
X183155000Y-78563000D01*
X183153000Y-78562000D01*
X183151000Y-78560000D01*
X183149000Y-78559000D01*
X183147000Y-78557000D01*
X183145000Y-78555000D01*
X183143000Y-78553000D01*
X183141000Y-78551000D01*
X183140000Y-78549000D01*
X183138000Y-78547000D01*
X183137000Y-78545000D01*
X183135000Y-78543000D01*
X183134000Y-78540000D01*
X183133000Y-78538000D01*
X183132000Y-78535000D01*
X183132000Y-78533000D01*
X183131000Y-78530000D01*
X183131000Y-78528000D01*
X183130000Y-78525000D01*
X183130000Y-78523000D01*
X183130000Y-78520000D01*
X183130000Y-78180000D01*
X183130000Y-78177000D01*
X183130000Y-78175000D01*
X183131000Y-78172000D01*
X183131000Y-78170000D01*
X183132000Y-78167000D01*
X183132000Y-78165000D01*
X183133000Y-78162000D01*
X183134000Y-78160000D01*
X183135000Y-78157000D01*
X183137000Y-78155000D01*
X183138000Y-78153000D01*
X183140000Y-78151000D01*
X183141000Y-78149000D01*
X183143000Y-78147000D01*
X183145000Y-78145000D01*
X183147000Y-78143000D01*
X183149000Y-78141000D01*
X183151000Y-78140000D01*
X183153000Y-78138000D01*
X183155000Y-78137000D01*
X183157000Y-78135000D01*
X183160000Y-78134000D01*
X183162000Y-78133000D01*
X183165000Y-78132000D01*
X183167000Y-78132000D01*
X183170000Y-78131000D01*
X183172000Y-78131000D01*
X183175000Y-78130000D01*
X183177000Y-78130000D01*
X183180000Y-78130000D01*
X183820000Y-78130000D01*
X183823000Y-78130000D01*
X183825000Y-78130000D01*
X183828000Y-78131000D01*
G36*
X183828000Y-78131000D02*
G01*
X183830000Y-78131000D01*
X183833000Y-78132000D01*
X183835000Y-78132000D01*
X183838000Y-78133000D01*
X183840000Y-78134000D01*
X183843000Y-78135000D01*
X183845000Y-78137000D01*
X183847000Y-78138000D01*
X183849000Y-78140000D01*
X183851000Y-78141000D01*
X183853000Y-78143000D01*
X183855000Y-78145000D01*
X183857000Y-78147000D01*
X183859000Y-78149000D01*
X183860000Y-78151000D01*
X183862000Y-78153000D01*
X183863000Y-78155000D01*
X183865000Y-78157000D01*
X183866000Y-78160000D01*
X183867000Y-78162000D01*
X183868000Y-78165000D01*
X183868000Y-78167000D01*
X183869000Y-78170000D01*
X183869000Y-78172000D01*
X183870000Y-78175000D01*
X183870000Y-78177000D01*
X183870000Y-78180000D01*
X183870000Y-78520000D01*
X183870000Y-78523000D01*
X183870000Y-78525000D01*
X183869000Y-78528000D01*
X183869000Y-78530000D01*
X183868000Y-78533000D01*
X183868000Y-78535000D01*
X183867000Y-78538000D01*
X183866000Y-78540000D01*
X183865000Y-78543000D01*
X183863000Y-78545000D01*
X183862000Y-78547000D01*
X183860000Y-78549000D01*
X183859000Y-78551000D01*
X183857000Y-78553000D01*
X183855000Y-78555000D01*
X183853000Y-78557000D01*
X183851000Y-78559000D01*
X183849000Y-78560000D01*
X183847000Y-78562000D01*
X183845000Y-78563000D01*
X183843000Y-78565000D01*
X183840000Y-78566000D01*
X183838000Y-78567000D01*
X183835000Y-78568000D01*
X183833000Y-78568000D01*
X183830000Y-78569000D01*
X183828000Y-78569000D01*
X183825000Y-78570000D01*
X183823000Y-78570000D01*
X183820000Y-78570000D01*
X183180000Y-78570000D01*
X183177000Y-78570000D01*
X183175000Y-78570000D01*
X183172000Y-78569000D01*
X183170000Y-78569000D01*
X183167000Y-78568000D01*
X183165000Y-78568000D01*
X183162000Y-78567000D01*
X183160000Y-78566000D01*
X183157000Y-78565000D01*
X183155000Y-78563000D01*
X183153000Y-78562000D01*
X183151000Y-78560000D01*
X183149000Y-78559000D01*
X183147000Y-78557000D01*
X183145000Y-78555000D01*
X183143000Y-78553000D01*
X183141000Y-78551000D01*
X183140000Y-78549000D01*
X183138000Y-78547000D01*
X183137000Y-78545000D01*
X183135000Y-78543000D01*
X183134000Y-78540000D01*
X183133000Y-78538000D01*
X183132000Y-78535000D01*
X183132000Y-78533000D01*
X183131000Y-78530000D01*
X183131000Y-78528000D01*
X183130000Y-78525000D01*
X183130000Y-78523000D01*
X183130000Y-78520000D01*
X183130000Y-78180000D01*
X183130000Y-78177000D01*
X183130000Y-78175000D01*
X183131000Y-78172000D01*
X183131000Y-78170000D01*
X183132000Y-78167000D01*
X183132000Y-78165000D01*
X183133000Y-78162000D01*
X183134000Y-78160000D01*
X183135000Y-78157000D01*
X183137000Y-78155000D01*
X183138000Y-78153000D01*
X183140000Y-78151000D01*
X183141000Y-78149000D01*
X183143000Y-78147000D01*
X183145000Y-78145000D01*
X183147000Y-78143000D01*
X183149000Y-78141000D01*
X183151000Y-78140000D01*
X183153000Y-78138000D01*
X183155000Y-78137000D01*
X183157000Y-78135000D01*
X183160000Y-78134000D01*
X183162000Y-78133000D01*
X183165000Y-78132000D01*
X183167000Y-78132000D01*
X183170000Y-78131000D01*
X183172000Y-78131000D01*
X183175000Y-78130000D01*
X183177000Y-78130000D01*
X183180000Y-78130000D01*
X183820000Y-78130000D01*
X183823000Y-78130000D01*
X183825000Y-78130000D01*
X183828000Y-78131000D01*
G37*
X183828000Y-78781000D02*
X183830000Y-78781000D01*
X183833000Y-78782000D01*
X183835000Y-78782000D01*
X183838000Y-78783000D01*
X183840000Y-78784000D01*
X183843000Y-78785000D01*
X183845000Y-78787000D01*
X183847000Y-78788000D01*
X183849000Y-78790000D01*
X183851000Y-78791000D01*
X183853000Y-78793000D01*
X183855000Y-78795000D01*
X183857000Y-78797000D01*
X183859000Y-78799000D01*
X183860000Y-78801000D01*
X183862000Y-78803000D01*
X183863000Y-78805000D01*
X183865000Y-78807000D01*
X183866000Y-78810000D01*
X183867000Y-78812000D01*
X183868000Y-78815000D01*
X183868000Y-78817000D01*
X183869000Y-78820000D01*
X183869000Y-78822000D01*
X183870000Y-78825000D01*
X183870000Y-78827000D01*
X183870000Y-78830000D01*
X183870000Y-79170000D01*
X183870000Y-79173000D01*
X183870000Y-79175000D01*
X183869000Y-79178000D01*
X183869000Y-79180000D01*
X183868000Y-79183000D01*
X183868000Y-79185000D01*
X183867000Y-79188000D01*
X183866000Y-79190000D01*
X183865000Y-79193000D01*
X183863000Y-79195000D01*
X183862000Y-79197000D01*
X183860000Y-79199000D01*
X183859000Y-79201000D01*
X183857000Y-79203000D01*
X183855000Y-79205000D01*
X183853000Y-79207000D01*
X183851000Y-79209000D01*
X183849000Y-79210000D01*
X183847000Y-79212000D01*
X183845000Y-79213000D01*
X183843000Y-79215000D01*
X183840000Y-79216000D01*
X183838000Y-79217000D01*
X183835000Y-79218000D01*
X183833000Y-79218000D01*
X183830000Y-79219000D01*
X183828000Y-79219000D01*
X183825000Y-79220000D01*
X183823000Y-79220000D01*
X183820000Y-79220000D01*
X183180000Y-79220000D01*
X183177000Y-79220000D01*
X183175000Y-79220000D01*
X183172000Y-79219000D01*
X183170000Y-79219000D01*
X183167000Y-79218000D01*
X183165000Y-79218000D01*
X183162000Y-79217000D01*
X183160000Y-79216000D01*
X183157000Y-79215000D01*
X183155000Y-79213000D01*
X183153000Y-79212000D01*
X183151000Y-79210000D01*
X183149000Y-79209000D01*
X183147000Y-79207000D01*
X183145000Y-79205000D01*
X183143000Y-79203000D01*
X183141000Y-79201000D01*
X183140000Y-79199000D01*
X183138000Y-79197000D01*
X183137000Y-79195000D01*
X183135000Y-79193000D01*
X183134000Y-79190000D01*
X183133000Y-79188000D01*
X183132000Y-79185000D01*
X183132000Y-79183000D01*
X183131000Y-79180000D01*
X183131000Y-79178000D01*
X183130000Y-79175000D01*
X183130000Y-79173000D01*
X183130000Y-79170000D01*
X183130000Y-78830000D01*
X183130000Y-78827000D01*
X183130000Y-78825000D01*
X183131000Y-78822000D01*
X183131000Y-78820000D01*
X183132000Y-78817000D01*
X183132000Y-78815000D01*
X183133000Y-78812000D01*
X183134000Y-78810000D01*
X183135000Y-78807000D01*
X183137000Y-78805000D01*
X183138000Y-78803000D01*
X183140000Y-78801000D01*
X183141000Y-78799000D01*
X183143000Y-78797000D01*
X183145000Y-78795000D01*
X183147000Y-78793000D01*
X183149000Y-78791000D01*
X183151000Y-78790000D01*
X183153000Y-78788000D01*
X183155000Y-78787000D01*
X183157000Y-78785000D01*
X183160000Y-78784000D01*
X183162000Y-78783000D01*
X183165000Y-78782000D01*
X183167000Y-78782000D01*
X183170000Y-78781000D01*
X183172000Y-78781000D01*
X183175000Y-78780000D01*
X183177000Y-78780000D01*
X183180000Y-78780000D01*
X183820000Y-78780000D01*
X183823000Y-78780000D01*
X183825000Y-78780000D01*
X183828000Y-78781000D01*
G36*
X183828000Y-78781000D02*
G01*
X183830000Y-78781000D01*
X183833000Y-78782000D01*
X183835000Y-78782000D01*
X183838000Y-78783000D01*
X183840000Y-78784000D01*
X183843000Y-78785000D01*
X183845000Y-78787000D01*
X183847000Y-78788000D01*
X183849000Y-78790000D01*
X183851000Y-78791000D01*
X183853000Y-78793000D01*
X183855000Y-78795000D01*
X183857000Y-78797000D01*
X183859000Y-78799000D01*
X183860000Y-78801000D01*
X183862000Y-78803000D01*
X183863000Y-78805000D01*
X183865000Y-78807000D01*
X183866000Y-78810000D01*
X183867000Y-78812000D01*
X183868000Y-78815000D01*
X183868000Y-78817000D01*
X183869000Y-78820000D01*
X183869000Y-78822000D01*
X183870000Y-78825000D01*
X183870000Y-78827000D01*
X183870000Y-78830000D01*
X183870000Y-79170000D01*
X183870000Y-79173000D01*
X183870000Y-79175000D01*
X183869000Y-79178000D01*
X183869000Y-79180000D01*
X183868000Y-79183000D01*
X183868000Y-79185000D01*
X183867000Y-79188000D01*
X183866000Y-79190000D01*
X183865000Y-79193000D01*
X183863000Y-79195000D01*
X183862000Y-79197000D01*
X183860000Y-79199000D01*
X183859000Y-79201000D01*
X183857000Y-79203000D01*
X183855000Y-79205000D01*
X183853000Y-79207000D01*
X183851000Y-79209000D01*
X183849000Y-79210000D01*
X183847000Y-79212000D01*
X183845000Y-79213000D01*
X183843000Y-79215000D01*
X183840000Y-79216000D01*
X183838000Y-79217000D01*
X183835000Y-79218000D01*
X183833000Y-79218000D01*
X183830000Y-79219000D01*
X183828000Y-79219000D01*
X183825000Y-79220000D01*
X183823000Y-79220000D01*
X183820000Y-79220000D01*
X183180000Y-79220000D01*
X183177000Y-79220000D01*
X183175000Y-79220000D01*
X183172000Y-79219000D01*
X183170000Y-79219000D01*
X183167000Y-79218000D01*
X183165000Y-79218000D01*
X183162000Y-79217000D01*
X183160000Y-79216000D01*
X183157000Y-79215000D01*
X183155000Y-79213000D01*
X183153000Y-79212000D01*
X183151000Y-79210000D01*
X183149000Y-79209000D01*
X183147000Y-79207000D01*
X183145000Y-79205000D01*
X183143000Y-79203000D01*
X183141000Y-79201000D01*
X183140000Y-79199000D01*
X183138000Y-79197000D01*
X183137000Y-79195000D01*
X183135000Y-79193000D01*
X183134000Y-79190000D01*
X183133000Y-79188000D01*
X183132000Y-79185000D01*
X183132000Y-79183000D01*
X183131000Y-79180000D01*
X183131000Y-79178000D01*
X183130000Y-79175000D01*
X183130000Y-79173000D01*
X183130000Y-79170000D01*
X183130000Y-78830000D01*
X183130000Y-78827000D01*
X183130000Y-78825000D01*
X183131000Y-78822000D01*
X183131000Y-78820000D01*
X183132000Y-78817000D01*
X183132000Y-78815000D01*
X183133000Y-78812000D01*
X183134000Y-78810000D01*
X183135000Y-78807000D01*
X183137000Y-78805000D01*
X183138000Y-78803000D01*
X183140000Y-78801000D01*
X183141000Y-78799000D01*
X183143000Y-78797000D01*
X183145000Y-78795000D01*
X183147000Y-78793000D01*
X183149000Y-78791000D01*
X183151000Y-78790000D01*
X183153000Y-78788000D01*
X183155000Y-78787000D01*
X183157000Y-78785000D01*
X183160000Y-78784000D01*
X183162000Y-78783000D01*
X183165000Y-78782000D01*
X183167000Y-78782000D01*
X183170000Y-78781000D01*
X183172000Y-78781000D01*
X183175000Y-78780000D01*
X183177000Y-78780000D01*
X183180000Y-78780000D01*
X183820000Y-78780000D01*
X183823000Y-78780000D01*
X183825000Y-78780000D01*
X183828000Y-78781000D01*
G37*
X183828000Y-79431000D02*
X183830000Y-79431000D01*
X183833000Y-79432000D01*
X183835000Y-79432000D01*
X183838000Y-79433000D01*
X183840000Y-79434000D01*
X183843000Y-79435000D01*
X183845000Y-79437000D01*
X183847000Y-79438000D01*
X183849000Y-79440000D01*
X183851000Y-79441000D01*
X183853000Y-79443000D01*
X183855000Y-79445000D01*
X183857000Y-79447000D01*
X183859000Y-79449000D01*
X183860000Y-79451000D01*
X183862000Y-79453000D01*
X183863000Y-79455000D01*
X183865000Y-79457000D01*
X183866000Y-79460000D01*
X183867000Y-79462000D01*
X183868000Y-79465000D01*
X183868000Y-79467000D01*
X183869000Y-79470000D01*
X183869000Y-79472000D01*
X183870000Y-79475000D01*
X183870000Y-79477000D01*
X183870000Y-79480000D01*
X183870000Y-79820000D01*
X183870000Y-79823000D01*
X183870000Y-79825000D01*
X183869000Y-79828000D01*
X183869000Y-79830000D01*
X183868000Y-79833000D01*
X183868000Y-79835000D01*
X183867000Y-79838000D01*
X183866000Y-79840000D01*
X183865000Y-79843000D01*
X183863000Y-79845000D01*
X183862000Y-79847000D01*
X183860000Y-79849000D01*
X183859000Y-79851000D01*
X183857000Y-79853000D01*
X183855000Y-79855000D01*
X183853000Y-79857000D01*
X183851000Y-79859000D01*
X183849000Y-79860000D01*
X183847000Y-79862000D01*
X183845000Y-79863000D01*
X183843000Y-79865000D01*
X183840000Y-79866000D01*
X183838000Y-79867000D01*
X183835000Y-79868000D01*
X183833000Y-79868000D01*
X183830000Y-79869000D01*
X183828000Y-79869000D01*
X183825000Y-79870000D01*
X183823000Y-79870000D01*
X183820000Y-79870000D01*
X183180000Y-79870000D01*
X183177000Y-79870000D01*
X183175000Y-79870000D01*
X183172000Y-79869000D01*
X183170000Y-79869000D01*
X183167000Y-79868000D01*
X183165000Y-79868000D01*
X183162000Y-79867000D01*
X183160000Y-79866000D01*
X183157000Y-79865000D01*
X183155000Y-79863000D01*
X183153000Y-79862000D01*
X183151000Y-79860000D01*
X183149000Y-79859000D01*
X183147000Y-79857000D01*
X183145000Y-79855000D01*
X183143000Y-79853000D01*
X183141000Y-79851000D01*
X183140000Y-79849000D01*
X183138000Y-79847000D01*
X183137000Y-79845000D01*
X183135000Y-79843000D01*
X183134000Y-79840000D01*
X183133000Y-79838000D01*
X183132000Y-79835000D01*
X183132000Y-79833000D01*
X183131000Y-79830000D01*
X183131000Y-79828000D01*
X183130000Y-79825000D01*
X183130000Y-79823000D01*
X183130000Y-79820000D01*
X183130000Y-79480000D01*
X183130000Y-79477000D01*
X183130000Y-79475000D01*
X183131000Y-79472000D01*
X183131000Y-79470000D01*
X183132000Y-79467000D01*
X183132000Y-79465000D01*
X183133000Y-79462000D01*
X183134000Y-79460000D01*
X183135000Y-79457000D01*
X183137000Y-79455000D01*
X183138000Y-79453000D01*
X183140000Y-79451000D01*
X183141000Y-79449000D01*
X183143000Y-79447000D01*
X183145000Y-79445000D01*
X183147000Y-79443000D01*
X183149000Y-79441000D01*
X183151000Y-79440000D01*
X183153000Y-79438000D01*
X183155000Y-79437000D01*
X183157000Y-79435000D01*
X183160000Y-79434000D01*
X183162000Y-79433000D01*
X183165000Y-79432000D01*
X183167000Y-79432000D01*
X183170000Y-79431000D01*
X183172000Y-79431000D01*
X183175000Y-79430000D01*
X183177000Y-79430000D01*
X183180000Y-79430000D01*
X183820000Y-79430000D01*
X183823000Y-79430000D01*
X183825000Y-79430000D01*
X183828000Y-79431000D01*
G36*
X183828000Y-79431000D02*
G01*
X183830000Y-79431000D01*
X183833000Y-79432000D01*
X183835000Y-79432000D01*
X183838000Y-79433000D01*
X183840000Y-79434000D01*
X183843000Y-79435000D01*
X183845000Y-79437000D01*
X183847000Y-79438000D01*
X183849000Y-79440000D01*
X183851000Y-79441000D01*
X183853000Y-79443000D01*
X183855000Y-79445000D01*
X183857000Y-79447000D01*
X183859000Y-79449000D01*
X183860000Y-79451000D01*
X183862000Y-79453000D01*
X183863000Y-79455000D01*
X183865000Y-79457000D01*
X183866000Y-79460000D01*
X183867000Y-79462000D01*
X183868000Y-79465000D01*
X183868000Y-79467000D01*
X183869000Y-79470000D01*
X183869000Y-79472000D01*
X183870000Y-79475000D01*
X183870000Y-79477000D01*
X183870000Y-79480000D01*
X183870000Y-79820000D01*
X183870000Y-79823000D01*
X183870000Y-79825000D01*
X183869000Y-79828000D01*
X183869000Y-79830000D01*
X183868000Y-79833000D01*
X183868000Y-79835000D01*
X183867000Y-79838000D01*
X183866000Y-79840000D01*
X183865000Y-79843000D01*
X183863000Y-79845000D01*
X183862000Y-79847000D01*
X183860000Y-79849000D01*
X183859000Y-79851000D01*
X183857000Y-79853000D01*
X183855000Y-79855000D01*
X183853000Y-79857000D01*
X183851000Y-79859000D01*
X183849000Y-79860000D01*
X183847000Y-79862000D01*
X183845000Y-79863000D01*
X183843000Y-79865000D01*
X183840000Y-79866000D01*
X183838000Y-79867000D01*
X183835000Y-79868000D01*
X183833000Y-79868000D01*
X183830000Y-79869000D01*
X183828000Y-79869000D01*
X183825000Y-79870000D01*
X183823000Y-79870000D01*
X183820000Y-79870000D01*
X183180000Y-79870000D01*
X183177000Y-79870000D01*
X183175000Y-79870000D01*
X183172000Y-79869000D01*
X183170000Y-79869000D01*
X183167000Y-79868000D01*
X183165000Y-79868000D01*
X183162000Y-79867000D01*
X183160000Y-79866000D01*
X183157000Y-79865000D01*
X183155000Y-79863000D01*
X183153000Y-79862000D01*
X183151000Y-79860000D01*
X183149000Y-79859000D01*
X183147000Y-79857000D01*
X183145000Y-79855000D01*
X183143000Y-79853000D01*
X183141000Y-79851000D01*
X183140000Y-79849000D01*
X183138000Y-79847000D01*
X183137000Y-79845000D01*
X183135000Y-79843000D01*
X183134000Y-79840000D01*
X183133000Y-79838000D01*
X183132000Y-79835000D01*
X183132000Y-79833000D01*
X183131000Y-79830000D01*
X183131000Y-79828000D01*
X183130000Y-79825000D01*
X183130000Y-79823000D01*
X183130000Y-79820000D01*
X183130000Y-79480000D01*
X183130000Y-79477000D01*
X183130000Y-79475000D01*
X183131000Y-79472000D01*
X183131000Y-79470000D01*
X183132000Y-79467000D01*
X183132000Y-79465000D01*
X183133000Y-79462000D01*
X183134000Y-79460000D01*
X183135000Y-79457000D01*
X183137000Y-79455000D01*
X183138000Y-79453000D01*
X183140000Y-79451000D01*
X183141000Y-79449000D01*
X183143000Y-79447000D01*
X183145000Y-79445000D01*
X183147000Y-79443000D01*
X183149000Y-79441000D01*
X183151000Y-79440000D01*
X183153000Y-79438000D01*
X183155000Y-79437000D01*
X183157000Y-79435000D01*
X183160000Y-79434000D01*
X183162000Y-79433000D01*
X183165000Y-79432000D01*
X183167000Y-79432000D01*
X183170000Y-79431000D01*
X183172000Y-79431000D01*
X183175000Y-79430000D01*
X183177000Y-79430000D01*
X183180000Y-79430000D01*
X183820000Y-79430000D01*
X183823000Y-79430000D01*
X183825000Y-79430000D01*
X183828000Y-79431000D01*
G37*
X183828000Y-80081000D02*
X183830000Y-80081000D01*
X183833000Y-80082000D01*
X183835000Y-80082000D01*
X183838000Y-80083000D01*
X183840000Y-80084000D01*
X183843000Y-80085000D01*
X183845000Y-80087000D01*
X183847000Y-80088000D01*
X183849000Y-80090000D01*
X183851000Y-80091000D01*
X183853000Y-80093000D01*
X183855000Y-80095000D01*
X183857000Y-80097000D01*
X183859000Y-80099000D01*
X183860000Y-80101000D01*
X183862000Y-80103000D01*
X183863000Y-80105000D01*
X183865000Y-80107000D01*
X183866000Y-80110000D01*
X183867000Y-80112000D01*
X183868000Y-80115000D01*
X183868000Y-80117000D01*
X183869000Y-80120000D01*
X183869000Y-80122000D01*
X183870000Y-80125000D01*
X183870000Y-80127000D01*
X183870000Y-80130000D01*
X183870000Y-80470000D01*
X183870000Y-80473000D01*
X183870000Y-80475000D01*
X183869000Y-80478000D01*
X183869000Y-80480000D01*
X183868000Y-80483000D01*
X183868000Y-80485000D01*
X183867000Y-80488000D01*
X183866000Y-80490000D01*
X183865000Y-80493000D01*
X183863000Y-80495000D01*
X183862000Y-80497000D01*
X183860000Y-80499000D01*
X183859000Y-80501000D01*
X183857000Y-80503000D01*
X183855000Y-80505000D01*
X183853000Y-80507000D01*
X183851000Y-80509000D01*
X183849000Y-80510000D01*
X183847000Y-80512000D01*
X183845000Y-80513000D01*
X183843000Y-80515000D01*
X183840000Y-80516000D01*
X183838000Y-80517000D01*
X183835000Y-80518000D01*
X183833000Y-80518000D01*
X183830000Y-80519000D01*
X183828000Y-80519000D01*
X183825000Y-80520000D01*
X183823000Y-80520000D01*
X183820000Y-80520000D01*
X183180000Y-80520000D01*
X183177000Y-80520000D01*
X183175000Y-80520000D01*
X183172000Y-80519000D01*
X183170000Y-80519000D01*
X183167000Y-80518000D01*
X183165000Y-80518000D01*
X183162000Y-80517000D01*
X183160000Y-80516000D01*
X183157000Y-80515000D01*
X183155000Y-80513000D01*
X183153000Y-80512000D01*
X183151000Y-80510000D01*
X183149000Y-80509000D01*
X183147000Y-80507000D01*
X183145000Y-80505000D01*
X183143000Y-80503000D01*
X183141000Y-80501000D01*
X183140000Y-80499000D01*
X183138000Y-80497000D01*
X183137000Y-80495000D01*
X183135000Y-80493000D01*
X183134000Y-80490000D01*
X183133000Y-80488000D01*
X183132000Y-80485000D01*
X183132000Y-80483000D01*
X183131000Y-80480000D01*
X183131000Y-80478000D01*
X183130000Y-80475000D01*
X183130000Y-80473000D01*
X183130000Y-80470000D01*
X183130000Y-80130000D01*
X183130000Y-80127000D01*
X183130000Y-80125000D01*
X183131000Y-80122000D01*
X183131000Y-80120000D01*
X183132000Y-80117000D01*
X183132000Y-80115000D01*
X183133000Y-80112000D01*
X183134000Y-80110000D01*
X183135000Y-80107000D01*
X183137000Y-80105000D01*
X183138000Y-80103000D01*
X183140000Y-80101000D01*
X183141000Y-80099000D01*
X183143000Y-80097000D01*
X183145000Y-80095000D01*
X183147000Y-80093000D01*
X183149000Y-80091000D01*
X183151000Y-80090000D01*
X183153000Y-80088000D01*
X183155000Y-80087000D01*
X183157000Y-80085000D01*
X183160000Y-80084000D01*
X183162000Y-80083000D01*
X183165000Y-80082000D01*
X183167000Y-80082000D01*
X183170000Y-80081000D01*
X183172000Y-80081000D01*
X183175000Y-80080000D01*
X183177000Y-80080000D01*
X183180000Y-80080000D01*
X183820000Y-80080000D01*
X183823000Y-80080000D01*
X183825000Y-80080000D01*
X183828000Y-80081000D01*
G36*
X183828000Y-80081000D02*
G01*
X183830000Y-80081000D01*
X183833000Y-80082000D01*
X183835000Y-80082000D01*
X183838000Y-80083000D01*
X183840000Y-80084000D01*
X183843000Y-80085000D01*
X183845000Y-80087000D01*
X183847000Y-80088000D01*
X183849000Y-80090000D01*
X183851000Y-80091000D01*
X183853000Y-80093000D01*
X183855000Y-80095000D01*
X183857000Y-80097000D01*
X183859000Y-80099000D01*
X183860000Y-80101000D01*
X183862000Y-80103000D01*
X183863000Y-80105000D01*
X183865000Y-80107000D01*
X183866000Y-80110000D01*
X183867000Y-80112000D01*
X183868000Y-80115000D01*
X183868000Y-80117000D01*
X183869000Y-80120000D01*
X183869000Y-80122000D01*
X183870000Y-80125000D01*
X183870000Y-80127000D01*
X183870000Y-80130000D01*
X183870000Y-80470000D01*
X183870000Y-80473000D01*
X183870000Y-80475000D01*
X183869000Y-80478000D01*
X183869000Y-80480000D01*
X183868000Y-80483000D01*
X183868000Y-80485000D01*
X183867000Y-80488000D01*
X183866000Y-80490000D01*
X183865000Y-80493000D01*
X183863000Y-80495000D01*
X183862000Y-80497000D01*
X183860000Y-80499000D01*
X183859000Y-80501000D01*
X183857000Y-80503000D01*
X183855000Y-80505000D01*
X183853000Y-80507000D01*
X183851000Y-80509000D01*
X183849000Y-80510000D01*
X183847000Y-80512000D01*
X183845000Y-80513000D01*
X183843000Y-80515000D01*
X183840000Y-80516000D01*
X183838000Y-80517000D01*
X183835000Y-80518000D01*
X183833000Y-80518000D01*
X183830000Y-80519000D01*
X183828000Y-80519000D01*
X183825000Y-80520000D01*
X183823000Y-80520000D01*
X183820000Y-80520000D01*
X183180000Y-80520000D01*
X183177000Y-80520000D01*
X183175000Y-80520000D01*
X183172000Y-80519000D01*
X183170000Y-80519000D01*
X183167000Y-80518000D01*
X183165000Y-80518000D01*
X183162000Y-80517000D01*
X183160000Y-80516000D01*
X183157000Y-80515000D01*
X183155000Y-80513000D01*
X183153000Y-80512000D01*
X183151000Y-80510000D01*
X183149000Y-80509000D01*
X183147000Y-80507000D01*
X183145000Y-80505000D01*
X183143000Y-80503000D01*
X183141000Y-80501000D01*
X183140000Y-80499000D01*
X183138000Y-80497000D01*
X183137000Y-80495000D01*
X183135000Y-80493000D01*
X183134000Y-80490000D01*
X183133000Y-80488000D01*
X183132000Y-80485000D01*
X183132000Y-80483000D01*
X183131000Y-80480000D01*
X183131000Y-80478000D01*
X183130000Y-80475000D01*
X183130000Y-80473000D01*
X183130000Y-80470000D01*
X183130000Y-80130000D01*
X183130000Y-80127000D01*
X183130000Y-80125000D01*
X183131000Y-80122000D01*
X183131000Y-80120000D01*
X183132000Y-80117000D01*
X183132000Y-80115000D01*
X183133000Y-80112000D01*
X183134000Y-80110000D01*
X183135000Y-80107000D01*
X183137000Y-80105000D01*
X183138000Y-80103000D01*
X183140000Y-80101000D01*
X183141000Y-80099000D01*
X183143000Y-80097000D01*
X183145000Y-80095000D01*
X183147000Y-80093000D01*
X183149000Y-80091000D01*
X183151000Y-80090000D01*
X183153000Y-80088000D01*
X183155000Y-80087000D01*
X183157000Y-80085000D01*
X183160000Y-80084000D01*
X183162000Y-80083000D01*
X183165000Y-80082000D01*
X183167000Y-80082000D01*
X183170000Y-80081000D01*
X183172000Y-80081000D01*
X183175000Y-80080000D01*
X183177000Y-80080000D01*
X183180000Y-80080000D01*
X183820000Y-80080000D01*
X183823000Y-80080000D01*
X183825000Y-80080000D01*
X183828000Y-80081000D01*
G37*
D12*
X163062500Y-62250000D03*
X160562500Y-62250000D03*
D13*
X160950001Y-115100000D03*
X160950001Y-117000000D03*
D14*
X158950001Y-111925000D03*
X158950001Y-113500000D03*
D15*
X160950000Y-105750000D03*
X160950000Y-102750000D03*
D16*
X163000000Y-102000000D03*
X163000000Y-105000000D03*
X163000000Y-106500000D03*
D17*
X159800000Y-108000000D03*
X159800000Y-100500000D03*
X162100000Y-100500000D03*
X162100000Y-108000000D03*
D13*
X188500000Y-82500000D03*
X188500000Y-84400000D03*
D18*
X201891550Y-44405050D03*
X201891550Y-45405051D03*
X201891550Y-46405049D03*
X201891550Y-47405050D03*
D19*
X204416549Y-43105051D03*
X204416549Y-48705049D03*
D20*
X193775000Y-106500000D03*
X192225000Y-106500000D03*
D21*
X163540000Y-64500000D03*
X164500000Y-64500000D03*
D22*
X192000000Y-90550000D03*
X192000000Y-91500000D03*
X192000000Y-92450000D03*
X194510000Y-92450000D03*
X194510000Y-91500000D03*
X194510000Y-90550000D03*
D14*
X174000000Y-98712500D03*
X174000000Y-100287500D03*
D23*
X197000000Y-95000000D03*
X197000000Y-96550000D03*
D24*
X163300000Y-91000000D03*
X163300000Y-93200000D03*
X165000000Y-93200000D03*
X165000000Y-91000000D03*
D25*
X175500000Y-145578400D03*
X174499999Y-145578400D03*
X173500001Y-145578400D03*
X172500000Y-145578400D03*
D26*
X176799999Y-148103399D03*
X171200001Y-148103399D03*
D27*
X187000000Y-120520000D03*
X187000000Y-119500000D03*
D28*
X175150000Y-70500000D03*
X176850000Y-70500000D03*
D29*
X202212500Y-111500000D03*
X203787500Y-111500000D03*
D30*
X161980000Y-139500000D03*
X163000000Y-139500000D03*
D31*
X185000000Y-77460000D03*
X185000000Y-76500000D03*
D32*
X192500000Y-148000000D03*
X192500000Y-140000000D03*
D33*
X161950001Y-111999999D03*
X161950001Y-111500000D03*
X161950001Y-110999998D03*
X161950001Y-110500000D03*
X160049999Y-110500000D03*
X160049999Y-110999998D03*
X160049999Y-111500000D03*
X160049999Y-111999999D03*
D34*
X161000000Y-111250001D03*
D35*
X172092200Y-128939800D03*
X172092200Y-127060200D03*
X169907800Y-128000000D03*
D36*
X157450001Y-114500000D03*
X157450001Y-116150000D03*
D37*
X160250000Y-65937500D03*
D38*
X160187500Y-66750000D03*
X160187500Y-67250000D03*
X160187500Y-67750000D03*
X160187500Y-68250000D03*
D37*
X160250000Y-69062500D03*
X160750000Y-69062500D03*
X161250000Y-69062500D03*
X161750000Y-69062500D03*
X162250000Y-69062500D03*
X162750000Y-69062500D03*
X163250000Y-69062500D03*
X163750000Y-69062500D03*
X164250000Y-69062500D03*
X164750000Y-69062500D03*
D38*
X164812500Y-68250000D03*
X164812500Y-67750000D03*
X164812500Y-67250000D03*
X164812500Y-66750000D03*
D37*
X164750000Y-65937500D03*
X164250000Y-65937500D03*
X163750000Y-65937500D03*
X163250000Y-65937500D03*
X162750000Y-65937500D03*
X162250000Y-65937500D03*
X161750000Y-65937500D03*
X161250000Y-65937500D03*
X160750000Y-65937500D03*
D39*
X166000000Y-78275000D03*
X166000000Y-76725000D03*
D40*
X201195000Y-62000000D03*
D41*
X201195000Y-65500000D03*
X201195000Y-69000000D03*
X201195000Y-72500000D03*
D33*
X199099998Y-111649998D03*
X199099998Y-112149997D03*
X199099998Y-112649999D03*
X199099998Y-113149997D03*
X201000000Y-113149997D03*
X201000000Y-112649999D03*
X201000000Y-112149997D03*
X201000000Y-111649998D03*
D34*
X200049999Y-112399996D03*
D42*
X172500000Y-100000000D03*
X171540000Y-100000000D03*
D43*
X176000000Y-60025000D03*
X176500000Y-60025000D03*
D44*
X177012500Y-59762500D03*
X177012500Y-59262500D03*
X177012500Y-58762500D03*
D43*
X176500000Y-58500000D03*
X176000000Y-58500000D03*
D44*
X175487500Y-58762500D03*
X175487500Y-59262500D03*
X175487500Y-59762500D03*
D23*
X164500000Y-112225000D03*
X164500000Y-113775000D03*
D21*
X187020000Y-89000000D03*
X187980000Y-89000000D03*
D45*
X198500000Y-104500000D03*
X198500000Y-102500000D03*
D46*
X204050000Y-106850000D03*
X204050000Y-100150000D03*
D21*
X179006238Y-125869998D03*
X179966238Y-125869998D03*
D47*
X178500000Y-85000000D03*
X177480000Y-85000000D03*
D48*
X174825000Y-90000000D03*
X174825000Y-90500000D03*
X174825000Y-91000000D03*
X174825000Y-91500000D03*
X174825000Y-92000000D03*
X174825000Y-92500000D03*
X174825000Y-93000000D03*
X174825000Y-93500000D03*
X174825000Y-94000000D03*
X174825000Y-94500000D03*
X174825000Y-95000000D03*
X174825000Y-95500000D03*
X174825000Y-96000000D03*
X174825000Y-96500000D03*
X174825000Y-97000000D03*
X174825000Y-97500000D03*
D49*
X176750000Y-99425000D03*
X177250000Y-99425000D03*
X177750000Y-99425000D03*
X178250000Y-99425000D03*
X178750000Y-99425000D03*
X179250000Y-99425000D03*
X179750000Y-99425000D03*
X180250000Y-99425000D03*
X180750000Y-99425000D03*
X181250000Y-99425000D03*
X181750000Y-99425000D03*
X182250000Y-99425000D03*
X182750000Y-99425000D03*
X183250000Y-99425000D03*
X183750000Y-99425000D03*
X184250000Y-99425000D03*
D48*
X186175000Y-97500000D03*
X186175000Y-97000000D03*
X186175000Y-96500000D03*
X186175000Y-96000000D03*
X186175000Y-95500000D03*
X186175000Y-95000000D03*
X186175000Y-94500000D03*
X186175000Y-94000000D03*
X186175000Y-93500000D03*
X186175000Y-93000000D03*
X186175000Y-92500000D03*
X186175000Y-92000000D03*
X186175000Y-91500000D03*
X186175000Y-91000000D03*
X186175000Y-90500000D03*
X186175000Y-90000000D03*
D49*
X184250000Y-88075000D03*
X183750000Y-88075000D03*
X183250000Y-88075000D03*
X182750000Y-88075000D03*
X182250000Y-88075000D03*
X181750000Y-88075000D03*
X181250000Y-88075000D03*
X180750000Y-88075000D03*
X180250000Y-88075000D03*
X179750000Y-88075000D03*
X179250000Y-88075000D03*
X178750000Y-88075000D03*
X178250000Y-88075000D03*
X177750000Y-88075000D03*
X177250000Y-88075000D03*
X176750000Y-88075000D03*
D50*
X176577500Y-79000000D03*
X178402500Y-79000000D03*
D42*
X172480000Y-98500000D03*
X171520000Y-98500000D03*
D21*
X185540000Y-100000000D03*
X186500000Y-100000000D03*
D42*
X177980000Y-102500000D03*
X177020000Y-102500000D03*
D51*
X159500000Y-130500000D03*
D52*
X159500000Y-135500000D03*
D36*
X203000000Y-114500000D03*
X203000000Y-116150000D03*
D47*
X186510000Y-106500000D03*
X185490000Y-106500000D03*
D31*
X167500000Y-77980000D03*
X167500000Y-77020000D03*
D53*
X201500000Y-143500000D03*
D30*
X191980000Y-75500000D03*
X193000000Y-75500000D03*
D27*
X200990000Y-116020000D03*
X200990000Y-115000000D03*
D23*
X196500000Y-112725000D03*
X196500000Y-114275000D03*
D54*
X157500000Y-68480000D03*
X157500000Y-69440000D03*
D30*
X180490000Y-85000000D03*
X181510000Y-85000000D03*
D55*
X174000000Y-70500000D03*
X174000000Y-71520000D03*
D56*
X199500000Y-117500000D03*
X197600000Y-117500000D03*
D47*
X171000000Y-114000000D03*
X169980000Y-114000000D03*
D30*
X190490000Y-137500000D03*
X191510000Y-137500000D03*
D31*
X173000000Y-95980000D03*
X173000000Y-95020000D03*
D15*
X199500000Y-122000000D03*
X202500000Y-122000000D03*
D57*
X203250000Y-124050000D03*
X200250000Y-124050000D03*
X198750000Y-124050000D03*
D58*
X197250000Y-120850000D03*
X204750000Y-120850000D03*
X204750000Y-123150000D03*
X197250000Y-123150000D03*
D54*
X166500000Y-93500000D03*
X166500000Y-94460000D03*
D55*
X193000000Y-132990000D03*
X193000000Y-134010000D03*
D21*
X185040000Y-81500000D03*
X186000000Y-81500000D03*
D53*
X195500000Y-41500000D03*
D59*
X188100000Y-100000000D03*
X190000000Y-100000000D03*
D60*
X178071238Y-121704998D03*
X178571238Y-121704998D03*
X179071238Y-121704998D03*
X179571238Y-121704998D03*
X180071238Y-121704998D03*
X180571238Y-121704998D03*
X181071238Y-121704998D03*
D61*
X181486238Y-122869998D03*
D60*
X181071238Y-124034998D03*
X180571238Y-124034998D03*
X180071238Y-124034998D03*
X179571238Y-124034998D03*
X179071238Y-124034998D03*
X178571238Y-124034998D03*
X178071238Y-124034998D03*
D61*
X177656238Y-122869998D03*
D27*
X189500000Y-125510000D03*
X189500000Y-124490000D03*
D62*
X189907800Y-128560200D03*
X189907800Y-130439800D03*
X192092200Y-129500000D03*
D54*
X158500000Y-68500000D03*
X158500000Y-69460000D03*
D42*
X180051238Y-120369998D03*
X179091238Y-120369998D03*
D63*
X158500000Y-97120000D03*
D64*
X158500000Y-94580000D03*
X158500000Y-92040000D03*
X158500000Y-89500000D03*
D65*
X201500000Y-133500000D03*
D52*
X201500000Y-128500000D03*
D66*
X197500000Y-84600000D03*
X197500000Y-82300000D03*
D67*
X191200000Y-82300000D03*
D66*
X197500000Y-80000000D03*
D21*
X176520000Y-86000000D03*
X177480000Y-86000000D03*
D42*
X173980000Y-58525000D03*
X173020000Y-58525000D03*
D15*
X158500000Y-123500000D03*
X161500000Y-123500000D03*
D57*
X162250000Y-125550000D03*
X159250000Y-125550000D03*
X157750000Y-125550000D03*
D58*
X156250000Y-122350000D03*
X163750000Y-122350000D03*
X163750000Y-124650000D03*
X156250000Y-124650000D03*
D20*
X173275000Y-87500000D03*
X171725000Y-87500000D03*
D68*
X160030000Y-78000000D03*
X160030000Y-78500000D03*
X160030000Y-79000000D03*
X160030000Y-79500000D03*
X160030000Y-80000000D03*
D69*
X161000000Y-80470000D03*
X161500000Y-80470000D03*
X162000000Y-80470000D03*
D68*
X162970000Y-80000000D03*
X162970000Y-79500000D03*
X162970000Y-79000000D03*
X162970000Y-78500000D03*
X162970000Y-78000000D03*
D69*
X162000000Y-77530000D03*
X161500000Y-77530000D03*
X161000000Y-77530000D03*
D70*
X192180000Y-76500000D03*
X192820000Y-76500000D03*
D45*
X198450000Y-55850000D03*
X198450000Y-53850000D03*
D46*
X204000000Y-58200000D03*
X204000000Y-51500000D03*
D31*
X175000000Y-61980000D03*
X175000000Y-61020000D03*
D30*
X188480000Y-102000000D03*
X189500000Y-102000000D03*
D71*
X193500000Y-104500000D03*
X193500000Y-104000000D03*
X193500000Y-103500000D03*
X193500000Y-103000000D03*
X193500000Y-102500000D03*
X191510000Y-102500000D03*
X191510000Y-103000000D03*
X191510000Y-103500000D03*
X191510000Y-104000000D03*
X191510000Y-104500000D03*
D72*
X192505000Y-103500000D03*
D42*
X173980000Y-89000000D03*
X173020000Y-89000000D03*
X172980000Y-93000000D03*
X172020000Y-93000000D03*
D27*
X167000000Y-117010000D03*
X167000000Y-115990000D03*
D42*
X160000000Y-64500000D03*
X159040000Y-64500000D03*
D54*
X161812500Y-70500000D03*
X161812500Y-71460000D03*
D70*
X187335000Y-106500000D03*
X187975000Y-106500000D03*
D31*
X166500000Y-91000000D03*
X166500000Y-90040000D03*
D30*
X167990000Y-100500000D03*
X169010000Y-100500000D03*
D73*
X157500000Y-119150000D03*
X157500000Y-117500000D03*
D42*
X184500000Y-101000000D03*
X183540000Y-101000000D03*
D74*
X189500000Y-104500000D03*
X187925000Y-104500000D03*
D53*
X159500000Y-143500000D03*
M02*
