G04 #@! TF.GenerationSoftware,KiCad,Pcbnew,9.0.4*
G04 #@! TF.CreationDate,2025-12-10T12:01:20-06:00*
G04 #@! TF.ProjectId,flightcompv2,666c6967-6874-4636-9f6d-7076322e6b69,rev?*
G04 #@! TF.SameCoordinates,Original*
G04 #@! TF.FileFunction,Copper,L5,Inr*
G04 #@! TF.FilePolarity,Positive*
%FSLAX46Y46*%
G04 Gerber Fmt 4.6, Leading zero omitted, Abs format (unit mm)*
G04 Created by KiCad (PCBNEW 9.0.4) date 2025-12-10 12:01:20*
%MOMM*%
%LPD*%
G01*
G04 APERTURE LIST*
G04 Aperture macros list*
%AMFreePoly0*
4,1,123,1.203536,0.953536,1.205000,0.950000,1.205000,-0.950000,1.203536,-0.953536,1.200000,-0.955000,-0.100000,-0.955000,-0.100192,-0.954996,-0.126192,-0.953996,-0.126383,-0.953985,-0.152383,-0.951985,-0.152573,-0.951967,-0.178573,-0.948967,-0.178944,-0.948910,-0.204944,-0.943910,-0.205167,-0.943862,-0.230167,-0.937862,-0.230300,-0.937828,-0.256300,-0.930828,-0.256756,-0.930682,-0.280756,-0.921682,
-0.280923,-0.921615,-0.304923,-0.911615,-0.305083,-0.911545,-0.329083,-0.900545,-0.329460,-0.900353,-0.352460,-0.887353,-0.352684,-0.887218,-0.396684,-0.859218,-0.397030,-0.858977,-0.418030,-0.842977,-0.418238,-0.842810,-0.438238,-0.825810,-0.438439,-0.825630,-0.457439,-0.807630,-0.457630,-0.807439,-0.475630,-0.788439,-0.475810,-0.788238,-0.492810,-0.768238,-0.492977,-0.768030,-0.508977,-0.747030,
-0.509218,-0.746684,-0.537218,-0.702684,-0.537353,-0.702460,-0.550353,-0.679460,-0.550545,-0.679083,-0.561545,-0.655083,-0.561615,-0.654923,-0.571615,-0.630923,-0.571682,-0.630756,-0.580682,-0.606756,-0.580828,-0.606300,-0.587828,-0.580300,-0.587862,-0.580167,-0.593862,-0.555167,-0.593910,-0.554944,-0.598910,-0.528944,-0.598967,-0.528573,-0.601967,-0.502573,-0.601985,-0.502383,-0.603985,-0.476383,
-0.603996,-0.476192,-0.604996,-0.450192,-0.605000,-0.450000,-0.605000,0.450000,-0.604996,0.450192,-0.603996,0.476192,-0.603985,0.476383,-0.601985,0.502383,-0.601967,0.502573,-0.598967,0.528573,-0.598910,0.528944,-0.593910,0.554944,-0.593862,0.555167,-0.587862,0.580167,-0.587828,0.580300,-0.580828,0.606300,-0.580682,0.606756,-0.571682,0.630756,-0.571615,0.630923,-0.561615,0.654923,
-0.561545,0.655083,-0.550545,0.679083,-0.550353,0.679460,-0.537353,0.702460,-0.537218,0.702684,-0.509218,0.746684,-0.508977,0.747030,-0.492977,0.768030,-0.492810,0.768238,-0.475810,0.788238,-0.475630,0.788439,-0.457630,0.807439,-0.457439,0.807630,-0.438439,0.825630,-0.438238,0.825810,-0.418238,0.842810,-0.418030,0.842977,-0.397030,0.858977,-0.396684,0.859218,-0.352684,0.887218,
-0.352460,0.887353,-0.329460,0.900353,-0.329083,0.900545,-0.305083,0.911545,-0.304923,0.911615,-0.280923,0.921615,-0.280756,0.921682,-0.256756,0.930682,-0.256300,0.930828,-0.230300,0.937828,-0.230167,0.937862,-0.205167,0.943862,-0.204944,0.943910,-0.178944,0.948910,-0.178573,0.948967,-0.152573,0.951967,-0.152383,0.951985,-0.126383,0.953985,-0.126192,0.953996,-0.100192,0.954996,
-0.100000,0.955000,1.200000,0.955000,1.203536,0.953536,1.203536,0.953536,$1*%
%AMFreePoly1*
4,1,123,0.100192,0.954996,0.126192,0.953996,0.126383,0.953985,0.152383,0.951985,0.152573,0.951967,0.178573,0.948967,0.178944,0.948910,0.204944,0.943910,0.205167,0.943862,0.230167,0.937862,0.230300,0.937828,0.256300,0.930828,0.256756,0.930682,0.280756,0.921682,0.280923,0.921615,0.304923,0.911615,0.305083,0.911545,0.329083,0.900545,0.329460,0.900353,0.352460,0.887353,
0.352684,0.887218,0.396684,0.859218,0.397030,0.858977,0.418030,0.842977,0.418238,0.842810,0.438238,0.825810,0.438439,0.825630,0.457439,0.807630,0.457630,0.807439,0.475630,0.788439,0.475810,0.788238,0.492810,0.768238,0.492977,0.768030,0.508977,0.747030,0.509218,0.746684,0.537218,0.702684,0.537353,0.702460,0.550353,0.679460,0.550545,0.679083,0.561545,0.655083,
0.561615,0.654923,0.571615,0.630923,0.571682,0.630756,0.580682,0.606756,0.580828,0.606300,0.587828,0.580300,0.587862,0.580167,0.593862,0.555167,0.593910,0.554944,0.598910,0.528944,0.598967,0.528573,0.601967,0.502573,0.601985,0.502383,0.603985,0.476383,0.603996,0.476192,0.604996,0.450192,0.605000,0.450000,0.605000,-0.450000,0.604996,-0.450192,0.603996,-0.476192,
0.603985,-0.476383,0.601985,-0.502383,0.601967,-0.502573,0.598967,-0.528573,0.598910,-0.528944,0.593910,-0.554944,0.593862,-0.555167,0.587862,-0.580167,0.587828,-0.580300,0.580828,-0.606300,0.580682,-0.606756,0.571682,-0.630756,0.571615,-0.630923,0.561615,-0.654923,0.561545,-0.655083,0.550545,-0.679083,0.550353,-0.679460,0.537353,-0.702460,0.537218,-0.702684,0.509218,-0.746684,
0.508977,-0.747030,0.492977,-0.768030,0.492810,-0.768238,0.475810,-0.788238,0.475630,-0.788439,0.457630,-0.807439,0.457439,-0.807630,0.438439,-0.825630,0.438238,-0.825810,0.418238,-0.842810,0.418030,-0.842977,0.397030,-0.858977,0.396684,-0.859218,0.352684,-0.887218,0.352460,-0.887353,0.329460,-0.900353,0.329083,-0.900545,0.305083,-0.911545,0.304923,-0.911615,0.280923,-0.921615,
0.280756,-0.921682,0.256756,-0.930682,0.256300,-0.930828,0.230300,-0.937828,0.230167,-0.937862,0.205167,-0.943862,0.204944,-0.943910,0.178944,-0.948910,0.178573,-0.948967,0.152573,-0.951967,0.152383,-0.951985,0.126383,-0.953985,0.126192,-0.953996,0.100192,-0.954996,0.100000,-0.955000,-1.200000,-0.955000,-1.203536,-0.953536,-1.205000,-0.950000,-1.205000,0.950000,-1.203536,0.953536,
-1.200000,0.955000,0.100000,0.955000,0.100192,0.954996,0.100192,0.954996,$1*%
G04 Aperture macros list end*
G04 #@! TA.AperFunction,ComponentPad*
%ADD10C,1.450000*%
G04 #@! TD*
G04 #@! TA.AperFunction,ComponentPad*
%ADD11FreePoly0,90.000000*%
G04 #@! TD*
G04 #@! TA.AperFunction,ComponentPad*
%ADD12FreePoly1,90.000000*%
G04 #@! TD*
G04 #@! TA.AperFunction,ComponentPad*
%ADD13R,1.650000X1.650000*%
G04 #@! TD*
G04 #@! TA.AperFunction,ComponentPad*
%ADD14C,1.650000*%
G04 #@! TD*
G04 #@! TA.AperFunction,ComponentPad*
%ADD15R,1.950000X1.950000*%
G04 #@! TD*
G04 #@! TA.AperFunction,ComponentPad*
%ADD16C,1.950000*%
G04 #@! TD*
G04 #@! TA.AperFunction,ComponentPad*
%ADD17R,1.700000X1.700000*%
G04 #@! TD*
G04 #@! TA.AperFunction,ComponentPad*
%ADD18C,1.700000*%
G04 #@! TD*
G04 #@! TA.AperFunction,ViaPad*
%ADD19C,0.600000*%
G04 #@! TD*
G04 #@! TA.AperFunction,ViaPad*
%ADD20C,0.400000*%
G04 #@! TD*
G04 #@! TA.AperFunction,ViaPad*
%ADD21C,0.800000*%
G04 #@! TD*
G04 #@! TA.AperFunction,ViaPad*
%ADD22C,1.000000*%
G04 #@! TD*
G04 #@! TA.AperFunction,ViaPad*
%ADD23C,0.700000*%
G04 #@! TD*
G04 #@! TA.AperFunction,Conductor*
%ADD24C,0.400000*%
G04 #@! TD*
G04 #@! TA.AperFunction,Conductor*
%ADD25C,0.300000*%
G04 #@! TD*
G04 #@! TA.AperFunction,Conductor*
%ADD26C,0.200000*%
G04 #@! TD*
G04 APERTURE END LIST*
D10*
X201975000Y-93500000D03*
X201975000Y-88500000D03*
D11*
X204675000Y-94500000D03*
D12*
X204675000Y-87500000D03*
D13*
X201195000Y-62000000D03*
D14*
X201195000Y-65500000D03*
X201195000Y-69000000D03*
X201195000Y-72500000D03*
D15*
X159500000Y-130500000D03*
D16*
X159500000Y-135500000D03*
D17*
X158500000Y-97120000D03*
D18*
X158500000Y-94580000D03*
X158500000Y-92040000D03*
X158500000Y-89500000D03*
D15*
X201500000Y-133500000D03*
D16*
X201500000Y-128500000D03*
D19*
X188000000Y-103000000D03*
D20*
X172000000Y-58500000D03*
D19*
X189000000Y-103000000D03*
D20*
X173500000Y-102000000D03*
X165900000Y-40400000D03*
X162500000Y-38500000D03*
D19*
X164446500Y-106500000D03*
X184500000Y-78500000D03*
D20*
X176500000Y-58000000D03*
D19*
X198000000Y-56000000D03*
D20*
X178500000Y-102500000D03*
D19*
X199500000Y-62500000D03*
X190014074Y-103000000D03*
D20*
X164000000Y-40400000D03*
D19*
X156500000Y-97000000D03*
X185000000Y-79000000D03*
D20*
X180071238Y-125704998D03*
D19*
X172500000Y-86500000D03*
X184000000Y-84500000D03*
X184500000Y-101000000D03*
D20*
X179071238Y-120204998D03*
X167980000Y-77020000D03*
D19*
X174000000Y-61000000D03*
X156500000Y-68000000D03*
X176500000Y-85000000D03*
D20*
X186500000Y-89000000D03*
X160000000Y-70000000D03*
X157000000Y-45000000D03*
X176000000Y-86000000D03*
D19*
X184500000Y-79500000D03*
D20*
X157500000Y-47000000D03*
D19*
X197000000Y-94610000D03*
D20*
X194510000Y-91500000D03*
D21*
X200000000Y-92305000D03*
D19*
X198851000Y-81351000D03*
D21*
X185000000Y-109500000D03*
X166950001Y-111000000D03*
D19*
X184000000Y-82000000D03*
D20*
X180100000Y-79700000D03*
X182500000Y-103500000D03*
X184000000Y-95000000D03*
X181000000Y-84000000D03*
X176646446Y-93853554D03*
X184500000Y-89500000D03*
X188000000Y-94500000D03*
X184000000Y-104500000D03*
X172500000Y-145578400D03*
X177500000Y-89500000D03*
X181362139Y-89134078D03*
X173500001Y-145578400D03*
X174499999Y-145578400D03*
X179896446Y-94603554D03*
X169995675Y-100495675D03*
X178500000Y-89500000D03*
X189000000Y-136500000D03*
X180503000Y-103000000D03*
X187500000Y-95000000D03*
D19*
X187500000Y-113500000D03*
D20*
X192000000Y-124000000D03*
X199000000Y-125500000D03*
X174500000Y-114000000D03*
X188500000Y-98000000D03*
X182550000Y-86500000D03*
X176000000Y-81500000D03*
X174000000Y-81500000D03*
X174000000Y-83500000D03*
X185000000Y-96500000D03*
X173000000Y-81500000D03*
X175000000Y-81500000D03*
X180200000Y-86000000D03*
X185000000Y-95500000D03*
X166117811Y-72500000D03*
X173487858Y-97043543D03*
X175000000Y-104000000D03*
X176500000Y-105000000D03*
X177571238Y-121704998D03*
X181000000Y-125000000D03*
X176349000Y-122500000D03*
X177000000Y-127000000D03*
X175000000Y-122500000D03*
X177500000Y-97000000D03*
X179000000Y-123000000D03*
X178000000Y-108500000D03*
X180000000Y-121029998D03*
X173505142Y-97693316D03*
X179570860Y-124710290D03*
X176571238Y-123704998D03*
X173662454Y-96417428D03*
X180500000Y-123000000D03*
X182000000Y-104500000D03*
X182000000Y-121500000D03*
X180750000Y-89250000D03*
X179150000Y-85250000D03*
X178000000Y-59500000D03*
X161000000Y-81500000D03*
D19*
X178950437Y-83501983D03*
D20*
X165900000Y-53600000D03*
X179250000Y-86500000D03*
D19*
X179953205Y-83000000D03*
D20*
X179000000Y-62500000D03*
X170600000Y-48900000D03*
X177000000Y-92500000D03*
X176500000Y-97000000D03*
X162000000Y-55500000D03*
X177500000Y-90500000D03*
X162286800Y-81400000D03*
X178000000Y-101500000D03*
X171000000Y-91000000D03*
X171500000Y-105000000D03*
X171500000Y-131000000D03*
X170899997Y-93000000D03*
D19*
X172000000Y-125500000D03*
D20*
X177500000Y-60000000D03*
X183500000Y-81000000D03*
D19*
X197500000Y-84600000D03*
D20*
X178000000Y-86000000D03*
D19*
X190000000Y-100000000D03*
D20*
X175500000Y-57500000D03*
X188500000Y-89000000D03*
D19*
X186450000Y-100000000D03*
X198500000Y-113500000D03*
D20*
X171000000Y-98500000D03*
X167000000Y-118000000D03*
D19*
X202500000Y-76000000D03*
X180100000Y-77000000D03*
D20*
X162000000Y-67000000D03*
X160200000Y-53600000D03*
X177571238Y-119204998D03*
D19*
X161000000Y-111250001D03*
D21*
X162500000Y-112500000D03*
X163000000Y-110000000D03*
D19*
X175000000Y-61980000D03*
D20*
X171500000Y-100500000D03*
X180051238Y-120369998D03*
D19*
X157000000Y-70480000D03*
D20*
X171000000Y-95000000D03*
X191000000Y-91500000D03*
D19*
X199500000Y-89000000D03*
X171500000Y-86000000D03*
D20*
X157500000Y-66500000D03*
X174000000Y-71520000D03*
D19*
X167500000Y-94000000D03*
D22*
X198500000Y-102500000D03*
D20*
X188000000Y-133000000D03*
X194500000Y-102000000D03*
X170600000Y-50800000D03*
X168000000Y-55500000D03*
X167800000Y-40300000D03*
D21*
X157500000Y-119150000D03*
D20*
X176577500Y-79000000D03*
D19*
X196500000Y-114275000D03*
D20*
X177461538Y-58662500D03*
D19*
X164000000Y-102000000D03*
X166500000Y-139000000D03*
D20*
X155600000Y-42000000D03*
D19*
X189907800Y-130439800D03*
D23*
X192500000Y-148000000D03*
D20*
X171500000Y-93000000D03*
X165000000Y-79000000D03*
X158500000Y-64500000D03*
X168500000Y-38500000D03*
D19*
X198000000Y-54000000D03*
X192225000Y-106500000D03*
D20*
X187000000Y-81500000D03*
D19*
X193500000Y-105000000D03*
X181000000Y-77000000D03*
D20*
X190510000Y-101500000D03*
D19*
X171000000Y-41500000D03*
D20*
X162000000Y-72500000D03*
D19*
X164500000Y-113775000D03*
D20*
X157400000Y-50800000D03*
X189500000Y-125510000D03*
D19*
X185490000Y-106500000D03*
D20*
X161000000Y-68000000D03*
X185000000Y-76500000D03*
X176500000Y-102500000D03*
D19*
X197600000Y-117500000D03*
D20*
X179071238Y-125704998D03*
D19*
X156500000Y-89500000D03*
D20*
X170600000Y-43200000D03*
D21*
X197000000Y-96550000D03*
D19*
X182100000Y-79325000D03*
D20*
X160399997Y-81500000D03*
X194500000Y-103000000D03*
D19*
X163000000Y-89000000D03*
D20*
X160500000Y-38500000D03*
X193000000Y-75500000D03*
D19*
X177500000Y-77000000D03*
D20*
X165040000Y-64500000D03*
X168000000Y-78000000D03*
D19*
X198000000Y-111000000D03*
D20*
X191500000Y-101500000D03*
D19*
X200000000Y-112500000D03*
X188500000Y-84400000D03*
X183540000Y-101000000D03*
D20*
X161637380Y-81372524D03*
X157400000Y-48900000D03*
X188000000Y-92500000D03*
X188500000Y-93000000D03*
X201891550Y-44405050D03*
X183500000Y-97500000D03*
X175500000Y-84000000D03*
X172000000Y-94000000D03*
X201891550Y-46405049D03*
D22*
X204000000Y-117500000D03*
D21*
X159000000Y-117000000D03*
D20*
X171000000Y-94000000D03*
X201891550Y-45405051D03*
X169766060Y-78733937D03*
X183000000Y-95000000D03*
X201891550Y-47405050D03*
X182000000Y-65500000D03*
X182000000Y-74500000D03*
D24*
X197849000Y-90849000D02*
X198500000Y-91500000D01*
X199500000Y-82149000D02*
X199500000Y-87000000D01*
X194510000Y-91500000D02*
X198500000Y-91500000D01*
X198851000Y-81500000D02*
X199500000Y-82149000D01*
X199305000Y-92305000D02*
X198500000Y-91500000D01*
X197849000Y-88651000D02*
X197849000Y-90849000D01*
X199500000Y-87000000D02*
X197849000Y-88651000D01*
X199305000Y-92305000D02*
X200000000Y-92305000D01*
X199305000Y-92305000D02*
X197000000Y-94610000D01*
D25*
X198851000Y-81351000D02*
X198851000Y-81500000D01*
X180000000Y-81000000D02*
X180000000Y-79800000D01*
X180000000Y-79800000D02*
X180100000Y-79700000D01*
X182349000Y-83651000D02*
X184000000Y-82000000D01*
X182500000Y-103500000D02*
X182000000Y-103000000D01*
X182000000Y-103000000D02*
X182000000Y-84000000D01*
X182000000Y-84000000D02*
X182349000Y-83651000D01*
X182349000Y-83349000D02*
X180000000Y-81000000D01*
X182349000Y-83651000D02*
X182349000Y-83349000D01*
D26*
X173000000Y-107000000D02*
X172986858Y-106986858D01*
X173000000Y-143000000D02*
X173000000Y-107000000D01*
X172986858Y-106986858D02*
X172986858Y-94013142D01*
X172500000Y-143500000D02*
X173000000Y-143000000D01*
X172500000Y-145578400D02*
X172500000Y-143500000D01*
X172986858Y-94013142D02*
X177500000Y-89500000D01*
X173500001Y-145578400D02*
X173500000Y-145578399D01*
X174006142Y-106993858D02*
X174006142Y-97493858D01*
X173500000Y-107500000D02*
X174006142Y-106993858D01*
X173500000Y-145578399D02*
X173500000Y-107500000D01*
X181362139Y-90137861D02*
X181362139Y-89134078D01*
X174006142Y-97493858D02*
X181362139Y-90137861D01*
X174000000Y-107567100D02*
X174407142Y-107159958D01*
X174000000Y-145078401D02*
X174000000Y-107567100D01*
X174407142Y-107159958D02*
X174407142Y-98092858D01*
X174407142Y-98092858D02*
X177896446Y-94603554D01*
X174499999Y-145578400D02*
X174000000Y-145078401D01*
X177896446Y-94603554D02*
X179896446Y-94603554D01*
D25*
X174500000Y-113220768D02*
X185169768Y-102551000D01*
X188500000Y-99279232D02*
X188500000Y-98000000D01*
X185169768Y-102551000D02*
X185228232Y-102551000D01*
X174500000Y-114000000D02*
X174500000Y-113220768D01*
X185228232Y-102551000D02*
X188500000Y-99279232D01*
D26*
X177000000Y-127000000D02*
X175000000Y-125000000D01*
X175000000Y-125000000D02*
X175000000Y-122500000D01*
X180500000Y-123000000D02*
X182000000Y-121500000D01*
X165900000Y-53600000D02*
X165900000Y-57400000D01*
X178250000Y-69750000D02*
X179000000Y-70500000D01*
X161000000Y-82000000D02*
X161500000Y-82500000D01*
X179250000Y-85500000D02*
X179250000Y-85350000D01*
X179250000Y-85500000D02*
X179250000Y-85250000D01*
X178510000Y-82500000D02*
X179000000Y-82990000D01*
X179250000Y-86500000D02*
X179250000Y-85500000D01*
X178000000Y-69500000D02*
X178250000Y-69750000D01*
X179000000Y-82990000D02*
X178950437Y-83039563D01*
X161000000Y-81500000D02*
X161000000Y-82000000D01*
X179000000Y-70500000D02*
X179000000Y-82990000D01*
X178000000Y-59500000D02*
X178000000Y-69500000D01*
X179250000Y-85350000D02*
X179150000Y-85250000D01*
X165900000Y-57400000D02*
X178250000Y-69750000D01*
X161500000Y-82500000D02*
X178510000Y-82500000D01*
X178950437Y-83039563D02*
X178950437Y-83501983D01*
X179500000Y-82546795D02*
X179500000Y-63000000D01*
X170600000Y-48900000D02*
X177900000Y-48900000D01*
X177900000Y-48900000D02*
X179500000Y-50500000D01*
X179953205Y-83000000D02*
X179500000Y-82546795D01*
X179500000Y-50500000D02*
X179500000Y-63000000D01*
D25*
X179000000Y-62500000D02*
X179500000Y-63000000D01*
D26*
X171000000Y-105500000D02*
X171500000Y-105000000D01*
X171500000Y-131000000D02*
X171000000Y-130500000D01*
X171000000Y-130500000D02*
X171000000Y-105500000D01*
D25*
X167800000Y-40400000D02*
X167800000Y-40300000D01*
X167800000Y-38700000D02*
X168000000Y-38500000D01*
X168000000Y-38500000D02*
X168500000Y-38500000D01*
X167800000Y-40300000D02*
X167800000Y-38700000D01*
X170600000Y-41900000D02*
X170600000Y-43200000D01*
X171000000Y-41500000D02*
X170600000Y-41900000D01*
D26*
X188500000Y-91000000D02*
X198300000Y-81200000D01*
X188500000Y-93000000D02*
X188500000Y-91000000D01*
X198300000Y-81122768D02*
X198622768Y-80800000D01*
X198622768Y-80800000D02*
X198700000Y-80800000D01*
X199500000Y-80000000D02*
X199500000Y-70695000D01*
X199500000Y-70695000D02*
X201195000Y-69000000D01*
X198300000Y-81200000D02*
X198300000Y-81122768D01*
X198700000Y-80800000D02*
X199500000Y-80000000D01*
X183500000Y-93362189D02*
X183500000Y-97500000D01*
X197449000Y-46551000D02*
X197449000Y-79413189D01*
X201891550Y-44405050D02*
X199594950Y-44405050D01*
X199594950Y-44405050D02*
X197449000Y-46551000D01*
X197449000Y-79413189D02*
X183500000Y-93362189D01*
X175500000Y-90500000D02*
X175500000Y-84000000D01*
X172000000Y-94000000D02*
X175500000Y-90500000D01*
M02*
