G04 #@! TF.GenerationSoftware,KiCad,Pcbnew,9.0.4*
G04 #@! TF.CreationDate,2025-12-10T12:01:20-06:00*
G04 #@! TF.ProjectId,flightcompv2,666c6967-6874-4636-9f6d-7076322e6b69,rev?*
G04 #@! TF.SameCoordinates,Original*
G04 #@! TF.FileFunction,Legend,Top*
G04 #@! TF.FilePolarity,Positive*
%FSLAX46Y46*%
G04 Gerber Fmt 4.6, Leading zero omitted, Abs format (unit mm)*
G04 Created by KiCad (PCBNEW 9.0.4) date 2025-12-10 12:01:20*
%MOMM*%
%LPD*%
G01*
G04 APERTURE LIST*
%ADD10C,0.100000*%
%ADD11C,0.150000*%
%ADD12C,0.500000*%
%ADD13C,0.127000*%
%ADD14C,0.200000*%
%ADD15C,0.120000*%
%ADD16C,0.152400*%
%ADD17C,0.508000*%
%ADD18C,0.170000*%
%ADD19C,0.052000*%
%ADD20C,0.140000*%
G04 APERTURE END LIST*
D10*
X194946741Y-53957419D02*
X194899122Y-53933609D01*
X194899122Y-53933609D02*
X194827693Y-53933609D01*
X194827693Y-53933609D02*
X194756265Y-53957419D01*
X194756265Y-53957419D02*
X194708646Y-54005038D01*
X194708646Y-54005038D02*
X194684836Y-54052657D01*
X194684836Y-54052657D02*
X194661027Y-54147895D01*
X194661027Y-54147895D02*
X194661027Y-54219323D01*
X194661027Y-54219323D02*
X194684836Y-54314561D01*
X194684836Y-54314561D02*
X194708646Y-54362180D01*
X194708646Y-54362180D02*
X194756265Y-54409800D01*
X194756265Y-54409800D02*
X194827693Y-54433609D01*
X194827693Y-54433609D02*
X194875312Y-54433609D01*
X194875312Y-54433609D02*
X194946741Y-54409800D01*
X194946741Y-54409800D02*
X194970550Y-54385990D01*
X194970550Y-54385990D02*
X194970550Y-54219323D01*
X194970550Y-54219323D02*
X194875312Y-54219323D01*
X195184836Y-54433609D02*
X195184836Y-53933609D01*
X195184836Y-53933609D02*
X195470550Y-54433609D01*
X195470550Y-54433609D02*
X195470550Y-53933609D01*
X195708646Y-54433609D02*
X195708646Y-53933609D01*
X195708646Y-53933609D02*
X195827694Y-53933609D01*
X195827694Y-53933609D02*
X195899122Y-53957419D01*
X195899122Y-53957419D02*
X195946741Y-54005038D01*
X195946741Y-54005038D02*
X195970551Y-54052657D01*
X195970551Y-54052657D02*
X195994360Y-54147895D01*
X195994360Y-54147895D02*
X195994360Y-54219323D01*
X195994360Y-54219323D02*
X195970551Y-54314561D01*
X195970551Y-54314561D02*
X195946741Y-54362180D01*
X195946741Y-54362180D02*
X195899122Y-54409800D01*
X195899122Y-54409800D02*
X195827694Y-54433609D01*
X195827694Y-54433609D02*
X195708646Y-54433609D01*
X199161027Y-44909800D02*
X199232455Y-44933609D01*
X199232455Y-44933609D02*
X199351503Y-44933609D01*
X199351503Y-44933609D02*
X199399122Y-44909800D01*
X199399122Y-44909800D02*
X199422931Y-44885990D01*
X199422931Y-44885990D02*
X199446741Y-44838371D01*
X199446741Y-44838371D02*
X199446741Y-44790752D01*
X199446741Y-44790752D02*
X199422931Y-44743133D01*
X199422931Y-44743133D02*
X199399122Y-44719323D01*
X199399122Y-44719323D02*
X199351503Y-44695514D01*
X199351503Y-44695514D02*
X199256265Y-44671704D01*
X199256265Y-44671704D02*
X199208646Y-44647895D01*
X199208646Y-44647895D02*
X199184836Y-44624085D01*
X199184836Y-44624085D02*
X199161027Y-44576466D01*
X199161027Y-44576466D02*
X199161027Y-44528847D01*
X199161027Y-44528847D02*
X199184836Y-44481228D01*
X199184836Y-44481228D02*
X199208646Y-44457419D01*
X199208646Y-44457419D02*
X199256265Y-44433609D01*
X199256265Y-44433609D02*
X199375312Y-44433609D01*
X199375312Y-44433609D02*
X199446741Y-44457419D01*
X199946740Y-44885990D02*
X199922931Y-44909800D01*
X199922931Y-44909800D02*
X199851502Y-44933609D01*
X199851502Y-44933609D02*
X199803883Y-44933609D01*
X199803883Y-44933609D02*
X199732455Y-44909800D01*
X199732455Y-44909800D02*
X199684836Y-44862180D01*
X199684836Y-44862180D02*
X199661026Y-44814561D01*
X199661026Y-44814561D02*
X199637217Y-44719323D01*
X199637217Y-44719323D02*
X199637217Y-44647895D01*
X199637217Y-44647895D02*
X199661026Y-44552657D01*
X199661026Y-44552657D02*
X199684836Y-44505038D01*
X199684836Y-44505038D02*
X199732455Y-44457419D01*
X199732455Y-44457419D02*
X199803883Y-44433609D01*
X199803883Y-44433609D02*
X199851502Y-44433609D01*
X199851502Y-44433609D02*
X199922931Y-44457419D01*
X199922931Y-44457419D02*
X199946740Y-44481228D01*
X200399121Y-44933609D02*
X200161026Y-44933609D01*
X200161026Y-44933609D02*
X200161026Y-44433609D01*
X200565788Y-44933609D02*
X200565788Y-44433609D01*
X200851502Y-44933609D02*
X200637217Y-44647895D01*
X200851502Y-44433609D02*
X200565788Y-44719323D01*
X194637217Y-55933609D02*
X194946741Y-55933609D01*
X194946741Y-55933609D02*
X194780074Y-56124085D01*
X194780074Y-56124085D02*
X194851503Y-56124085D01*
X194851503Y-56124085D02*
X194899122Y-56147895D01*
X194899122Y-56147895D02*
X194922931Y-56171704D01*
X194922931Y-56171704D02*
X194946741Y-56219323D01*
X194946741Y-56219323D02*
X194946741Y-56338371D01*
X194946741Y-56338371D02*
X194922931Y-56385990D01*
X194922931Y-56385990D02*
X194899122Y-56409800D01*
X194899122Y-56409800D02*
X194851503Y-56433609D01*
X194851503Y-56433609D02*
X194708646Y-56433609D01*
X194708646Y-56433609D02*
X194661027Y-56409800D01*
X194661027Y-56409800D02*
X194637217Y-56385990D01*
X195161026Y-56385990D02*
X195184836Y-56409800D01*
X195184836Y-56409800D02*
X195161026Y-56433609D01*
X195161026Y-56433609D02*
X195137217Y-56409800D01*
X195137217Y-56409800D02*
X195161026Y-56385990D01*
X195161026Y-56385990D02*
X195161026Y-56433609D01*
X195351502Y-55933609D02*
X195661026Y-55933609D01*
X195661026Y-55933609D02*
X195494359Y-56124085D01*
X195494359Y-56124085D02*
X195565788Y-56124085D01*
X195565788Y-56124085D02*
X195613407Y-56147895D01*
X195613407Y-56147895D02*
X195637216Y-56171704D01*
X195637216Y-56171704D02*
X195661026Y-56219323D01*
X195661026Y-56219323D02*
X195661026Y-56338371D01*
X195661026Y-56338371D02*
X195637216Y-56385990D01*
X195637216Y-56385990D02*
X195613407Y-56409800D01*
X195613407Y-56409800D02*
X195565788Y-56433609D01*
X195565788Y-56433609D02*
X195422931Y-56433609D01*
X195422931Y-56433609D02*
X195375312Y-56409800D01*
X195375312Y-56409800D02*
X195351502Y-56385990D01*
X195827692Y-56100276D02*
X195946740Y-56433609D01*
X195946740Y-56433609D02*
X196065787Y-56100276D01*
D11*
X194417438Y-62139411D02*
X194369819Y-62234649D01*
X194369819Y-62234649D02*
X194369819Y-62377506D01*
X194369819Y-62377506D02*
X194417438Y-62520363D01*
X194417438Y-62520363D02*
X194512676Y-62615601D01*
X194512676Y-62615601D02*
X194607914Y-62663220D01*
X194607914Y-62663220D02*
X194798390Y-62710839D01*
X194798390Y-62710839D02*
X194941247Y-62710839D01*
X194941247Y-62710839D02*
X195131723Y-62663220D01*
X195131723Y-62663220D02*
X195226961Y-62615601D01*
X195226961Y-62615601D02*
X195322200Y-62520363D01*
X195322200Y-62520363D02*
X195369819Y-62377506D01*
X195369819Y-62377506D02*
X195369819Y-62282268D01*
X195369819Y-62282268D02*
X195322200Y-62139411D01*
X195322200Y-62139411D02*
X195274580Y-62091792D01*
X195274580Y-62091792D02*
X194941247Y-62091792D01*
X194941247Y-62091792D02*
X194941247Y-62282268D01*
X195369819Y-61663220D02*
X194369819Y-61663220D01*
X194369819Y-61663220D02*
X195369819Y-61091792D01*
X195369819Y-61091792D02*
X194369819Y-61091792D01*
X195369819Y-60615601D02*
X194369819Y-60615601D01*
X194369819Y-60615601D02*
X194369819Y-60377506D01*
X194369819Y-60377506D02*
X194417438Y-60234649D01*
X194417438Y-60234649D02*
X194512676Y-60139411D01*
X194512676Y-60139411D02*
X194607914Y-60091792D01*
X194607914Y-60091792D02*
X194798390Y-60044173D01*
X194798390Y-60044173D02*
X194941247Y-60044173D01*
X194941247Y-60044173D02*
X195131723Y-60091792D01*
X195131723Y-60091792D02*
X195226961Y-60139411D01*
X195226961Y-60139411D02*
X195322200Y-60234649D01*
X195322200Y-60234649D02*
X195369819Y-60377506D01*
X195369819Y-60377506D02*
X195369819Y-60615601D01*
D12*
G36*
X177894592Y-46320000D02*
G01*
X177279100Y-46320000D01*
X176814550Y-45100739D01*
X175147592Y-45100739D01*
X174704780Y-46320000D01*
X174127879Y-46320000D01*
X174764948Y-44663056D01*
X175298046Y-44663056D01*
X176652861Y-44663056D01*
X175959456Y-42835387D01*
X175298046Y-44663056D01*
X174764948Y-44663056D01*
X175672470Y-42302693D01*
X176254012Y-42302693D01*
X177894592Y-46320000D01*
G37*
G36*
X181179902Y-42787271D02*
G01*
X179854641Y-42787271D01*
X179854641Y-46320000D01*
X179306315Y-46320000D01*
X179306315Y-42787271D01*
X177991800Y-42787271D01*
X177991800Y-42302693D01*
X181179902Y-42302693D01*
X181179902Y-42787271D01*
G37*
G36*
X184230495Y-46320000D02*
G01*
X181736532Y-46320000D01*
X181736532Y-42302693D01*
X182282170Y-42302693D01*
X182282170Y-45835422D01*
X184230495Y-45835422D01*
X184230495Y-46320000D01*
G37*
G36*
X188156699Y-46320000D02*
G01*
X187541207Y-46320000D01*
X187076657Y-45100739D01*
X185409700Y-45100739D01*
X184966888Y-46320000D01*
X184389986Y-46320000D01*
X185027055Y-44663056D01*
X185560153Y-44663056D01*
X186914969Y-44663056D01*
X186221563Y-42835387D01*
X185560153Y-44663056D01*
X185027055Y-44663056D01*
X185934578Y-42302693D01*
X186516120Y-42302693D01*
X188156699Y-46320000D01*
G37*
G36*
X190097941Y-46382526D02*
G01*
X189746052Y-46364131D01*
X189450732Y-46312800D01*
X189203608Y-46233190D01*
X188997401Y-46128301D01*
X188826169Y-45999309D01*
X188640823Y-45794253D01*
X188506329Y-45563948D01*
X188419733Y-45303750D01*
X188382135Y-45006950D01*
X188908234Y-45006950D01*
X188949405Y-45229833D01*
X189025438Y-45411975D01*
X189134561Y-45561014D01*
X189278995Y-45681793D01*
X189507755Y-45799418D01*
X189770952Y-45872382D01*
X190076204Y-45897948D01*
X190366758Y-45875310D01*
X190600478Y-45812767D01*
X190788416Y-45715498D01*
X190908530Y-45613518D01*
X190991016Y-45499028D01*
X191040505Y-45369519D01*
X191057571Y-45220418D01*
X191039259Y-45065653D01*
X190987311Y-44939011D01*
X190902108Y-44834035D01*
X190778646Y-44747564D01*
X190583678Y-44662125D01*
X190274103Y-44564136D01*
X189811933Y-44453496D01*
X189358431Y-44330746D01*
X189039074Y-44193493D01*
X188822994Y-44047320D01*
X188691813Y-43907070D01*
X188598836Y-43747509D01*
X188541751Y-43564777D01*
X188521842Y-43353182D01*
X188546709Y-43118330D01*
X188619113Y-42910278D01*
X188739581Y-42722940D01*
X188913608Y-42552554D01*
X189116026Y-42420851D01*
X189352413Y-42323518D01*
X189628978Y-42261966D01*
X189953350Y-42240167D01*
X190294492Y-42262268D01*
X190586300Y-42324710D01*
X190836437Y-42423408D01*
X191051221Y-42556706D01*
X191234063Y-42729957D01*
X191367619Y-42933959D01*
X191454998Y-43174269D01*
X191494278Y-43459427D01*
X190962561Y-43459427D01*
X190912801Y-43233961D01*
X190822320Y-43057756D01*
X190691963Y-42920556D01*
X190515862Y-42817484D01*
X190282311Y-42749803D01*
X189975087Y-42724745D01*
X189685014Y-42746029D01*
X189462841Y-42803456D01*
X189294138Y-42890341D01*
X189158406Y-43015344D01*
X189080357Y-43159128D01*
X189053803Y-43328757D01*
X189076218Y-43482368D01*
X189139831Y-43602983D01*
X189246755Y-43698785D01*
X189383967Y-43768507D01*
X189614469Y-43848752D01*
X189973377Y-43939364D01*
X190478373Y-44062693D01*
X190822610Y-44170907D01*
X191023623Y-44262077D01*
X191203193Y-44380846D01*
X191363608Y-44528478D01*
X191486009Y-44702530D01*
X191562308Y-44915952D01*
X191589532Y-45179630D01*
X191563397Y-45429043D01*
X191487064Y-45651929D01*
X191359781Y-45854408D01*
X191175785Y-46040341D01*
X190961272Y-46185748D01*
X190714310Y-46292222D01*
X190428997Y-46359013D01*
X190097941Y-46382526D01*
G37*
D10*
X172446741Y-143933609D02*
X172161027Y-143933609D01*
X172303884Y-143933609D02*
X172303884Y-143433609D01*
X172303884Y-143433609D02*
X172256265Y-143505038D01*
X172256265Y-143505038D02*
X172208646Y-143552657D01*
X172208646Y-143552657D02*
X172161027Y-143576466D01*
X199184836Y-46933609D02*
X199184836Y-46433609D01*
X199184836Y-46433609D02*
X199351503Y-46790752D01*
X199351503Y-46790752D02*
X199518169Y-46433609D01*
X199518169Y-46433609D02*
X199518169Y-46933609D01*
X199851503Y-46433609D02*
X199946741Y-46433609D01*
X199946741Y-46433609D02*
X199994360Y-46457419D01*
X199994360Y-46457419D02*
X200041979Y-46505038D01*
X200041979Y-46505038D02*
X200065789Y-46600276D01*
X200065789Y-46600276D02*
X200065789Y-46766942D01*
X200065789Y-46766942D02*
X200041979Y-46862180D01*
X200041979Y-46862180D02*
X199994360Y-46909800D01*
X199994360Y-46909800D02*
X199946741Y-46933609D01*
X199946741Y-46933609D02*
X199851503Y-46933609D01*
X199851503Y-46933609D02*
X199803884Y-46909800D01*
X199803884Y-46909800D02*
X199756265Y-46862180D01*
X199756265Y-46862180D02*
X199732456Y-46766942D01*
X199732456Y-46766942D02*
X199732456Y-46600276D01*
X199732456Y-46600276D02*
X199756265Y-46505038D01*
X199756265Y-46505038D02*
X199803884Y-46457419D01*
X199803884Y-46457419D02*
X199851503Y-46433609D01*
X200256266Y-46909800D02*
X200327694Y-46933609D01*
X200327694Y-46933609D02*
X200446742Y-46933609D01*
X200446742Y-46933609D02*
X200494361Y-46909800D01*
X200494361Y-46909800D02*
X200518170Y-46885990D01*
X200518170Y-46885990D02*
X200541980Y-46838371D01*
X200541980Y-46838371D02*
X200541980Y-46790752D01*
X200541980Y-46790752D02*
X200518170Y-46743133D01*
X200518170Y-46743133D02*
X200494361Y-46719323D01*
X200494361Y-46719323D02*
X200446742Y-46695514D01*
X200446742Y-46695514D02*
X200351504Y-46671704D01*
X200351504Y-46671704D02*
X200303885Y-46647895D01*
X200303885Y-46647895D02*
X200280075Y-46624085D01*
X200280075Y-46624085D02*
X200256266Y-46576466D01*
X200256266Y-46576466D02*
X200256266Y-46528847D01*
X200256266Y-46528847D02*
X200280075Y-46481228D01*
X200280075Y-46481228D02*
X200303885Y-46457419D01*
X200303885Y-46457419D02*
X200351504Y-46433609D01*
X200351504Y-46433609D02*
X200470551Y-46433609D01*
X200470551Y-46433609D02*
X200541980Y-46457419D01*
X200756265Y-46933609D02*
X200756265Y-46433609D01*
X199970550Y-47885990D02*
X199946741Y-47909800D01*
X199946741Y-47909800D02*
X199875312Y-47933609D01*
X199875312Y-47933609D02*
X199827693Y-47933609D01*
X199827693Y-47933609D02*
X199756265Y-47909800D01*
X199756265Y-47909800D02*
X199708646Y-47862180D01*
X199708646Y-47862180D02*
X199684836Y-47814561D01*
X199684836Y-47814561D02*
X199661027Y-47719323D01*
X199661027Y-47719323D02*
X199661027Y-47647895D01*
X199661027Y-47647895D02*
X199684836Y-47552657D01*
X199684836Y-47552657D02*
X199708646Y-47505038D01*
X199708646Y-47505038D02*
X199756265Y-47457419D01*
X199756265Y-47457419D02*
X199827693Y-47433609D01*
X199827693Y-47433609D02*
X199875312Y-47433609D01*
X199875312Y-47433609D02*
X199946741Y-47457419D01*
X199946741Y-47457419D02*
X199970550Y-47481228D01*
X200161027Y-47909800D02*
X200232455Y-47933609D01*
X200232455Y-47933609D02*
X200351503Y-47933609D01*
X200351503Y-47933609D02*
X200399122Y-47909800D01*
X200399122Y-47909800D02*
X200422931Y-47885990D01*
X200422931Y-47885990D02*
X200446741Y-47838371D01*
X200446741Y-47838371D02*
X200446741Y-47790752D01*
X200446741Y-47790752D02*
X200422931Y-47743133D01*
X200422931Y-47743133D02*
X200399122Y-47719323D01*
X200399122Y-47719323D02*
X200351503Y-47695514D01*
X200351503Y-47695514D02*
X200256265Y-47671704D01*
X200256265Y-47671704D02*
X200208646Y-47647895D01*
X200208646Y-47647895D02*
X200184836Y-47624085D01*
X200184836Y-47624085D02*
X200161027Y-47576466D01*
X200161027Y-47576466D02*
X200161027Y-47528847D01*
X200161027Y-47528847D02*
X200184836Y-47481228D01*
X200184836Y-47481228D02*
X200208646Y-47457419D01*
X200208646Y-47457419D02*
X200256265Y-47433609D01*
X200256265Y-47433609D02*
X200375312Y-47433609D01*
X200375312Y-47433609D02*
X200446741Y-47457419D01*
X174137217Y-143433609D02*
X174446741Y-143433609D01*
X174446741Y-143433609D02*
X174280074Y-143624085D01*
X174280074Y-143624085D02*
X174351503Y-143624085D01*
X174351503Y-143624085D02*
X174399122Y-143647895D01*
X174399122Y-143647895D02*
X174422931Y-143671704D01*
X174422931Y-143671704D02*
X174446741Y-143719323D01*
X174446741Y-143719323D02*
X174446741Y-143838371D01*
X174446741Y-143838371D02*
X174422931Y-143885990D01*
X174422931Y-143885990D02*
X174399122Y-143909800D01*
X174399122Y-143909800D02*
X174351503Y-143933609D01*
X174351503Y-143933609D02*
X174208646Y-143933609D01*
X174208646Y-143933609D02*
X174161027Y-143909800D01*
X174161027Y-143909800D02*
X174137217Y-143885990D01*
X173161027Y-143481228D02*
X173184836Y-143457419D01*
X173184836Y-143457419D02*
X173232455Y-143433609D01*
X173232455Y-143433609D02*
X173351503Y-143433609D01*
X173351503Y-143433609D02*
X173399122Y-143457419D01*
X173399122Y-143457419D02*
X173422931Y-143481228D01*
X173422931Y-143481228D02*
X173446741Y-143528847D01*
X173446741Y-143528847D02*
X173446741Y-143576466D01*
X173446741Y-143576466D02*
X173422931Y-143647895D01*
X173422931Y-143647895D02*
X173137217Y-143933609D01*
X173137217Y-143933609D02*
X173446741Y-143933609D01*
D11*
X194369819Y-73758458D02*
X194369819Y-73139411D01*
X194369819Y-73139411D02*
X194750771Y-73472744D01*
X194750771Y-73472744D02*
X194750771Y-73329887D01*
X194750771Y-73329887D02*
X194798390Y-73234649D01*
X194798390Y-73234649D02*
X194846009Y-73187030D01*
X194846009Y-73187030D02*
X194941247Y-73139411D01*
X194941247Y-73139411D02*
X195179342Y-73139411D01*
X195179342Y-73139411D02*
X195274580Y-73187030D01*
X195274580Y-73187030D02*
X195322200Y-73234649D01*
X195322200Y-73234649D02*
X195369819Y-73329887D01*
X195369819Y-73329887D02*
X195369819Y-73615601D01*
X195369819Y-73615601D02*
X195322200Y-73710839D01*
X195322200Y-73710839D02*
X195274580Y-73758458D01*
X195274580Y-72710839D02*
X195322200Y-72663220D01*
X195322200Y-72663220D02*
X195369819Y-72710839D01*
X195369819Y-72710839D02*
X195322200Y-72758458D01*
X195322200Y-72758458D02*
X195274580Y-72710839D01*
X195274580Y-72710839D02*
X195369819Y-72710839D01*
X194369819Y-72329887D02*
X194369819Y-71710840D01*
X194369819Y-71710840D02*
X194750771Y-72044173D01*
X194750771Y-72044173D02*
X194750771Y-71901316D01*
X194750771Y-71901316D02*
X194798390Y-71806078D01*
X194798390Y-71806078D02*
X194846009Y-71758459D01*
X194846009Y-71758459D02*
X194941247Y-71710840D01*
X194941247Y-71710840D02*
X195179342Y-71710840D01*
X195179342Y-71710840D02*
X195274580Y-71758459D01*
X195274580Y-71758459D02*
X195322200Y-71806078D01*
X195322200Y-71806078D02*
X195369819Y-71901316D01*
X195369819Y-71901316D02*
X195369819Y-72187030D01*
X195369819Y-72187030D02*
X195322200Y-72282268D01*
X195322200Y-72282268D02*
X195274580Y-72329887D01*
X194369819Y-71425125D02*
X195369819Y-71091792D01*
X195369819Y-71091792D02*
X194369819Y-70758459D01*
D10*
X199184836Y-45933609D02*
X199184836Y-45433609D01*
X199184836Y-45433609D02*
X199351503Y-45790752D01*
X199351503Y-45790752D02*
X199518169Y-45433609D01*
X199518169Y-45433609D02*
X199518169Y-45933609D01*
X199756265Y-45933609D02*
X199756265Y-45433609D01*
X199970551Y-45909800D02*
X200041979Y-45933609D01*
X200041979Y-45933609D02*
X200161027Y-45933609D01*
X200161027Y-45933609D02*
X200208646Y-45909800D01*
X200208646Y-45909800D02*
X200232455Y-45885990D01*
X200232455Y-45885990D02*
X200256265Y-45838371D01*
X200256265Y-45838371D02*
X200256265Y-45790752D01*
X200256265Y-45790752D02*
X200232455Y-45743133D01*
X200232455Y-45743133D02*
X200208646Y-45719323D01*
X200208646Y-45719323D02*
X200161027Y-45695514D01*
X200161027Y-45695514D02*
X200065789Y-45671704D01*
X200065789Y-45671704D02*
X200018170Y-45647895D01*
X200018170Y-45647895D02*
X199994360Y-45624085D01*
X199994360Y-45624085D02*
X199970551Y-45576466D01*
X199970551Y-45576466D02*
X199970551Y-45528847D01*
X199970551Y-45528847D02*
X199994360Y-45481228D01*
X199994360Y-45481228D02*
X200018170Y-45457419D01*
X200018170Y-45457419D02*
X200065789Y-45433609D01*
X200065789Y-45433609D02*
X200184836Y-45433609D01*
X200184836Y-45433609D02*
X200256265Y-45457419D01*
X200565788Y-45433609D02*
X200661026Y-45433609D01*
X200661026Y-45433609D02*
X200708645Y-45457419D01*
X200708645Y-45457419D02*
X200756264Y-45505038D01*
X200756264Y-45505038D02*
X200780074Y-45600276D01*
X200780074Y-45600276D02*
X200780074Y-45766942D01*
X200780074Y-45766942D02*
X200756264Y-45862180D01*
X200756264Y-45862180D02*
X200708645Y-45909800D01*
X200708645Y-45909800D02*
X200661026Y-45933609D01*
X200661026Y-45933609D02*
X200565788Y-45933609D01*
X200565788Y-45933609D02*
X200518169Y-45909800D01*
X200518169Y-45909800D02*
X200470550Y-45862180D01*
X200470550Y-45862180D02*
X200446741Y-45766942D01*
X200446741Y-45766942D02*
X200446741Y-45600276D01*
X200446741Y-45600276D02*
X200470550Y-45505038D01*
X200470550Y-45505038D02*
X200518169Y-45457419D01*
X200518169Y-45457419D02*
X200565788Y-45433609D01*
D11*
X195369819Y-69091792D02*
X194893628Y-69425125D01*
X195369819Y-69663220D02*
X194369819Y-69663220D01*
X194369819Y-69663220D02*
X194369819Y-69282268D01*
X194369819Y-69282268D02*
X194417438Y-69187030D01*
X194417438Y-69187030D02*
X194465057Y-69139411D01*
X194465057Y-69139411D02*
X194560295Y-69091792D01*
X194560295Y-69091792D02*
X194703152Y-69091792D01*
X194703152Y-69091792D02*
X194798390Y-69139411D01*
X194798390Y-69139411D02*
X194846009Y-69187030D01*
X194846009Y-69187030D02*
X194893628Y-69282268D01*
X194893628Y-69282268D02*
X194893628Y-69663220D01*
X194369819Y-68758458D02*
X195369819Y-68091792D01*
X194369819Y-68091792D02*
X195369819Y-68758458D01*
D10*
X157494360Y-148515942D02*
X157470550Y-148477847D01*
X157470550Y-148477847D02*
X157422931Y-148439752D01*
X157422931Y-148439752D02*
X157375312Y-148439752D01*
X157375312Y-148439752D02*
X157327693Y-148477847D01*
X157327693Y-148477847D02*
X157303884Y-148515942D01*
X157303884Y-148515942D02*
X157280074Y-148592133D01*
X157280074Y-148592133D02*
X157280074Y-148668323D01*
X157280074Y-148668323D02*
X157303884Y-148744514D01*
X157303884Y-148744514D02*
X157327693Y-148782609D01*
X157327693Y-148782609D02*
X157375312Y-148820704D01*
X157375312Y-148820704D02*
X157422931Y-148820704D01*
X157422931Y-148820704D02*
X157470550Y-148782609D01*
X157470550Y-148782609D02*
X157494360Y-148744514D01*
X157494360Y-148439752D02*
X157494360Y-148744514D01*
X157494360Y-148744514D02*
X157518169Y-148782609D01*
X157518169Y-148782609D02*
X157541979Y-148782609D01*
X157541979Y-148782609D02*
X157589598Y-148744514D01*
X157589598Y-148744514D02*
X157613408Y-148668323D01*
X157613408Y-148668323D02*
X157613408Y-148477847D01*
X157613408Y-148477847D02*
X157565789Y-148363561D01*
X157565789Y-148363561D02*
X157494360Y-148287371D01*
X157494360Y-148287371D02*
X157399122Y-148249276D01*
X157399122Y-148249276D02*
X157303884Y-148287371D01*
X157303884Y-148287371D02*
X157232455Y-148363561D01*
X157232455Y-148363561D02*
X157184836Y-148477847D01*
X157184836Y-148477847D02*
X157161027Y-148630228D01*
X157161027Y-148630228D02*
X157184836Y-148782609D01*
X157184836Y-148782609D02*
X157232455Y-148896895D01*
X157232455Y-148896895D02*
X157303884Y-148973085D01*
X157303884Y-148973085D02*
X157399122Y-149011180D01*
X157399122Y-149011180D02*
X157494360Y-148973085D01*
X157494360Y-148973085D02*
X157565789Y-148896895D01*
X157803884Y-148858800D02*
X157851503Y-148896895D01*
X157851503Y-148896895D02*
X157946741Y-148896895D01*
X157946741Y-148896895D02*
X157994360Y-148858800D01*
X157994360Y-148858800D02*
X158018169Y-148782609D01*
X158018169Y-148782609D02*
X158018169Y-148744514D01*
X158018169Y-148744514D02*
X157994360Y-148668323D01*
X157994360Y-148668323D02*
X157946741Y-148630228D01*
X157946741Y-148630228D02*
X157875312Y-148630228D01*
X157875312Y-148630228D02*
X157827693Y-148592133D01*
X157827693Y-148592133D02*
X157803884Y-148515942D01*
X157803884Y-148515942D02*
X157803884Y-148477847D01*
X157803884Y-148477847D02*
X157827693Y-148401657D01*
X157827693Y-148401657D02*
X157875312Y-148363561D01*
X157875312Y-148363561D02*
X157946741Y-148363561D01*
X157946741Y-148363561D02*
X157994360Y-148401657D01*
X158232455Y-148896895D02*
X158232455Y-148096895D01*
X158446741Y-148896895D02*
X158446741Y-148477847D01*
X158446741Y-148477847D02*
X158422931Y-148401657D01*
X158422931Y-148401657D02*
X158375312Y-148363561D01*
X158375312Y-148363561D02*
X158303884Y-148363561D01*
X158303884Y-148363561D02*
X158256265Y-148401657D01*
X158256265Y-148401657D02*
X158232455Y-148439752D01*
X158899122Y-148896895D02*
X158899122Y-148477847D01*
X158899122Y-148477847D02*
X158875312Y-148401657D01*
X158875312Y-148401657D02*
X158827693Y-148363561D01*
X158827693Y-148363561D02*
X158732455Y-148363561D01*
X158732455Y-148363561D02*
X158684836Y-148401657D01*
X158899122Y-148858800D02*
X158851503Y-148896895D01*
X158851503Y-148896895D02*
X158732455Y-148896895D01*
X158732455Y-148896895D02*
X158684836Y-148858800D01*
X158684836Y-148858800D02*
X158661027Y-148782609D01*
X158661027Y-148782609D02*
X158661027Y-148706419D01*
X158661027Y-148706419D02*
X158684836Y-148630228D01*
X158684836Y-148630228D02*
X158732455Y-148592133D01*
X158732455Y-148592133D02*
X158851503Y-148592133D01*
X158851503Y-148592133D02*
X158899122Y-148554038D01*
X159137217Y-148896895D02*
X159137217Y-148363561D01*
X159137217Y-148515942D02*
X159161027Y-148439752D01*
X159161027Y-148439752D02*
X159184836Y-148401657D01*
X159184836Y-148401657D02*
X159232455Y-148363561D01*
X159232455Y-148363561D02*
X159280074Y-148363561D01*
X159446741Y-148896895D02*
X159446741Y-148096895D01*
X159494360Y-148592133D02*
X159637217Y-148896895D01*
X159637217Y-148363561D02*
X159446741Y-148668323D01*
X159851503Y-148820704D02*
X159875313Y-148858800D01*
X159875313Y-148858800D02*
X159851503Y-148896895D01*
X159851503Y-148896895D02*
X159827694Y-148858800D01*
X159827694Y-148858800D02*
X159851503Y-148820704D01*
X159851503Y-148820704D02*
X159851503Y-148896895D01*
X160065789Y-148858800D02*
X160113408Y-148896895D01*
X160113408Y-148896895D02*
X160208646Y-148896895D01*
X160208646Y-148896895D02*
X160256265Y-148858800D01*
X160256265Y-148858800D02*
X160280074Y-148782609D01*
X160280074Y-148782609D02*
X160280074Y-148744514D01*
X160280074Y-148744514D02*
X160256265Y-148668323D01*
X160256265Y-148668323D02*
X160208646Y-148630228D01*
X160208646Y-148630228D02*
X160137217Y-148630228D01*
X160137217Y-148630228D02*
X160089598Y-148592133D01*
X160089598Y-148592133D02*
X160065789Y-148515942D01*
X160065789Y-148515942D02*
X160065789Y-148477847D01*
X160065789Y-148477847D02*
X160089598Y-148401657D01*
X160089598Y-148401657D02*
X160137217Y-148363561D01*
X160137217Y-148363561D02*
X160208646Y-148363561D01*
X160208646Y-148363561D02*
X160256265Y-148401657D01*
X160446741Y-148363561D02*
X160565789Y-148896895D01*
X160684836Y-148363561D02*
X160565789Y-148896895D01*
X160565789Y-148896895D02*
X160518170Y-149087371D01*
X160518170Y-149087371D02*
X160494360Y-149125466D01*
X160494360Y-149125466D02*
X160446741Y-149163561D01*
X160851503Y-148858800D02*
X160899122Y-148896895D01*
X160899122Y-148896895D02*
X160994360Y-148896895D01*
X160994360Y-148896895D02*
X161041979Y-148858800D01*
X161041979Y-148858800D02*
X161065788Y-148782609D01*
X161065788Y-148782609D02*
X161065788Y-148744514D01*
X161065788Y-148744514D02*
X161041979Y-148668323D01*
X161041979Y-148668323D02*
X160994360Y-148630228D01*
X160994360Y-148630228D02*
X160922931Y-148630228D01*
X160922931Y-148630228D02*
X160875312Y-148592133D01*
X160875312Y-148592133D02*
X160851503Y-148515942D01*
X160851503Y-148515942D02*
X160851503Y-148477847D01*
X160851503Y-148477847D02*
X160875312Y-148401657D01*
X160875312Y-148401657D02*
X160922931Y-148363561D01*
X160922931Y-148363561D02*
X160994360Y-148363561D01*
X160994360Y-148363561D02*
X161041979Y-148401657D01*
D11*
X194369819Y-66306077D02*
X194369819Y-65734649D01*
X195369819Y-66020363D02*
X194369819Y-66020363D01*
X194369819Y-65496553D02*
X195369819Y-64829887D01*
X194369819Y-64829887D02*
X195369819Y-65496553D01*
D10*
X175399122Y-143600276D02*
X175399122Y-143933609D01*
X175280074Y-143409800D02*
X175161027Y-143766942D01*
X175161027Y-143766942D02*
X175470550Y-143766942D01*
D11*
X194677531Y-149332369D02*
X195442628Y-149332369D01*
X195185504Y-137378744D02*
X195950655Y-137378744D01*
X195568079Y-137761319D02*
X195568079Y-136996169D01*
D13*
X162242500Y-61500000D02*
X161382500Y-61500000D01*
X162242500Y-63000000D02*
X161382500Y-63000000D01*
D14*
X164412500Y-62250000D02*
G75*
G02*
X164212500Y-62250000I-100000J0D01*
G01*
X164212500Y-62250000D02*
G75*
G02*
X164412500Y-62250000I100000J0D01*
G01*
D15*
X160215001Y-115788748D02*
X160215001Y-116311252D01*
X161685001Y-115788748D02*
X161685001Y-116311252D01*
X158440001Y-112549721D02*
X158440001Y-112875279D01*
X159460001Y-112549721D02*
X159460001Y-112875279D01*
D14*
X158000000Y-102760000D02*
X159500000Y-102760000D01*
X158000000Y-104260000D02*
X158000000Y-102760000D01*
X159500000Y-102760000D02*
X159500000Y-101350000D01*
X159500000Y-104260000D02*
X158000000Y-104260000D01*
X159500000Y-107150000D02*
X159500000Y-104260000D01*
X160550000Y-107700000D02*
X161350000Y-107700000D01*
X161350000Y-100800000D02*
X160550000Y-100800000D01*
X162400000Y-104350000D02*
X162400000Y-102650000D01*
X161950000Y-102550000D02*
G75*
G02*
X161750000Y-102550000I-100000J0D01*
G01*
X161750000Y-102550000D02*
G75*
G02*
X161950000Y-102550000I100000J0D01*
G01*
D15*
X187765000Y-83188748D02*
X187765000Y-83711252D01*
X189235000Y-83188748D02*
X189235000Y-83711252D01*
D16*
X201382750Y-42780850D02*
X201382750Y-43767510D01*
X201382750Y-48042590D02*
X201382750Y-49029250D01*
X201382750Y-49029250D02*
X203182109Y-49029250D01*
X203182109Y-42780850D02*
X201382750Y-42780850D01*
X205243550Y-47775409D02*
X205243550Y-44034691D01*
D17*
X202272550Y-41002850D02*
G75*
G02*
X201510550Y-41002850I-381000J0D01*
G01*
X201510550Y-41002850D02*
G75*
G02*
X202272550Y-41002850I381000J0D01*
G01*
D15*
X193140580Y-105990000D02*
X192859420Y-105990000D01*
X193140580Y-107010000D02*
X192859420Y-107010000D01*
X163912164Y-64140000D02*
X164127836Y-64140000D01*
X163912164Y-64860000D02*
X164127836Y-64860000D01*
D13*
X194067500Y-89935000D02*
X192442500Y-89935000D01*
X194067500Y-93065000D02*
X192442500Y-93065000D01*
D14*
X190800000Y-90555000D02*
G75*
G02*
X190600000Y-90555000I-100000J0D01*
G01*
X190600000Y-90555000D02*
G75*
G02*
X190800000Y-90555000I100000J0D01*
G01*
D15*
X173490000Y-99337221D02*
X173490000Y-99662779D01*
X174510000Y-99337221D02*
X174510000Y-99662779D01*
X196490000Y-95634420D02*
X196490000Y-95915580D01*
X197510000Y-95634420D02*
X197510000Y-95915580D01*
X162440000Y-90040000D02*
X162440000Y-94160000D01*
X165860000Y-90040000D02*
X162440000Y-90040000D01*
D16*
X170875800Y-145069600D02*
X170875800Y-146868959D01*
X171862460Y-145069600D02*
X170875800Y-145069600D01*
X172129641Y-148930400D02*
X175870359Y-148930400D01*
X177124200Y-145069600D02*
X176137540Y-145069600D01*
X177124200Y-146868959D02*
X177124200Y-145069600D01*
D17*
X179283200Y-145578400D02*
G75*
G02*
X178521200Y-145578400I-381000J0D01*
G01*
X178521200Y-145578400D02*
G75*
G02*
X179283200Y-145578400I381000J0D01*
G01*
D15*
X186620000Y-120163641D02*
X186620000Y-119856359D01*
X187380000Y-120163641D02*
X187380000Y-119856359D01*
X202837221Y-110990000D02*
X203162779Y-110990000D01*
X202837221Y-112010000D02*
X203162779Y-112010000D01*
X162336359Y-139120000D02*
X162643641Y-139120000D01*
X162336359Y-139880000D02*
X162643641Y-139880000D01*
D11*
X199975000Y-92300000D02*
X200675000Y-92700000D01*
X200675000Y-91900000D02*
X199975000Y-92300000D01*
X200675000Y-92700000D02*
X200675000Y-91900000D01*
X201675000Y-87100000D02*
X201675000Y-87450000D01*
X201675000Y-94900000D02*
X201675000Y-94550000D01*
X203425000Y-87100000D02*
X201675000Y-87100000D01*
X203425000Y-94900000D02*
X201675000Y-94900000D01*
D15*
X184640000Y-77087836D02*
X184640000Y-76872164D01*
X185360000Y-77087836D02*
X185360000Y-76872164D01*
D13*
X187700000Y-139200000D02*
X190900000Y-139200000D01*
X187700000Y-146400000D02*
X187700000Y-139200000D01*
X187700000Y-146400000D02*
X190100000Y-148800000D01*
X190100000Y-148800000D02*
X190900000Y-148800000D01*
X194100000Y-148800000D02*
X197300000Y-148800000D01*
X197300000Y-139200000D02*
X194100000Y-139200000D01*
X197300000Y-139200000D02*
X197300000Y-148800000D01*
D18*
X160099999Y-110099998D02*
X159925001Y-110099998D01*
X160099999Y-112399998D02*
X159925001Y-112399998D01*
X162074999Y-110099998D02*
X161900001Y-110099998D01*
X162074999Y-112399998D02*
X161425000Y-112399998D01*
D16*
X170288800Y-126476000D02*
X170288800Y-127390400D01*
X170288800Y-128609600D02*
X170288800Y-129524000D01*
X170288800Y-129524000D02*
X170695200Y-129524000D01*
X170695200Y-129524000D02*
X171279400Y-129524000D01*
X171279400Y-126476000D02*
X170288800Y-126476000D01*
X170695200Y-129524000D02*
G75*
G02*
X171101600Y-129244601I301019J-2583D01*
G01*
D15*
X156927501Y-115087742D02*
X156927501Y-115562258D01*
X157972501Y-115087742D02*
X157972501Y-115562258D01*
D13*
X159811500Y-65600000D02*
X159811500Y-66311500D01*
X159811500Y-69400000D02*
X159811500Y-68688500D01*
X165188500Y-65600000D02*
X165188500Y-66311500D01*
X165188500Y-69400000D02*
X165188500Y-68688500D01*
D10*
X160300000Y-65100000D02*
G75*
G02*
X160200000Y-65100000I-50000J0D01*
G01*
X160200000Y-65100000D02*
G75*
G02*
X160300000Y-65100000I50000J0D01*
G01*
D15*
X165490000Y-77640580D02*
X165490000Y-77359420D01*
X166510000Y-77640580D02*
X166510000Y-77359420D01*
D14*
X197745000Y-60250000D02*
X205035000Y-60250000D01*
X197745000Y-74250000D02*
X197745000Y-60250000D01*
D10*
X201195000Y-59600000D02*
X201195000Y-59600000D01*
X201195000Y-59700000D02*
X201195000Y-59700000D01*
D14*
X205035000Y-60250000D02*
X205035000Y-74250000D01*
X205035000Y-74250000D02*
X197745000Y-74250000D01*
D10*
X201195000Y-59600000D02*
G75*
G02*
X201195000Y-59700000I0J-50000D01*
G01*
X201195000Y-59700000D02*
G75*
G02*
X201195000Y-59600000I0J50000D01*
G01*
D18*
X198975000Y-111249999D02*
X199624999Y-111249999D01*
X198975000Y-113549999D02*
X199149998Y-113549999D01*
X200950000Y-111249999D02*
X201124998Y-111249999D01*
X200950000Y-113549999D02*
X201124998Y-113549999D01*
D15*
X172127836Y-99640000D02*
X171912164Y-99640000D01*
X172127836Y-100360000D02*
X171912164Y-100360000D01*
D13*
X175250000Y-58262500D02*
X175542500Y-58262500D01*
X175250000Y-58305000D02*
X175250000Y-58262500D01*
X175250000Y-60262500D02*
X175250000Y-60220000D01*
X175542500Y-60262500D02*
X175250000Y-60262500D01*
X177250000Y-58262500D02*
X176957500Y-58262500D01*
X177250000Y-58262500D02*
X177250000Y-58305000D01*
X177250000Y-60220000D02*
X177250000Y-60262500D01*
X177250000Y-60262500D02*
X176957500Y-60262500D01*
D14*
X176100000Y-60850000D02*
G75*
G02*
X175900000Y-60850000I-100000J0D01*
G01*
X175900000Y-60850000D02*
G75*
G02*
X176100000Y-60850000I100000J0D01*
G01*
D15*
X163990000Y-112859420D02*
X163990000Y-113140580D01*
X165010000Y-112859420D02*
X165010000Y-113140580D01*
X187392164Y-88640000D02*
X187607836Y-88640000D01*
X187392164Y-89360000D02*
X187607836Y-89360000D01*
D19*
X195918000Y-104543000D02*
X195918000Y-104543000D01*
X195918000Y-104595000D02*
X195918000Y-104595000D01*
D14*
X198500000Y-99550000D02*
X198500000Y-101600000D01*
X198500000Y-99550000D02*
X201925000Y-99550000D01*
X198500000Y-107450000D02*
X198500000Y-105400000D01*
X198500000Y-107450000D02*
X201925000Y-107450000D01*
X205349000Y-105696000D02*
X205349000Y-101304000D01*
D19*
X195918000Y-104543000D02*
G75*
G02*
X195918000Y-104595000I0J-26000D01*
G01*
X195918000Y-104595000D02*
G75*
G02*
X195918000Y-104543000I0J26000D01*
G01*
D15*
X179378402Y-125509998D02*
X179594074Y-125509998D01*
X179378402Y-126229998D02*
X179594074Y-126229998D01*
X178143641Y-84620000D02*
X177836359Y-84620000D01*
X178143641Y-85380000D02*
X177836359Y-85380000D01*
X175390000Y-88640000D02*
X175390000Y-89590000D01*
X175390000Y-98860000D02*
X175390000Y-97910000D01*
X176340000Y-88640000D02*
X175390000Y-88640000D01*
X176340000Y-98860000D02*
X175390000Y-98860000D01*
X184660000Y-88640000D02*
X185610000Y-88640000D01*
X184660000Y-98860000D02*
X185610000Y-98860000D01*
X185610000Y-88640000D02*
X185610000Y-89590000D01*
X185610000Y-98860000D02*
X185610000Y-97910000D01*
X174775000Y-89590000D02*
X174435000Y-89120000D01*
X175115000Y-89120000D01*
X174775000Y-89590000D01*
G36*
X174775000Y-89590000D02*
G01*
X174435000Y-89120000D01*
X175115000Y-89120000D01*
X174775000Y-89590000D01*
G37*
X177262936Y-78265000D02*
X177717064Y-78265000D01*
X177262936Y-79735000D02*
X177717064Y-79735000D01*
X172107836Y-98140000D02*
X171892164Y-98140000D01*
X172107836Y-98860000D02*
X171892164Y-98860000D01*
X185912164Y-99640000D02*
X186127836Y-99640000D01*
X185912164Y-100360000D02*
X186127836Y-100360000D01*
X177607836Y-102140000D02*
X177392164Y-102140000D01*
X177607836Y-102860000D02*
X177392164Y-102860000D01*
D13*
X155450000Y-128000000D02*
X155450000Y-138000000D01*
X155450000Y-138000000D02*
X163600000Y-138000000D01*
X163600000Y-128000000D02*
X155450000Y-128000000D01*
X163600000Y-138000000D02*
X163600000Y-128000000D01*
D14*
X159600000Y-126900000D02*
G75*
G02*
X159400000Y-126900000I-100000J0D01*
G01*
X159400000Y-126900000D02*
G75*
G02*
X159600000Y-126900000I100000J0D01*
G01*
D15*
X202477500Y-115087742D02*
X202477500Y-115562258D01*
X203522500Y-115087742D02*
X203522500Y-115562258D01*
X186153641Y-106120000D02*
X185846359Y-106120000D01*
X186153641Y-106880000D02*
X185846359Y-106880000D01*
X167140000Y-77607836D02*
X167140000Y-77392164D01*
X167860000Y-77607836D02*
X167860000Y-77392164D01*
X192336359Y-75120000D02*
X192643641Y-75120000D01*
X192336359Y-75880000D02*
X192643641Y-75880000D01*
X200610000Y-115663641D02*
X200610000Y-115356359D01*
X201370000Y-115663641D02*
X201370000Y-115356359D01*
D13*
X156250000Y-39250000D02*
X156250000Y-42000000D01*
X156250000Y-39250000D02*
X159000000Y-39250000D01*
X156250000Y-54750000D02*
X156250000Y-52000000D01*
X156250000Y-54750000D02*
X159000000Y-54750000D01*
X171750000Y-39250000D02*
X169000000Y-39250000D01*
X171750000Y-39250000D02*
X171750000Y-42000000D01*
X171750000Y-54750000D02*
X169000000Y-54750000D01*
X171750000Y-54750000D02*
X171750000Y-52000000D01*
D14*
X155600000Y-43200000D02*
G75*
G02*
X155400000Y-43200000I-100000J0D01*
G01*
X155400000Y-43200000D02*
G75*
G02*
X155600000Y-43200000I100000J0D01*
G01*
D15*
X195990000Y-113359420D02*
X195990000Y-113640580D01*
X197010000Y-113359420D02*
X197010000Y-113640580D01*
X157140000Y-68852164D02*
X157140000Y-69067836D01*
X157860000Y-68852164D02*
X157860000Y-69067836D01*
X180846359Y-84620000D02*
X181153641Y-84620000D01*
X180846359Y-85380000D02*
X181153641Y-85380000D01*
X173620000Y-70856359D02*
X173620000Y-71163641D01*
X174380000Y-70856359D02*
X174380000Y-71163641D01*
X198811252Y-116765000D02*
X198288748Y-116765000D01*
X198811252Y-118235000D02*
X198288748Y-118235000D01*
X170643641Y-113620000D02*
X170336359Y-113620000D01*
X170643641Y-114380000D02*
X170336359Y-114380000D01*
X190846359Y-137120000D02*
X191153641Y-137120000D01*
X190846359Y-137880000D02*
X191153641Y-137880000D01*
X172640000Y-95607836D02*
X172640000Y-95392164D01*
X173360000Y-95607836D02*
X173360000Y-95392164D01*
D14*
X197550000Y-121600000D02*
X197550000Y-122400000D01*
X198100000Y-120550000D02*
X200990000Y-120550000D01*
X200900000Y-123450000D02*
X202600000Y-123450000D01*
X200990000Y-119050000D02*
X202490000Y-119050000D01*
X200990000Y-120550000D02*
X200990000Y-119050000D01*
X202490000Y-119050000D02*
X202490000Y-120550000D01*
X202490000Y-120550000D02*
X203900000Y-120550000D01*
X204450000Y-122400000D02*
X204450000Y-121600000D01*
X202800000Y-122900000D02*
G75*
G02*
X202600000Y-122900000I-100000J0D01*
G01*
X202600000Y-122900000D02*
G75*
G02*
X202800000Y-122900000I100000J0D01*
G01*
D15*
X166140000Y-93872164D02*
X166140000Y-94087836D01*
X166860000Y-93872164D02*
X166860000Y-94087836D01*
X192620000Y-133346359D02*
X192620000Y-133653641D01*
X193380000Y-133346359D02*
X193380000Y-133653641D01*
X185412164Y-81140000D02*
X185627836Y-81140000D01*
X185412164Y-81860000D02*
X185627836Y-81860000D01*
D13*
X180600000Y-77805000D02*
X180600000Y-77880000D01*
X180600000Y-77805000D02*
X183600000Y-77805000D01*
X180600000Y-80845000D02*
X180600000Y-80770000D01*
X180600000Y-80845000D02*
X183600000Y-80845000D01*
X183600000Y-77805000D02*
X183600000Y-77880000D01*
X183600000Y-80845000D02*
X183600000Y-80770000D01*
D14*
X179800000Y-78350000D02*
G75*
G02*
X179600000Y-78350000I-100000J0D01*
G01*
X179600000Y-78350000D02*
G75*
G02*
X179800000Y-78350000I100000J0D01*
G01*
D15*
X188788748Y-99265000D02*
X189311252Y-99265000D01*
X188788748Y-100735000D02*
X189311252Y-100735000D01*
D13*
X177321238Y-121369998D02*
X177571238Y-121369998D01*
X177321238Y-122369998D02*
X177321238Y-121369998D01*
X177321238Y-124369998D02*
X177321238Y-123369998D01*
X177571238Y-124369998D02*
X177321238Y-124369998D01*
X181821238Y-121369998D02*
X181571238Y-121369998D01*
X181821238Y-122369998D02*
X181821238Y-121369998D01*
X181821238Y-123369998D02*
X181821238Y-124369998D01*
X181821238Y-124369998D02*
X181571238Y-124369998D01*
D14*
X178042238Y-120769998D02*
G75*
G02*
X177842238Y-120769998I-100000J0D01*
G01*
X177842238Y-120769998D02*
G75*
G02*
X178042238Y-120769998I100000J0D01*
G01*
D15*
X189120000Y-125153641D02*
X189120000Y-124846359D01*
X189880000Y-125153641D02*
X189880000Y-124846359D01*
D16*
X190720600Y-131024000D02*
X191711200Y-131024000D01*
X191304800Y-127976000D02*
X190720600Y-127976000D01*
X191711200Y-127976000D02*
X191304800Y-127976000D01*
X191711200Y-128890400D02*
X191711200Y-127976000D01*
X191711200Y-131024000D02*
X191711200Y-130109600D01*
X191304800Y-127976000D02*
G75*
G02*
X190898400Y-128255399I-301019J2583D01*
G01*
D15*
X158140000Y-68872164D02*
X158140000Y-69087836D01*
X158860000Y-68872164D02*
X158860000Y-69087836D01*
X179679074Y-120009998D02*
X179463402Y-120009998D01*
X179679074Y-120729998D02*
X179463402Y-120729998D01*
X157120000Y-95850000D02*
X157120000Y-88120000D01*
X159880000Y-88120000D02*
X157120000Y-88120000D01*
X159880000Y-95850000D02*
X157120000Y-95850000D01*
X159880000Y-95850000D02*
X159880000Y-88120000D01*
X159880000Y-97120000D02*
X159880000Y-98500000D01*
X159880000Y-98500000D02*
X158500000Y-98500000D01*
D13*
X197400000Y-126000000D02*
X197400000Y-136000000D01*
X197400000Y-136000000D02*
X205550000Y-136000000D01*
X205550000Y-126000000D02*
X197400000Y-126000000D01*
X205550000Y-136000000D02*
X205550000Y-126000000D01*
D14*
X201600000Y-137100000D02*
G75*
G02*
X201400000Y-137100000I-100000J0D01*
G01*
X201400000Y-137100000D02*
G75*
G02*
X201600000Y-137100000I100000J0D01*
G01*
D15*
X192440000Y-78890000D02*
X192440000Y-80150000D01*
X192440000Y-85710000D02*
X192440000Y-84450000D01*
X196200000Y-78890000D02*
X192440000Y-78890000D01*
X196200000Y-85710000D02*
X192440000Y-85710000D01*
X197720000Y-85940000D02*
X197240000Y-85940000D01*
X197480000Y-85610000D01*
X197720000Y-85940000D01*
G36*
X197720000Y-85940000D02*
G01*
X197240000Y-85940000D01*
X197480000Y-85610000D01*
X197720000Y-85940000D01*
G37*
X176892164Y-85640000D02*
X177107836Y-85640000D01*
X176892164Y-86360000D02*
X177107836Y-86360000D01*
X173607836Y-58165000D02*
X173392164Y-58165000D01*
X173607836Y-58885000D02*
X173392164Y-58885000D01*
D14*
X156550000Y-123100000D02*
X156550000Y-123900000D01*
X157100000Y-122050000D02*
X159990000Y-122050000D01*
X159900000Y-124950000D02*
X161600000Y-124950000D01*
X159990000Y-120550000D02*
X161490000Y-120550000D01*
X159990000Y-122050000D02*
X159990000Y-120550000D01*
X161490000Y-120550000D02*
X161490000Y-122050000D01*
X161490000Y-122050000D02*
X162900000Y-122050000D01*
X163450000Y-123900000D02*
X163450000Y-123100000D01*
X161800000Y-124400000D02*
G75*
G02*
X161600000Y-124400000I-100000J0D01*
G01*
X161600000Y-124400000D02*
G75*
G02*
X161800000Y-124400000I100000J0D01*
G01*
D15*
X172640580Y-86990000D02*
X172359420Y-86990000D01*
X172640580Y-88010000D02*
X172359420Y-88010000D01*
D13*
X160000000Y-77500000D02*
X160000000Y-77500000D01*
X160000000Y-77500000D02*
X160500000Y-77500000D01*
X160000000Y-80500000D02*
X160000000Y-80500000D01*
X160500000Y-80500000D02*
X160000000Y-80500000D01*
X162500000Y-77500000D02*
X163000000Y-77500000D01*
X162500000Y-80500000D02*
X163000000Y-80500000D01*
X163000000Y-77500000D02*
X163000000Y-77500000D01*
X163000000Y-80500000D02*
X163000000Y-80500000D01*
D20*
X159570000Y-77600000D02*
G75*
G02*
X159430000Y-77600000I-70000J0D01*
G01*
X159430000Y-77600000D02*
G75*
G02*
X159570000Y-77600000I70000J0D01*
G01*
D10*
X191690000Y-76500000D02*
G75*
G02*
X191590000Y-76500000I-50000J0D01*
G01*
X191590000Y-76500000D02*
G75*
G02*
X191690000Y-76500000I50000J0D01*
G01*
D19*
X195868000Y-55893000D02*
X195868000Y-55893000D01*
X195868000Y-55945000D02*
X195868000Y-55945000D01*
D14*
X198450000Y-50900000D02*
X198450000Y-52950000D01*
X198450000Y-50900000D02*
X201875000Y-50900000D01*
X198450000Y-58800000D02*
X198450000Y-56750000D01*
X198450000Y-58800000D02*
X201875000Y-58800000D01*
X205299000Y-57046000D02*
X205299000Y-52654000D01*
D19*
X195868000Y-55893000D02*
G75*
G02*
X195868000Y-55945000I0J-26000D01*
G01*
X195868000Y-55945000D02*
G75*
G02*
X195868000Y-55893000I0J26000D01*
G01*
D15*
X174640000Y-61607836D02*
X174640000Y-61392164D01*
X175360000Y-61607836D02*
X175360000Y-61392164D01*
X188836359Y-101620000D02*
X189143641Y-101620000D01*
X188836359Y-102380000D02*
X189143641Y-102380000D01*
D13*
X191505000Y-105020000D02*
X193505000Y-105020000D01*
X193505000Y-101980000D02*
X191505000Y-101980000D01*
D14*
X194605000Y-104570000D02*
G75*
G02*
X194405000Y-104570000I-100000J0D01*
G01*
X194405000Y-104570000D02*
G75*
G02*
X194605000Y-104570000I100000J0D01*
G01*
D15*
X173607836Y-88640000D02*
X173392164Y-88640000D01*
X173607836Y-89360000D02*
X173392164Y-89360000D01*
X172607836Y-92640000D02*
X172392164Y-92640000D01*
X172607836Y-93360000D02*
X172392164Y-93360000D01*
X166620000Y-116653641D02*
X166620000Y-116346359D01*
X167380000Y-116653641D02*
X167380000Y-116346359D01*
X159627836Y-64140000D02*
X159412164Y-64140000D01*
X159627836Y-64860000D02*
X159412164Y-64860000D01*
X161452500Y-70872164D02*
X161452500Y-71087836D01*
X162172500Y-70872164D02*
X162172500Y-71087836D01*
D10*
X186845000Y-106500000D02*
G75*
G02*
X186745000Y-106500000I-50000J0D01*
G01*
X186745000Y-106500000D02*
G75*
G02*
X186845000Y-106500000I50000J0D01*
G01*
D15*
X166140000Y-90627836D02*
X166140000Y-90412164D01*
X166860000Y-90627836D02*
X166860000Y-90412164D01*
X168346359Y-100120000D02*
X168653641Y-100120000D01*
X168346359Y-100880000D02*
X168653641Y-100880000D01*
X156977500Y-118562258D02*
X156977500Y-118087742D01*
X158022500Y-118562258D02*
X158022500Y-118087742D01*
X184127836Y-100640000D02*
X183912164Y-100640000D01*
X184127836Y-101360000D02*
X183912164Y-101360000D01*
X188875279Y-103990000D02*
X188549721Y-103990000D01*
X188875279Y-105010000D02*
X188549721Y-105010000D01*
M02*
